<?xml version="1.0" standalone="no"?>
<!DOCTYPE svg PUBLIC "-//W3C//DTD SVG 1.1//EN" "http://www.w3.org/Graphics/SVG/1.1/DTD/svg11.dtd" >
<svg xmlns="http://www.w3.org/2000/svg" xmlns:xlink="http://www.w3.org/1999/xlink" version="1.1">
<metadata></metadata>
<defs>
<font id="fine_lineregular" horiz-adv-x="1058" >
<font-face units-per-em="2048" ascent="1536" descent="-512" />
<missing-glyph horiz-adv-x="618" />
<glyph horiz-adv-x="0" />
<glyph unicode="&#xd;" horiz-adv-x="618" />
<glyph unicode=" "  horiz-adv-x="618" />
<glyph unicode="&#x09;" horiz-adv-x="618" />
<glyph unicode="&#xa0;" horiz-adv-x="618" />
<glyph unicode="!" horiz-adv-x="399" d="M8 127q20 35 47 54.5t56 41.5q78 -23 123.5 -48t68.5 -91q-18 -45 -64 -61.5t-95.5 -9.5t-89.5 37t-46 77zM24.5 1409q-12.5 47 8.5 98q20 10 49 15.5t56.5 2.5t53 -13.5t44.5 -28.5q20 -23 27 -63t7 -89t-3 -102t-5 -103q-6 -96 0 -206q2 -47 11.5 -96.5t5.5 -92.5 q0 -45 -14.5 -84t-18.5 -74q-10 -88 -19.5 -165.5t-23.5 -143.5q-14 8 -24.5 8t-19.5 -2t-19.5 -2t-22.5 6q-2 59 -9.5 118t-17.5 112q-4 51 -3 120.5t-5 139.5q-6 86 -22.5 171t-16.5 171q-4 53 0 103.5t-2 105.5q-4 47 -16.5 94zM57 1401q14 -43 19.5 -91t7.5 -99.5 t3 -104.5t5 -107q16 -172 35.5 -343t15.5 -345q16 2 25.5 13.5t12.5 24.5t4 28.5t1 28.5q4 23 6.5 47t6.5 47q4 68 17 141.5t15 144.5q0 23 -7 45.5t-7 47.5q-8 78 -5 140t5 122q2 80 6 162.5t-22 160.5q-29 16 -58.5 23.5t-66.5 -2.5q-4 -33 -2 -52.5t-17 -31.5zM68 121 q-6 -33 17.5 -52.5t57 -24.5t68.5 6t53 40q-10 33 -39.5 53.5t-63.5 25.5t-61.5 -6t-31.5 -42z" />
<glyph unicode="&#x22;" horiz-adv-x="444" d="M4 1520q47 12 97.5 2.5t105.5 -23.5q-20 -43 -14 -95t15 -104.5t7 -100.5t-39 -83q-31 4 -46 1t-24.5 -8t-17.5 -9t-27 -2q14 106 -4 222t-53 200zM53 1503q18 -49 27.5 -98t13.5 -96t6 -92.5t6 -88.5l-8 -2q10 4 17.5 9.5t23.5 3.5q27 2 30 36.5t-2 86t-11 112t4 115.5 q-33 -2 -52.5 7t-54.5 7zM219 1520q47 12 97.5 2.5t105.5 -23.5q-20 -43 -14 -95t15 -104.5t7 -100.5t-39 -83q-31 4 -46 1t-24.5 -8t-17.5 -9t-27 -2q14 106 -4 222t-53 200zM268 1503q18 -49 27.5 -98t13.5 -96t6 -92.5t7 -88.5l-9 -2q10 4 17.5 9.5t23.5 3.5 q27 2 30 36.5t-2 86t-11 112t4 115.5q-33 -2 -52.5 7t-54.5 7z" />
<glyph unicode="$" horiz-adv-x="854" d="M5 372.5q1 16.5 5 33t8.5 33t4.5 38.5q18 0 30.5 -9t21.5 -20.5t18 -22.5t24 -17q25 0 39 -1t26.5 -1h26.5t39 2q8 41 5 73.5t-12.5 63t-20.5 59.5t-17 62q-4 23 0 45t0 39q-8 20 -24.5 36.5t-35 33t-35 34.5t-22.5 41q-14 41 -4 93t37.5 98.5t69.5 75t90 22.5 q-6 37 -16.5 75.5t-20 81.5t-15.5 88.5t-4 92.5q41 16 87 6t75 -21q12 -23 15 -51.5t4.5 -59t2.5 -61t11 -53.5q12 20 33.5 44t51 43.5t63.5 31.5t69 12q31 2 68.5 -9t48.5 -50q-12 -2 -18.5 2t-11.5 9t-12.5 9t-21.5 0q0 -12 18.5 -44t20.5 -62q-20 -14 -40.5 -21.5 t-41 -11.5t-39 -8t-33.5 -15q-37 -23 -68 -52.5t-56 -39.5q-10 -20 -16.5 -59t-12.5 -85t-11.5 -90t-13.5 -75q25 -10 63 -32.5t68 -53.5q8 -8 20.5 -19.5t18.5 -19.5q4 -4 7 -19.5t8 -25.5q14 -23 29.5 -47.5t24.5 -53t11 -61.5t-10 -71q-6 -18 -16.5 -42t-22.5 -45.5 t-24.5 -38t-20.5 -22.5q-23 -10 -48.5 -11t-53.5 -3q-23 -49 -34.5 -108.5t-29.5 -117.5q-10 -10 -31.5 -13t-44 -3t-44 1t-32.5 1q2 63 17.5 113.5t21.5 111.5q-88 18 -146 42t-118 65q-4 18 -3 34.5zM53 348q53 -25 101.5 -49.5t117.5 -28.5q6 2 5 8.5t-3 11.5t0 10t13 9 q16 -16 26.5 -35.5t18.5 -42.5q-33 4 -31 -24q4 -49 -7 -84t-15 -78q25 -6 36 -2t41 2q16 59 30.5 122.5t37.5 117.5q33 -4 50 3t46 3q43 43 62.5 92t19.5 98t-16.5 94.5t-44.5 79.5q-10 14 -24.5 27.5t-20.5 28.5q-6 10 -23.5 24.5t-39 25.5t-43 17t-34.5 0q-6 53 1.5 98.5 t17.5 87.5t17 81.5t3 82.5q53 57 121 98.5t166 55.5q-2 39 -8 54.5t-17 37.5q-57 -10 -99 -22.5t-71 -44.5q-10 -12 -16 -27.5t-13 -30t-17.5 -26t-30.5 -11.5q-25 59 -39.5 128t-14.5 151q-20 4 -39.5 8t-44.5 0q-8 -43 0.5 -90t20.5 -94t21.5 -90t2.5 -80q-27 0 -37 2 t-32 -2q-66 -41 -92.5 -97.5t-22.5 -112.5t36 -106.5t87 -78.5q-2 -47 9 -96.5t20.5 -100.5t10.5 -99t-24 -92q-25 10 -52 10.5t-56 1.5t-56.5 9t-54.5 33q10 -16 3 -29.5t-3 -38.5zM175 924q-9 41 4.5 78.5t60.5 54.5v24q16 -12 20 -17t27 -7q14 -53 11 -127t-19 -127 q-39 10 -67 45t-37 76zM213 931.5q2 -20.5 10.5 -39t24.5 -26.5q-4 33 1 74t-9 64q-16 -12 -22.5 -32t-4.5 -40.5zM326 694q27 -10 61.5 -33.5t61 -57.5t35 -76t-20.5 -87q-2 -4 -11.5 -9t-17.5 -15q-10 -16 -29.5 -41t-48.5 -21q-14 76 -25 170t-5 170zM370 584.5 q3 -23.5 6 -49t5 -53t-2 -58.5q33 12 47 42t12 62.5t-19.5 62.5t-47.5 42q-4 -25 -1 -48.5z" />
<glyph unicode="&#x26;" horiz-adv-x="1103" d="M21.5 456.5q-1.5 106.5 39.5 205.5q8 23 18.5 41t24.5 40q29 39 67 69t89 42q-37 45 -78 95t-74.5 103.5t-53 109t-11.5 108.5q-8 4 -8 33.5t11 64.5t33.5 66.5t59.5 42.5q12 25 37 37t57.5 18t70.5 7t73 1q4 8 7 14.5t7 12.5q8 -16 25.5 -21.5t37 -7.5t38 -6t30.5 -16 q86 0 129 -43t53.5 -104.5t-3 -131.5t-39.5 -121q-16 -25 -35 -55.5t-40.5 -60t-48 -56t-59.5 -45.5q39 -59 77 -112.5t76 -106.5t74.5 -108.5t73.5 -116.5q12 10 30.5 23.5t40 24.5t42.5 18t35 7q6 8 3 15.5t7 17.5q29 4 51.5 -2t41 -19.5t33.5 -30.5t30 -36 q-10 -29 -32 -49.5t-46.5 -41t-49 -42t-40.5 -51.5q-6 6 -11.5 5t-9.5 -4t-9 -4t-11 3q37 -59 78 -113.5t63 -134.5q-43 -10 -80 -22.5t-92 -22.5q-31 33 -70 70.5t-79 115.5q-78 -55 -171.5 -78.5t-181.5 -14.5t-162.5 50t-113.5 113q-53 98 -54.5 204.5zM55 428 q4 -90 45 -161.5t122 -116t204 -37.5q59 2 100 22.5t75 42t67.5 40t83.5 18.5q-10 -23 2 -46.5t33.5 -50t44 -54.5t32.5 -54q33 4 59.5 12t49.5 25q-37 41 -65.5 94t-59.5 106q10 29 37.5 56.5t58.5 54.5t56.5 49.5t33.5 42.5q-10 10 -30.5 21.5t-34.5 35.5 q-29 -12 -54.5 -37.5t-50 -48t-50.5 -33t-56 8.5q-33 61 -72 116.5t-83 111.5t-91 119.5t-96 143.5q51 25 101 72t87 109.5t50.5 136t-9.5 153.5q-18 59 -85.5 93t-150.5 42.5t-163 -12t-121 -69.5q-66 -78 -62.5 -161t44 -161t102 -144.5t113.5 -111.5 q-90 -31 -150.5 -100.5t-90.5 -153.5t-26 -174zM149.5 421q4.5 68 34 131.5t76.5 120t98 97.5q61 -27 95 -70t63 -96t63 -113.5t95 -119.5q-10 -45 -28.5 -75t-44.5 -49.5t-57.5 -30.5t-64.5 -17q-43 -10 -88 -10.5t-85 10t-72.5 33t-51.5 55.5q-37 66 -32.5 134zM164 1241 q-6 41 11 73.5t40 59.5q0 -2 9 5t23.5 17.5t30 19.5t27.5 14q33 8 75 1.5t82 -26t69.5 -52t37.5 -75.5q8 -41 -3 -85t-36.5 -82t-59.5 -66.5t-69 -36.5t-72.5 13t-72.5 58t-60.5 81t-31.5 81zM191.5 457.5q-7.5 -62.5 15.5 -144.5q12 -43 52 -64.5t89 -25.5t102.5 6.5 t93.5 34t58.5 56t1.5 71.5q-20 37 -44.5 80t-51.5 87t-55.5 85t-59.5 76q-51 -29 -95 -65t-71.5 -85t-35 -111.5zM223 1276q-10 -39 4.5 -80t41 -73.5t56 -53t52.5 -20.5q68 16 107.5 59t49 95t-13 103.5t-76.5 82.5q-35 8 -73.5 5t-71.5 -16.5t-54.5 -39t-21.5 -62.5z" />
<glyph unicode="'" horiz-adv-x="229" d="M4 1520q47 12 97.5 2.5t105.5 -23.5q-20 -43 -14 -95t15 -104.5t7 -100.5t-39 -83q-31 4 -46 1t-24.5 -8t-17.5 -9t-27 -2q14 106 -4 222t-53 200zM53 1503q18 -49 27.5 -98t13.5 -96t6 -92.5t6 -88.5l-8 -2q10 4 17.5 9.5t23.5 3.5q27 2 30 36.5t-2 86t-11 112t4 115.5 q-33 -2 -52.5 7t-54.5 7z" />
<glyph unicode="(" horiz-adv-x="868" d="M6 504q4 10 7 5t7 -5q-8 20 -11 26.5t11 26.5q-8 -4 -11 12.5t-3 35t4 32.5t10 8q-6 8 -5 16.5t2 15.5t0 13t-11 12q4 8 7 4t7 -4q0 12 5.5 51.5t17.5 73.5q8 14 21.5 23.5t17.5 19.5q2 6 -6 10.5t-8 6.5q2 14 17 30.5t17 20.5q37 61 68 107.5t66 99.5q6 8 6 20.5t8 22.5 q2 4 10 0t10 0q18 16 28.5 42.5t33.5 45.5q4 4 20.5 7t20.5 7q6 4 14 22.5t33 28.5q16 10 20 26.5t15 27.5q8 4 25.5 11t19.5 9q53 41 104 66.5t115 50.5q-2 -20 16 -21q-12 -23 -11 -39t8 -32.5t15.5 -33.5t10.5 -42q-61 -16 -116.5 -47t-101.5 -71t-83 -85t-60 -90 q-133 -96 -189 -245.5t-38 -327.5q14 -25 37.5 -56.5t21.5 -54.5q23 -8 34 -39t46 -59q45 -35 104.5 -57.5t125 -40t135 -33t135.5 -31.5q-4 -33 0 -48.5t6 -24.5t-3 -19t-30 -35q-115 10 -233.5 24.5t-223 54.5t-185.5 118.5t-120 218.5q16 14 4 40.5t-18 47.5zM49 592 q0 -53 8.5 -107.5t16.5 -113.5q37 -94 107.5 -154.5t161.5 -99.5t197.5 -59.5t217.5 -34.5q-2 10 2 23t9 25.5t6 22.5t-7 15q-51 6 -117.5 17t-132 29.5t-122 41t-87.5 51.5q-18 20 -41.5 43.5t-44 48.5t-33 48.5t-8.5 41.5q-16 12 -27.5 40t-17.5 58.5t-10 55t-4 30.5 q6 41 12 87.5t18.5 91.5t33 88t57.5 77q-4 18 16.5 42t48.5 49q-4 0 -10 1t-6 7q25 -4 47 13t41.5 41t33 47.5t19.5 29.5q74 84 137.5 127t139.5 76q0 23 -11.5 41t-9.5 43q-29 -4 -56.5 -17.5t-52 -31t-47 -35t-40.5 -27.5q6 0 6 -8q-143 -100 -236 -250q-2 -2 -8 4t-6 4 q-37 -68 -73 -130t-63.5 -125.5t-45 -128t-19.5 -138.5z" />
<glyph unicode=")" horiz-adv-x="868" d="M33 54q2 9 6 24.5t0 48.5q66 16 135.5 31.5t135 33t125 40t104.5 57.5q35 29 46 59.5t33 38.5q0 12 6.5 25.5t15.5 29t19.5 29.5t18.5 27q18 178 -38 327.5t-189 245.5q-23 45 -60 90t-83 85t-101 71t-117 47q2 25 10.5 42t15.5 33.5t8 33t-11 38.5q18 0 16 21 q63 -25 114.5 -50.5t104.5 -66.5q2 -2 19.5 -9t25.5 -11q10 -10 14.5 -26.5t20.5 -27.5q25 -10 33 -28.5t14 -22.5q4 -4 20.5 -7t20.5 -7q23 -18 33 -45t29 -43q2 -4 10 0t10 0q8 -10 8 -22.5t6 -20.5q35 -53 66 -99.5t67 -107.5q2 -4 17.5 -20.5t17.5 -30.5q0 -2 -8 -6 t-6 -11q4 -10 17.5 -19t21.5 -24q12 -35 17 -73.5t5 -51.5q4 0 7.5 4.5t7.5 -4.5q-10 -6 -11.5 -12t-0.5 -13t2.5 -15.5t-5.5 -16.5q6 6 10.5 -8t4.5 -32.5t-3 -35t-12 -12.5q14 -20 11.5 -26.5t-11.5 -26.5q4 0 7.5 5t7.5 -5q-6 -20 -18.5 -47t3.5 -41 q-39 -139 -119.5 -218t-185 -119t-223.5 -54.5t-233 -24.5q-25 25 -30 35t-3 19zM73 94.5q1 -10.5 6 -23t9 -25.5t2 -23q111 14 217.5 34.5t197.5 59.5t161.5 99t107.5 155q8 59 16.5 113.5t8.5 107.5q-2 74 -19.5 138.5t-45 128t-63.5 126t-73 129.5q0 2 -6 -4t-8 -4 q-92 150 -236 250q0 8 6 8q-18 10 -40.5 27.5t-47 35t-52.5 30.5t-56 18q2 -25 -9.5 -43.5t-11.5 -40.5q76 -33 139.5 -76t137.5 -127q6 -6 19 -29.5t32.5 -47.5t42 -41t47.5 -13q0 -6 -6 -7t-10 -1q29 -25 49 -48.5t16 -42.5q37 -35 57.5 -77.5t33 -87.5t18.5 -91.5 t12 -87.5q0 -6 -4 -30.5t-10 -55t-17.5 -58.5t-27.5 -40q2 -18 -9.5 -41.5t-32 -48.5t-44 -48.5t-41.5 -43.5q-31 -29 -87.5 -51.5t-122 -41t-132 -29.5t-117.5 -17q-8 -4 -7 -14.5z" />
<glyph unicode="*" horiz-adv-x="962" d="M16 1214q9 39 27 86q31 6 84 -3t100 -15q-10 41 -30.5 68.5t-30.5 66.5q20 35 50 49.5t60 36.5q35 -20 63 -61t38 -74q14 14 11 36.5t-8 47.5t-5 47.5t18 34.5q8 2 15.5 1t9.5 5h6q0 -4 6 -6t13.5 -2t12.5 2t5 6h24q18 -10 26.5 -28.5t10.5 -42t-1 -46l-5 -37.5 q18 2 30.5 10.5t22 19.5t18.5 22.5t21 21.5q12 -14 28.5 -23.5t34 -19.5t32 -21.5t24.5 -27.5q-35 -16 -61.5 -39.5t-57.5 -46.5q10 -10 13.5 -24.5t13.5 -24.5q20 23 54 31t69 18q16 -31 30.5 -61.5t22.5 -67.5q-10 -18 -28.5 -27.5t-41 -11.5t-49 -1t-51.5 3 q10 -23 26.5 -38t34 -30.5t33 -33t23.5 -41.5q-29 -35 -61.5 -67t-75.5 -54q-8 14 -25.5 26.5t-28.5 26.5q-14 16 -22 39t-29 19q-16 -14 -13 -35t10 -44.5t12 -46t-9 -40.5q-45 -6 -69.5 3t-47.5 -3q-20 18 -25 45.5t-8.5 54.5t-13.5 48.5t-39 27.5q-10 -8 -20 -23.5 t-21.5 -32t-26 -28.5t-30.5 -15q-18 0 -39.5 11.5t-41 28t-34 36t-16.5 31.5q20 41 51 67.5t55 61.5q-8 6 -14 13t-10 18q-20 -2 -35.5 -7.5t-31 -10.5t-34 -8t-42.5 1q-16 59 -7 98zM57 1145q29 4 42.5 10t35.5 8q63 8 82 -18.5t16 -61.5q-29 -31 -55 -52t-41 -66 q16 -23 28.5 -34t47.5 -16q27 20 40 43t32 50q35 -12 67.5 -24.5t42.5 -41.5q4 -6 1 -22.5t-1 -24.5q6 -41 23 -72q12 6 18 7t10.5 1t12.5 -1t26 -1q4 16 3 32t-5 32t-8 33.5t-6 40.5q18 0 35.5 14t36.5 14q16 -10 25 -23.5t16.5 -26.5t15.5 -27.5t25 -26.5q10 14 21 23.5 t22.5 17.5t21.5 18.5t21 28.5q-37 35 -64 65.5t-31 83.5q23 6 46.5 6.5t45 1.5t39 8t27.5 27q2 16 -12.5 32t-18.5 40q-16 2 -34.5 -5t-37 -16.5t-33.5 -17.5t-28 -10q-18 16 -26.5 44t-12.5 56q23 27 53.5 40.5t47.5 43.5q-25 8 -31 19.5t-31 19.5q-4 -18 -20.5 -34.5 t-37 -22.5t-41 0t-32.5 31q18 25 11 55.5t-11 58.5q-14 0 -21 1t-12.5 2t-10.5 0t-15 -7q-10 -20 -8 -41.5l4 -43t-1 -42t-20 -37.5q-20 -8 -38.5 11.5t-34 47t-26.5 52.5t-20 25q0 -12 -12 -25.5t-27.5 -25t-27.5 -19.5l-12 -8q12 -6 27.5 -30t28.5 -50.5t21 -48.5l9 -23 q-51 6 -94.5 13.5t-114.5 17.5q-8 -35 -13.5 -60.5t-1.5 -68.5z" />
<glyph unicode="+" horiz-adv-x="1052" d="M6 834q16 25 47 21.5t58 -1.5q96 2 189 5t177 -11q4 74 10.5 135t10.5 115.5t5 108t-5 112.5l4 8t2 12q55 -4 82.5 -16t54.5 -37q-2 -72 -6 -128t-9 -107.5t-11.5 -101.5t-14.5 -109q74 2 127 4t100 5t93.5 8t107.5 11q4 -33 3 -58.5t-6 -48t-12 -45t-18 -50.5 q-55 -2 -99 0t-88 6t-95 8t-125 4q-8 -23 -7 -49.5t1 -54.5q0 -47 3 -88t4 -81t-3 -80t-19 -85q-84 2 -149 39q4 92 6 197.5t0 207.5q-53 12 -96 12t-86 -4t-90.5 -7t-106.5 5q-10 43 -10 64.5t10 46.5q-2 6 -9 7t-15.5 1t-13.5 3t-1 16zM63 719q35 -4 63 0t50 6q23 2 64 5 t83 5t77.5 -1t50.5 -15q8 -6 10 -29.5t1 -55.5t-3 -67t-2 -61q-2 -51 -3 -97.5t-10 -97.5q33 0 54.5 -13t56.5 -13q8 61 4 118.5t-9 110.5t-4 103.5t21 99.5q20 10 45 8t47 -2q55 0 89 -4t64 -7t68 -6.5t103 -0.5q4 31 10 59.5t8 62.5q-63 -12 -112 -15t-97.5 -4t-101.5 -3 t-123 -10q2 76 8.5 133t12.5 110.5t11 110.5t9 131q-16 10 -37 15.5t-41 11.5q0 -8 -2 -12.5t-6 -8.5q4 -53 8.5 -85t4.5 -54.5t-2.5 -42t-10.5 -47.5q-6 -31 -8 -61.5t-3 -63.5t-5 -63.5t-17 -61.5q-61 8 -115.5 9t-105.5 0t-100 -1t-105 6v-102z" />
<glyph unicode="," horiz-adv-x="397" d="M4 -326q6 43 29.5 70t45 55.5t34 67.5t-3.5 104q-2 25 -16.5 36t-31 21.5t-30 25t-11.5 42.5q16 86 51 125t75 43t83 -22.5t78 -70.5t57.5 -101.5t22.5 -116.5q0 -74 -31.5 -140.5t-86 -109.5t-123 -54.5t-142.5 25.5zM49 -303q94 -16 162 23.5t99.5 110.5t20 161 t-72.5 174q-39 37 -75 43t-63.5 -9.5t-44 -46t-14.5 -63.5q86 -45 105.5 -106.5t2.5 -120t-54 -105.5t-66 -61z" />
<glyph unicode="-" horiz-adv-x="741" d="M-10 762q88 -8 183 -6t189.5 9t180 21.5t155.5 30.5q20 -47 4 -94t-40 -100q-72 20 -159 13t-175 -15.5t-169 -7.5t-141 38q8 31 3 45.5t-14 23.5t-15 16t-2 26zM39 727q4 -10 11 -21.5t5 -27.5q4 -18 32 -24.5t73 -6.5t103.5 4t123 7.5t130 4.5t126.5 -6q-2 14 2 29.5 t9 30t9.5 30t2.5 31.5q-145 -29 -277.5 -37t-263.5 -8q-8 0 -20.5 3t-24.5 4t-23.5 -1t-17.5 -12z" />
<glyph unicode="." horiz-adv-x="397" d="M13.5 138q-17.5 48 5 98.5t100.5 87.5q68 18 122 -0.5t90 -57.5t49 -87t-1 -90t-59.5 -66.5t-126.5 -14.5q-66 8 -114 45t-65.5 85zM63 195q-12 -31 2.5 -61t43 -51.5t65.5 -32.5t72 -6t62.5 30.5t33.5 77.5q4 47 -35 83.5t-90 50t-98.5 -5.5t-55.5 -85z" />
<glyph unicode="/" horiz-adv-x="557" d="M9 99.5q7 58.5 28.5 150.5t51.5 210t63.5 246t67.5 254.5t62.5 236.5t47 195t22.5 126q31 -2 64 -4.5t58.5 -4.5t40.5 -5t15 -7q-2 -16 -15 -88t-34.5 -178.5t-50.5 -237.5t-59.5 -266t-61 -263t-59.5 -228.5t-51.5 -162t-36.5 -63.5q-37 -6 -52.5 -9t-26.5 -1t-24.5 10 t-46.5 25q-10 6 -3 64.5zM37 55q25 -23 47 -21.5t53 15.5q20 45 50 143.5t64 228.5t68.5 278.5t67.5 291t61.5 268t47.5 211.5q-39 10 -57.5 7.5t-49.5 3.5q-96 -381 -191 -738.5t-161 -687.5z" />
<glyph unicode="0" horiz-adv-x="942" d="M2 570q0 81 6 168t15.5 169t23.5 151.5t29 112.5q12 59 56 110.5t106.5 87.5t134 53.5t142.5 9t131.5 -45t96.5 -110.5q59 -125 96.5 -258t52.5 -261t10 -245t-30 -207q-20 -74 -84.5 -136.5t-152.5 -102t-186.5 -53t-185.5 12t-151.5 95t-82.5 192.5q-14 41 -20.5 108.5 t-6.5 148.5zM41 573.5q2 -102.5 18.5 -198.5t50.5 -174t91 -113q86 -41 174 -46t171 23.5t156.5 90t133.5 153.5q16 68 25 154t9 178t-13 182t-40 164q-23 57 -41 115.5t-42.5 111t-58.5 93.5t-85 61q-98 41 -197.5 18.5t-175.5 -85t-117 -151.5t-24 -183q-8 -6 -17.5 -63.5 t-14.5 -142.5t-3 -187.5zM134 750q1 163 31 268.5t81 162t112.5 76t125 8t116.5 -39.5q29 -16 56.5 -56.5t52 -96.5t43 -121.5t29 -133t12.5 -132t-9 -118.5q-16 -76 -40.5 -145.5t-65.5 -123.5t-104.5 -87t-155.5 -33q-35 0 -77 13.5t-78 38t-61.5 57t-27.5 69.5 q-41 231 -40 394zM171 550q9 -99 39 -178t87 -112q72 -55 139.5 -56t124.5 35.5t101.5 102.5t70 145.5t28.5 163.5t-24 156q-2 59 -20.5 124.5t-48 124t-70.5 104.5t-88 66.5t-100.5 10.5t-108.5 -63q-29 -8 -55.5 -69t-46 -152t-28.5 -197.5t0 -205.5z" />
<glyph unicode="1" horiz-adv-x="460" d="M12 659q-8 51 13.5 100.5t35.5 94.5q51 147 99.5 296.5t107.5 283.5h27q0 -45 -11.5 -89.5t-27.5 -89.5t-34.5 -91t-33.5 -93q-29 -90 -55.5 -182t-60.5 -182q10 -14 30.5 -19.5t43 -8.5t45 -9t36.5 -21q-27 -260 0 -598h68q4 147 6 314t4 343.5t4 357.5t6 357 q29 -4 40.5 -21.5t13.5 -42t-1 -49t-3 -42.5q4 -96 0.5 -245t-6.5 -320t-6 -349t1 -334q-18 -6 -42.5 -8t-49 0t-47 7.5t-37.5 13.5q-14 74 -17 153.5t-2 159.5t5 152.5t4 130.5q-14 14 -32.5 20t-38 7t-41 0t-44.5 3z" />
<glyph unicode="2" horiz-adv-x="1036" d="M10 1268q6 43 38 74.5t79 51t104.5 29t112.5 4.5q68 -6 126 -37.5t105.5 -76.5t79 -101.5t45.5 -111.5q-6 -78 -6 -170t-20 -176q-16 -53 -40 -100.5t-51.5 -92.5t-53 -88t-44.5 -84q-33 -23 -56 -48.5t-43.5 -53l-41 -55t-45.5 -52.5q98 0 168 3t131 5t124.5 1t147.5 -9 q14 0 18.5 9.5t18.5 3.5q10 -6 15.5 -12.5t10.5 -22t9 -44t12 -81.5q-41 -23 -96 0q-111 -12 -204 -11t-179 1q-55 0 -109.5 -5.5t-108.5 -8.5t-106.5 -2t-105.5 16q-25 57 -19.5 103t28 87t56 77t64.5 70q37 43 67.5 85t59.5 87.5t57.5 92.5t61.5 100q31 57 52.5 113.5 t25.5 114t-11.5 117.5t-56.5 124q-43 27 -88 34t-88 -1t-82 -27.5t-72 -44.5q-35 23 -53 53.5t-37 59.5zM67 1264.5q-1 -19.5 23 -43.5q14 -4 26.5 5t26 21.5t29.5 24.5t41 14q57 8 121.5 -12.5t114.5 -42.5q41 -70 74.5 -147.5t27.5 -170.5q-6 -47 -29.5 -99t-53.5 -105.5 t-61.5 -102.5t-52.5 -88q-8 -10 -19 -24.5t-21.5 -28.5t-17.5 -27.5t-7 -19.5q-14 -35 -28.5 -45.5t-31.5 -32.5q-20 -20 -37.5 -45t-35 -49.5t-35 -46t-37.5 -35.5q0 -43 -8 -67.5t8 -45.5q76 0 175 6t207.5 11.5t221.5 7.5t219 -6q-14 20 -9 41.5t-9 44.5 q-25 -12 -51.5 -13.5t-52 1.5t-52 7.5t-51.5 4.5q-92 0 -168 -9.5t-131 -9.5q-23 0 -44.5 -3t-43 -3t-39.5 4t-33 21q20 45 52 87t69 84t76 86t74 97q57 98 105 209.5t54 241.5q8 109 -28.5 200.5t-105 148t-163 70t-198.5 -36.5q-18 -8 -40 -18t-36 -25.5t-15 -35z" />
<glyph unicode="3" horiz-adv-x="813" d="M5 1366q-3 10 1 27q63 31 140 38t151 -5.5t140.5 -44t113.5 -81.5q39 -43 65.5 -105t37 -130t2 -133.5t-41.5 -112.5q-12 -16 -34.5 -29.5t-36.5 -31.5q-8 -10 -30.5 -43t-57.5 -56q39 -18 83 -46.5t80.5 -65.5t61.5 -83t29 -97q4 -53 -9.5 -95.5t-38 -76t-58.5 -62.5 t-71 -53q-39 -25 -73.5 -38t-71.5 -19.5t-79 -8.5t-97 -4q-25 -2 -56.5 1t-61.5 8.5t-53.5 12.5t-31.5 13q8 29 11.5 48.5t4.5 38t3 41t10 58.5q53 -16 128 -19t149.5 6t141 28.5t105.5 48.5q20 86 -7.5 135t-85.5 73.5t-135 29t-155 2.5q-29 49 -32 96t-5 117 q66 -6 125.5 13t107.5 56t83 88t51 111q-18 61 -56 116.5t-87.5 94.5t-106.5 55t-117 0q-16 -4 -25.5 -11t-17.5 -14.5t-17 -12.5t-22 -3q-14 -2 -16 8.5t-2 23.5t-2 25.5t-14 12.5q2 14 -2.5 22t-9.5 15.5t-8 17.5zM51 1354q14 -25 21.5 -25t29.5 -2q43 0 77 -1t65.5 -7 t62.5 -18.5t66 -34.5q14 -10 29.5 -33t31.5 -39q23 -20 41.5 -37.5t32.5 -34.5q20 -29 28.5 -62.5t5.5 -65t-16.5 -61.5t-38.5 -50q-4 -4 0.5 -14.5t-0.5 -14.5q-12 -16 -33.5 -35.5t-44 -38t-47 -35t-43.5 -24.5q-31 -10 -65.5 -18.5t-67.5 -8.5q0 -23 1 -36t1 -24t1 -23.5 t6 -30.5q94 8 183 -10.5t148.5 -61.5t75.5 -111.5t-35 -163.5q-43 -18 -107.5 -33.5t-135 -23.5t-138 -7t-116.5 17q-2 -41 -6.5 -64.5t14.5 -53.5q68 -16 135.5 -15.5t130 13t116.5 36t91 52.5q14 10 34.5 19t28.5 15q12 14 23.5 36t20 45.5t13.5 44t5 34.5q0 63 -29 104.5 t-63 73.5q-29 33 -68 62.5t-82 34.5q-29 4 -56.5 -3.5t-52 -13.5t-44 -2t-33.5 29q53 27 102 35t84 39q16 12 43 38.5t53.5 57.5t47 59.5t26.5 44.5q16 45 15 99.5t-13 106.5t-34.5 96t-47.5 71q-23 25 -64.5 46.5t-92 36.5t-103.5 25.5t-96 10.5q-35 0 -66.5 -10.5 t-50.5 -34.5z" />
<glyph unicode="4" horiz-adv-x="937" d="M0 516q12 66 43 118t47 105q27 86 49.5 167t42 164t39 169t39.5 182q12 6 38 8.5t54.5 1.5t56 -5.5t48.5 -12.5q6 -29 3 -55.5t-11.5 -53t-18.5 -53t-18 -53.5q-14 -57 -18.5 -118.5t-26.5 -114.5q-12 -39 -39 -72t-39 -72q-10 -29 -14.5 -57.5t-14.5 -56.5 q-2 -6 -5 -10.5t-3 -10.5q53 2 112.5 7t120 6t121 -3t113.5 -18q47 16 103.5 13t101.5 -21q2 -10 5 -26.5t3 -37t-4 -40t-13 -31.5h-63.5t-78.5 1t-84 1t-81 -2q-16 -117 -36.5 -248t-61.5 -262q-35 -6 -75 -12.5t-77 3.5q-6 61 7.5 123t29 125.5t25.5 131t0 139.5 q-49 -4 -104.5 -8.5t-110.5 -7.5t-108.5 -5t-96.5 2zM66 551q55 2 106 7t100.5 9t99.5 6t105 -2q2 -92 -5 -159.5t-18.5 -126t-24.5 -113.5t-26 -123h54q20 66 34.5 130.5t25.5 130t22.5 132t27.5 138.5q66 -14 150 -9.5t162 0.5q2 18 0 40t8 30q-43 16 -76 8t-84 -8 q-45 0 -87 7t-89 7q-51 0 -102 -6q-63 -4 -126 -4t-124 -12q-10 59 3 111.5t34.5 100.5t46 95t41.5 96q27 84 42 170t37 178q-18 4 -39.5 2.5t-31.5 6.5q2 -10 -3 -16.5t-13.5 -9.5t-14.5 -3t-4 4q-14 -23 -12 -54.5t-6 -62.5q-4 -23 -13.5 -44t-13.5 -46 q-23 -111 -49.5 -213t-48.5 -180q-37 -119 -88 -217z" />
<glyph unicode="5" horiz-adv-x="1142" d="M6 135q6 84 41 137q23 -4 36 -14t24.5 -23.5t22.5 -27.5t30 -23q51 -29 116.5 -38t134 -0.5t135 33t119 65.5t84 96t33.5 125q0 53 -20.5 111.5t-59.5 91.5q-14 10 -37.5 19t-43.5 20q-18 12 -34 24t-32 17q-53 14 -106.5 14t-105.5 -6t-104.5 -14.5t-103.5 -8.5 q-4 25 2 44.5t17.5 38t23.5 37.5t23 42q23 51 37 108.5t29.5 114t37 108.5t57.5 97q-2 29 1.5 51.5t15.5 36.5q-4 10 1 13t5 12q47 -10 104.5 -14.5t118 -7.5t119.5 -5t113 -6q57 -6 107 -21.5t87 -44.5q-14 -41 -28.5 -76.5t-30.5 -60.5q-35 10 -74 13.5t-79 2t-77.5 -2.5 t-68.5 4q-12 4 -19.5 12t-19.5 12q-10 4 -25.5 1t-23.5 -1q-25 4 -49.5 7t-53.5 1q-23 -88 -60.5 -162.5t-62.5 -160.5q72 0 156 -22.5t158 -49.5q61 -23 114.5 -47.5t94.5 -61t66.5 -87t33.5 -119.5q4 -47 -4 -95.5t-24.5 -94.5t-37 -90t-40.5 -85q-41 -57 -109 -89 t-133 -56q-43 -16 -98.5 -20.5t-116 -1.5t-126 10.5t-128.5 11.5q-41 29 -88 47t-74 59zM63 190q-18 -35 6.5 -63.5t57.5 -42.5q41 -14 108.5 -24.5t120.5 -14.5q115 -8 209 13.5t160 43.5q51 39 96 97.5t73 129t35 152.5t-18 170q-25 12 -34 36t-31 46q-4 4 -16.5 5 t-24.5 10q-6 6 -12.5 18t-10.5 14q-43 23 -93 34t-93 22q-8 4 -10 10t-6 8q-6 2 -12.5 -5t-20.5 -3q-35 10 -62.5 20.5t-50.5 10.5q-33 2 -63.5 -10.5t-65.5 1.5q-6 43 3 81t25.5 73t37 69.5t32.5 69.5q10 33 13.5 67t27.5 62q45 -2 105.5 -6t127 -10t136.5 -15.5t131 -17.5 q23 45 41 88q-70 18 -138.5 24.5t-138 9.5t-140 9.5t-142.5 22.5q0 -14 -8 -25q-4 -39 -18.5 -74.5t-31 -69.5t-34 -68t-29.5 -71q-25 -78 -42 -157.5t-62 -149.5q106 31 218.5 23t205 -49t149.5 -115t57 -174q-2 -70 -26.5 -120t-54.5 -105q-57 -29 -110.5 -66t-125.5 -57 q-59 -14 -132 -13.5t-132 13.5q-53 14 -96 38.5t-91 34.5z" />
<glyph unicode="6" horiz-adv-x="987" d="M10 297q-2 25 3 49.5t11.5 51t10.5 55t-2 59.5q16 27 27.5 55.5t21.5 59t21.5 60.5t29.5 58q33 47 64.5 106.5t66.5 106.5q74 115 160 227.5t176 241.5l31 -8q39 8 62.5 -12.5t28.5 -50t-9.5 -61t-46.5 -44.5q-55 -117 -126 -218t-132 -214q90 6 168.5 -20.5t140 -76.5 t102.5 -118.5t55.5 -143.5t-1 -152t-66.5 -144q-29 -14 -54.5 -36t-53 -42t-58.5 -38.5t-68 -27.5q-43 -10 -110.5 -9t-138 12.5t-132 31t-92.5 47.5q-10 20 -24.5 42t-28.5 44.5t-24.5 49t-12.5 59.5zM69 324q-1 -41 5 -70q14 -61 55 -103t99.5 -67t129 -32t142.5 1 q35 6 73.5 22.5t75.5 38t68 45t47 46.5q59 74 66.5 152.5t-18.5 149.5t-76 129t-105 93q-12 10 -31.5 20.5t-32.5 20.5q-12 8 -40.5 15.5t-58.5 11.5t-54.5 5t-28.5 -1q-16 -10 -22.5 -17.5t-8.5 -13.5t-3 -13t-7 -20q29 0 63.5 -5t68.5 -13t64.5 -16.5t49.5 -16.5 q29 -10 39 -16t20 -17q4 -4 12.5 -1t12.5 1q29 -14 47 -48t20 -52q0 -8 6.5 -10t8.5 -8q20 -45 24 -99.5t-11 -107t-49 -98.5t-89 -76q-41 -25 -94.5 -35t-107.5 -8t-104.5 17t-82.5 42q-16 12 -32.5 33.5t-31 46t-25 50.5t-12.5 46q-16 129 27 219t115 156 q29 61 65.5 117.5t67.5 113.5q59 111 132 214.5t134 201.5q-8 0 -27.5 11.5t-27.5 13.5q-23 -43 -47.5 -78t-53.5 -82q-72 -113 -156.5 -226.5t-158.5 -218.5q-10 -12 -17.5 -28.5t-14.5 -34.5t-14 -35.5t-13 -27.5q-4 -4 -11.5 -18.5t-9.5 -18.5t1 -13.5t-1 -17.5 q-4 -12 -13 -19.5t-14 -15.5q-10 -27 -18 -67.5t-12 -83.5t-5 -84zM200 413.5q-5 -59.5 7 -116.5q45 -68 93 -103.5t124 -39.5q39 0 93 9t91 32q49 31 79 86t36 116.5t-10.5 119.5t-55.5 93q-8 8 -27.5 19.5t-42 20.5t-42 17.5t-27.5 10.5q-23 6 -46 4t-46 -2t-42 5t-34 26 q-2 4 -3 7t-7 3v-27q-39 -29 -68.5 -71.5t-48 -96t-23.5 -113z" />
<glyph unicode="7" horiz-adv-x="901" d="M6 1421q84 12 175 7t184.5 -12t187.5 -10t186 9q35 4 77 13.5t79 -13.5q-23 -57 -53.5 -111.5t-63.5 -104.5t-64.5 -99t-56.5 -94q-14 -27 -26.5 -46.5t-24.5 -48.5q-4 -12 -6 -29.5t-8 -31.5q-4 -4 -8 -2t-6 -4q-10 -41 -42 -85t-57 -85q-63 -176 -111.5 -334 t-95.5 -334q-53 -10 -95 5.5t-89 25.5q47 270 125 503.5t195 444.5q37 66 75.5 131.5t69.5 134.5q-43 6 -107.5 7.5t-136 3.5t-143.5 10t-129 31q0 37 -7 60t-24 58zM68 1361q4 -11 6 -22q33 -12 74.5 -18t83.5 -7t79 -1t60 -2q68 -6 126 -3t103 -20q0 -47 -15.5 -86 t-36 -72.5t-44 -63.5t-39.5 -60q-23 -43 -46.5 -93.5t-47.5 -99.5q-90 -182 -138.5 -369.5t-101.5 -377.5q18 0 30.5 -4.5t25 -8.5t25.5 -8t32 -2q55 197 107 377t138 342q41 80 80 161t82 156q43 78 94.5 152t92.5 153q-90 -23 -185.5 -24.5t-194 4.5t-195.5 14t-189 6 q-10 -12 -6 -23z" />
<glyph unicode="8" horiz-adv-x="1024" d="M2 985q-2 92 18.5 159.5t65.5 127.5q45 59 116.5 102t159.5 43q23 0 48.5 9.5t46.5 9.5q31 -2 57.5 -15.5t60.5 -3.5q57 -31 123 -89t111 -135t58.5 -164t-33.5 -173q-4 -10 -16.5 -19.5t-20.5 -19.5q-20 -25 -34.5 -37t-31.5 -26q-6 -6 -8 -14.5t-5 -14.5t-7 -10t-15 0 q115 -68 175.5 -173.5t43.5 -230.5q-4 -39 -23.5 -85t-51 -87t-73.5 -72.5t-91 -41.5q-2 -2 -8 5t-9 3q-2 -2 -1 -9.5t1 -9.5q-53 -16 -120.5 -17t-135 10t-129 31.5t-102.5 49.5q-12 6 -29.5 25.5t-27.5 23.5q-14 4 -28.5 26.5t-26 53.5t-19.5 63.5t-12 57.5q-8 61 3 118.5 t35.5 109.5t60.5 96t77 81q-31 35 -63.5 65t-73.5 56q2 12 -5.5 26.5t-17.5 31t-22.5 33t-20.5 30.5zM60 1024q-3 -41 8 -70q25 -4 30.5 -23.5t16.5 -39.5q25 -25 49 -44.5t52 -39t57.5 -43t62.5 -57.5q-10 -2 -13.5 4t-7.5 -4q-31 6 -49 2t-31.5 -14.5t-23.5 -27t-25 -34.5 q-8 -10 -24.5 -18.5t-20.5 -18.5q-35 -59 -43 -142t-2 -155q6 -61 55.5 -111.5t121 -83t153.5 -45t149 -0.5q76 14 137.5 53.5t100.5 95.5t51.5 122.5t-12.5 136.5q-10 31 -29.5 58.5t-42 52t-45 45t-39.5 36.5q-6 8 -16 10.5t-21.5 4.5t-19.5 7t-8 17q14 41 42.5 73 t59.5 63.5t55.5 66.5t28.5 84q2 27 -11 74t-28 84q-16 43 -48 82t-62 55q-29 14 -49.5 35.5t-43.5 38.5q-23 -10 -56.5 -6t-45.5 22q-16 -12 -34.5 -14t-38 0t-38 5t-36.5 1q-37 -6 -74 -31.5t-55 -42.5q-10 -10 -22.5 -13t-14.5 -3q-29 -31 -50.5 -74t-34 -88t-15.5 -86z M186 1030q2 61 21.5 122.5t73.5 88.5q53 -4 97 2t87 -2q37 -6 83 -30.5t83 -64.5t57.5 -91t7.5 -109q-6 -23 -22.5 -46t-41 -43.5t-54 -36t-58.5 -21.5q-31 -4 -67.5 3t-73.5 21.5t-68.5 32.5t-50.5 35q-8 8 -7 12t2 7t-2.5 6.5t-19.5 11.5q4 16 -10 44.5t-37 57.5zM233 475 q0 72 46 126t112 79q63 12 114.5 9t96.5 -38q6 -4 14.5 -22.5t24.5 -32.5q14 -14 36.5 -39t42 -56.5t32 -68.5t8.5 -78q0 -12 -6 -28.5t-14.5 -34t-17.5 -32.5t-17 -23q-23 -20 -75 -34t-100 -12q-37 2 -89 11.5t-79 23.5q-4 4 -4 15.5t-4 15.5q-10 6 -15 7t-8 4t-8.5 10.5 t-15.5 21.5q-18 31 -44.5 76t-29.5 100zM244 1104q-6 -35 7 -84t30 -74q14 -20 39.5 -37.5t57.5 -29t64.5 -15.5t59.5 0t53.5 20.5t47 38t33.5 45t13 44.5q0 43 -39 83t-93 63.5t-112.5 26.5t-97.5 -26q10 12 5 15.5t-14 3.5t-18.5 -3.5t-7.5 -5.5q2 -18 -2 -25t-9 -12.5 t-10 -10.5t-7 -17zM299 472q-4 -44 16 -89q20 -41 55.5 -72.5t81.5 -46t101 -9.5t115 36q31 45 28.5 90t-22 86t-50 75.5t-59.5 63.5q-29 -10 -48 3.5t-44 15.5q-47 2 -85 -18.5t-61.5 -55.5t-27.5 -79z" />
<glyph unicode="9" horiz-adv-x="829" d="M10 1030q2 27 14.5 74t26.5 90q0 4 8.5 2t6.5 4q-2 12 6 31.5t20 40t26.5 38t24.5 27.5q45 39 107.5 67t116.5 26q27 0 56.5 -10.5t60 -25t59 -31.5t53.5 -32q41 -27 63.5 -48t51.5 -60q14 -61 11 -130t-16.5 -136.5t-34 -133t-38.5 -123.5q-35 -100 -69 -191t-75 -167 q2 -18 -4 -39.5t-15 -43t-20.5 -41t-19.5 -34.5q-20 -37 -46 -77.5t-60.5 -68.5t-80 -35t-106.5 26q37 72 73 149.5t71 163.5q29 68 54 154t54 161q-66 -14 -121 10.5t-102 53.5q-39 25 -69.5 54.5t-52 66.5t-31 83t-3.5 105zM59 971q4 -78 36 -128t71 -87q16 -2 34.5 -13.5 t40 -23.5t45 -22.5t52.5 -12.5q29 12 51.5 24.5t54.5 6.5q-10 -41 -20 -78t-23 -74q-8 -33 -22 -64.5t-21 -49.5q-4 -10 0 -20.5t0 -20.5q-6 -23 -16 -44.5t-18 -44.5q-10 -23 -14.5 -47t-14.5 -45q-4 -4 -11.5 -7t-9.5 -7q-16 -27 -24 -58.5t-19 -48.5q-12 -18 -25 -33.5 t-11 -37.5q29 -4 46 1t40 5q35 37 65.5 87t57 109.5t50 126t48.5 134.5q47 135 94 268t70 256q6 25 10 74t0 84q-6 45 -42 80.5t-84 63.5t-100.5 47.5t-91.5 31.5q-6 2 -25.5 -6t-43 -19.5t-45 -23t-29.5 -17.5q-31 -23 -60.5 -61.5t-52 -86.5t-35 -104.5t-8.5 -113.5z M167 917q-3 44 4 89t22.5 83.5t29.5 61.5q23 35 60 62.5t92 37.5q31 6 63.5 3t62 -10t52 -20.5t35.5 -29.5q14 -20 24.5 -58t13.5 -81t1 -81t-11 -59q-4 -12 -16 -29.5t-27.5 -36t-34 -33.5t-36.5 -23q-33 -14 -77 -18.5t-88 2.5t-83 23.5t-59 43.5q-25 29 -28 73zM203 958 q-6 -51 15.5 -82.5t57 -47t79.5 -19.5t83 0l10 3q9 3 21 8t23.5 11.5t17.5 12.5q35 29 55.5 76t22.5 81q8 111 -35 174.5t-141 47.5q2 -20 4.5 -34t-15.5 -24q-6 6 -6 20.5t-20 8.5q-20 -4 -45 -12t-43 -25q-4 -4 -4 -14t-9 -21q-6 -8 -15 -11t-13 -9q-16 -31 -27.5 -75 t-15.5 -69z" />
<glyph unicode=":" horiz-adv-x="1009" d="M360 431q0 42 16.5 78t46.5 59.5t71 19.5q37 -4 59 -37t29.5 -78t-1.5 -91t-36 -79q-66 -14 -107 3.5t-59.5 50t-18.5 74.5zM373 926q18 16 33.5 35.5t32 36t36 25.5t43.5 5q41 -6 64.5 -36.5t27.5 -72.5t-10 -88.5t-49 -78.5q-41 -16 -63.5 -20.5t-57.5 16.5 q-43 41 -47 84t-10 94zM403.5 416q8.5 -37 38 -62.5t80.5 -21.5q14 27 26.5 62.5t9.5 68.5t-24.5 56.5t-72.5 25.5q-37 -18 -51.5 -55t-6 -74zM416 859q4 -36 26 -71q12 -23 28.5 -26.5t33 2.5t31 18.5t24.5 24.5q8 18 13.5 51t0 63.5t-23 51t-51.5 18.5q-29 0 -48.5 -18.5 t-28.5 -48t-5 -65.5z" />
<glyph unicode=";" horiz-adv-x="538" d="M82 956q2 31 18.5 47.5t35 28.5t32.5 28.5t12 47.5q51 2 78 -28.5t33 -71.5t-6.5 -85t-40.5 -69q-43 -16 -75 -13t-52.5 18t-29.5 41t-5 56zM125 960.5q-6 -18.5 4 -55.5q29 -23 55.5 -19.5t42 26t16.5 58.5t-24 79q-16 -23 -36.5 -34t-36 -23.5t-21.5 -31zM172 203 q4 31 21.5 50t34 39.5t24.5 48.5t-4 75q-2 18 -12.5 27.5t-22.5 16.5t-21.5 17t-7.5 31q12 61 37 90t54.5 32t60.5 -15.5t56.5 -51.5t42 -73.5t16.5 -83.5q0 -53 -24 -102.5t-62.5 -80t-89 -39t-103.5 18.5zM231 229q66 -6 108 25t57.5 80t4 106.5t-48.5 104.5 q-39 23 -60.5 28t-32.5 -4.5t-16 -28.5t-7 -44q41 -18 51 -58.5t3 -82.5t-25.5 -77.5t-33.5 -48.5z" />
<glyph unicode="&#x3c;" horiz-adv-x="851" d="M6 719q102 78 199.5 168t202.5 172q41 33 85 59.5t85 55.5q20 14 33.5 26t26.5 24.5t28.5 21.5t40.5 18q2 -8 10 -8.5t14 -0.5q2 -47 13.5 -90t-5.5 -78q-10 -23 -37.5 -49t-61.5 -53t-68.5 -49.5t-57.5 -36.5q-47 -33 -106.5 -76t-110.5 -69q43 -80 95 -133.5 t108.5 -97.5t118 -88t126.5 -105q4 -29 17.5 -64t-0.5 -65q-113 51 -193 113.5t-153.5 127t-152.5 128t-187 116.5q-18 -6 -29.5 5.5t-40.5 27.5zM70 719q100 -37 177 -94.5t146.5 -121t140 -125t156.5 -110.5q37 -20 38 -8t-15.5 38t-43 54.5t-46.5 44.5q-55 43 -111.5 87 t-108 89t-96.5 92.5t-78 96.5q156 78 265.5 163t212.5 173q2 12 1 39.5t-5.5 51t-9.5 34t-13 -12.5q-82 -55 -155.5 -117.5t-145.5 -126t-147.5 -127t-161.5 -120.5z" />
<glyph unicode="=" horiz-adv-x="1562" d="M199 950q135 4 265 11.5t253 11.5q80 2 159.5 -5t159.5 -3q45 2 106 13t122 3q6 -29 4 -46t-6.5 -31.5t-10.5 -27t-12 -28.5q-55 4 -110.5 1t-111.5 -9t-112.5 -11.5t-116.5 -5.5q-74 2 -145.5 9.5t-142 10.5t-138 -3t-131.5 -31q-10 33 -16 71t-16 70zM244 903 q-4 -10 2 -33q31 -6 60.5 -6t58.5 4q63 8 128.5 6t132 -7t134 -10t139.5 -1q80 2 160 14.5t164 3.5q18 16 15 22.5t-11 10.5t-13 10.5t9 22.5q-39 -2 -111 -4t-160 -3t-183 -3t-179 -4q-61 -2 -135 1t-146 -7q-12 -2 -26.5 -1t-24.5 -2.5t-14 -13.5zM246 536.5 q-2 14.5 10 61.5q141 10 258 15t228.5 10.5t227 11.5t255.5 18q-4 -10 2 -12t12 -2q-12 -53 -10 -100t-15 -88q-80 4 -150.5 2t-140 -6.5t-139 -6.5t-147.5 2q-92 4 -179 9.5t-182 -9.5q0 41 -7 53.5t-14 19.5t-9 21.5zM295 495.5q-2 -12.5 2 -18.5q113 8 220.5 8t215 -1 t221 2t240.5 18q8 18 7 42.5t-1 51.5q-104 -4 -218 -6t-229.5 -4t-230.5 -5.5t-219 -9.5q6 -8 4 -21t-6 -28.5t-6 -28z" />
<glyph unicode="&#x3e;" horiz-adv-x="851" d="M30 266.5q13 34.5 17 63.5q63 61 126 105t119 88t108.5 97.5t95.5 133.5q-51 27 -110.5 69.5t-106.5 75.5q-23 14 -58 36.5t-68.5 49.5t-62.5 53.5t-37 48.5q-16 35 -5 78t13 90h14.5t10.5 9q25 -8 40 -17.5t28.5 -22t27 -24.5t33.5 -26q41 -29 85 -55.5t85 -59.5 q104 -82 201.5 -172t199.5 -168q-29 -16 -40 -27.5t-29 -5.5q-109 -53 -187.5 -116.5t-152.5 -128t-154 -127t-192 -113.5q-14 31 -1 65.5zM64.5 260q1.5 -12 37.5 8q86 49 157 110.5t140.5 125t146.5 121t177 94.5q-86 57 -162 120.5t-147.5 127t-145 126t-155.5 117.5 q-8 23 -13.5 12.5t-9.5 -34t-5 -51t1 -39.5q51 -43 103.5 -87t108.5 -86t121.5 -83t143.5 -80q-33 -49 -78 -96.5t-96 -92.5t-107.5 -89t-111.5 -87q-20 -16 -47 -44.5t-43.5 -54.5t-15 -38z" />
<glyph unicode="?" horiz-adv-x="700" d="M4 1278q25 53 57.5 100t73.5 82t91 53.5t110 14.5q70 -4 130 -36t104 -81t68 -111.5t19 -132.5q-2 -41 -17 -103.5t-40 -102.5q-4 -4 -18.5 -15.5t-22.5 -19.5q-41 -47 -102.5 -77t-137.5 -48q-10 -49 -10 -109.5t4 -124t8.5 -125t2.5 -110.5q-8 -6 -5 -12.5t9 -12.5 t8 -13t-6 -15q-41 2 -71 -5.5t-66 7.5q8 82 0.5 163.5t-13.5 162.5t-3 162t30 159q61 -4 115.5 18.5t93.5 62.5t59.5 95t13.5 121q-4 41 -25.5 75.5t-53 56t-72.5 22.5t-82 -25q-98 -66 -156 -187q-20 8 -32.5 20.5t-21.5 27t-18.5 31t-23.5 32.5zM35 1276 q20 -10 30.5 -24.5t22.5 -30.5q20 35 51 76.5t69 73.5t84 48.5t95 -0.5q63 -20 96 -84.5t33 -142.5t-30.5 -151.5t-92.5 -112.5q-39 -23 -80 -28t-88 -19q-16 -90 -17 -156t5 -127t11 -128t1 -155q25 -2 46.5 -2t35.5 11q-23 117 -29 241.5t5 265.5q72 8 135 36t110 74 t75 109.5t28 141.5q0 76 -42 144.5t-107.5 111.5t-145.5 50t-156 -42q-25 -16 -44 -38.5t-34.5 -47t-32 -49.5t-34.5 -45zM178 90q-2 59 44 83.5t120 10.5q20 -29 35.5 -46t11.5 -46q-4 -41 -37 -62.5t-70.5 -21.5t-69.5 19.5t-34 62.5zM215 74q16 -25 40 -30t46.5 2 t37.5 23.5t15 39.5q-2 27 -25.5 39t-49 9t-46 -23.5t-18.5 -59.5z" />
<glyph unicode="@" horiz-adv-x="1513" d="M35 694q6 53 33.5 122t67.5 143.5t91.5 148.5t107.5 134.5t113.5 103.5t112.5 55q113 29 227.5 22.5t219 -43.5t193.5 -102.5t151 -155.5q63 -76 74.5 -173t-7 -189t-55.5 -165.5t-72 -102.5q-111 -82 -218 -102.5t-201.5 5t-170 92t-122.5 158.5q18 10 31.5 26.5 t24.5 35t23.5 36t28.5 29.5q23 0 32 -3t14 -9t8 -15.5t16 -21.5q14 -16 40.5 -35.5t58.5 -36t64.5 -26t61.5 -2.5q29 4 62.5 27.5t61.5 58t45 77.5t11 86q-8 61 -53 129t-108.5 119t-138.5 76t-144 0q-109 -37 -199 -127t-142 -203.5t-56.5 -237.5t63.5 -231 q49 -80 129 -122t175 -56t199.5 -3t204 38t186.5 65.5t148 79.5q27 -12 42.5 -38.5t21.5 -58.5t4 -60.5t-14 -42.5q-160 -74 -337 -120t-347 -54.5t-321.5 22.5t-259 111t-159 212t-22.5 324zM60.5 636q-11.5 -81 7.5 -153q35 -145 123 -234t206.5 -134t260 -50.5t284.5 16 t278.5 64.5t241.5 95q-8 43 -9 71.5t-26 32.5q-86 -45 -194.5 -82t-223 -58.5t-227 -22.5t-209 27t-166 88.5t-100.5 162.5q-27 82 -22.5 171t32 177t76.5 167t113.5 140.5t142.5 98t162 38.5q63 2 130 -25.5t122 -77.5t94 -117.5t45 -143.5q2 -35 -11 -78t-38 -85 t-54.5 -75t-58.5 -47q-61 -8 -108 1t-86 30.5t-73 50.5t-64 59q-20 -29 -46 -55t-24 -55q29 -43 69 -86t92 -74t118.5 -44t148.5 3q51 8 105.5 47t100.5 92.5t75.5 113.5t33.5 112q8 86 -10 156.5t-52 128t-77 101.5t-82 79q-53 37 -116.5 70.5t-141.5 49.5q-37 6 -90 9.5 t-107.5 0.5t-102.5 -13.5t-75 -26.5q-59 -39 -121.5 -98.5t-120 -132t-105.5 -154.5t-78.5 -166t-42 -165z" />
<glyph unicode="A" horiz-adv-x="1353" d="M-74 72q-2 6 8.5 27.5t25.5 48t31.5 53t26.5 43.5q27 49 49.5 92t44 84t43 83t46.5 89q57 109 115.5 232.5t111.5 248.5t99 243t81 214h33q-12 -14 -3 -41t11 -51q47 -92 85 -186.5t79 -198.5q18 -51 32.5 -93t37.5 -102q35 -86 82 -164t82 -162q18 -45 39.5 -99 t44 -110.5t45 -109.5t43.5 -94q14 -18 23 -28.5t14.5 -20t5.5 -23.5t-2 -41q-20 2 -46 1t-48.5 -2t-42 -2t-27.5 3q-23 10 -40.5 39t-33.5 62.5t-31.5 64.5t-34.5 43q-94 -4 -196 -12q-103 -9 -204 -15q-69 -4 -136 -4q-32 0 -62 1q-96 3 -178 22q8 -25 0 -52.5t-26.5 -56 t-41 -53.5t-42.5 -43q-6 8 -28 15.5t-46.5 14.5t-45 16t-24.5 24zM-25 72q26 -13 48 -13q16 1 29 7q32 16 56.5 50t41 77t30.5 73q63 -18 115.5 -24t97.5 -6t87 4t87 4q84 4 183.5 13t205.5 22q16 -12 35 -42t35 -64t29.5 -67.5t19.5 -56.5q18 -4 35.5 0t35 7t33 3t29.5 -10 q-70 160 -145.5 328t-151 339t-147.5 342t-133 339q-12 4 -16.5 8t-16.5 4q-4 -57 -23.5 -90t-35.5 -76q-82 -205 -169 -395.5t-180 -376.5q-27 -53 -56.5 -101t-59 -95.5t-55 -96.5t-44.5 -106zM250 397q45 86 92 171t92 172t85 179.5t71 192.5q-4 10 8 10q16 16 21.5 5 t21.5 -15q14 -117 51 -206t78 -169t77 -162t48 -186q-85 -8 -175 -8q-26 0 -54 1q-118 3 -230 7q-25 0 -50.5 -2t-49 -4t-46 1t-40.5 13zM315 430q64 -6 122 -6h28q70 2 134.5 5t126.5 5h31q47 0 97 -4q-20 80 -50 148.5t-63.5 134t-65.5 133t-57 145.5q0 10 -10 10 q-37 -80 -68.5 -156.5t-65.5 -148t-72 -138.5t-87 -128z" />
<glyph unicode="B" horiz-adv-x="1161" d="M6 1235q-1 38 -1 76q0 86 7 180q47 14 98.5 20.5t105.5 6.5t110 -1h22q44 0 88 3q72 4 144 10q54 4 104 4h34q68 -2 130.5 -15.5t118.5 -45.5q37 -66 75.5 -129.5t49.5 -147.5q2 -16 2 -33q0 -41 -12 -81q-16 -56 -44 -104t-67 -89t-78 -72q12 -18 28.5 -27.5t34 -17.5 t35 -15t33.5 -22q61 -57 88 -153q23 -82 24 -166q0 -14 -2 -28q-4 -99 -38.5 -185t-98.5 -123q-14 -8 -37.5 -13.5t-48.5 -13.5q-53 -18 -123.5 -28.5t-153.5 -13.5q-42 -2 -85 -1.5t-87 1.5q-89 3 -177 12q-66 6 -121 20q-43 11 -83 11q-11 0 -22 -1q-16 207 -18 446.5 t-18 489.5q-13 125 -17 246zM31 1452q15 -36 15 -72q0 -11 -1 -21q-6 -46 -6 -106q4 -84 15.5 -170t15.5 -180q8 -240 13 -433.5t13 -379.5q130 -6 268 -24q112 -14 229 -14q27 0 54 1q47 0 101.5 5t105.5 16.5t94 30t68 42.5q16 14 30.5 41t25.5 57.5t19.5 62.5t10.5 57 q1 8 1 17q0 22 -4 52q-5 42 -14.5 86.5t-22.5 82.5t-30 54q-76 86 -160 112q-56 17 -116 17q-30 0 -62 -4q6 18 23.5 30.5t38 20t41.5 10.5t37 5q37 23 73.5 51.5t67.5 63t52.5 76.5t25.5 94q2 22 2 42q-1 57 -17 102q-22 62 -64 106t-98.5 71t-115.5 37q-38 6 -74 6h-18 q-45 -2 -80 -6q-127 -12 -271.5 -18.5t-285.5 -20.5zM129 1310.5q-2 14.5 0 31t14 36.5q50 -7 110 -7q39 0 83 3q110 8 218 9h10q102 1 189 -19q91 -20 140 -90q10 -16 21.5 -49t15.5 -56q1 -13 1 -26q-1 -51 -21 -83q-26 -40 -68.5 -65.5t-95 -46t-99.5 -53.5q4 -16 7 -43 t3 -53.5v-50t-2 -35.5q55 -6 113.5 -22.5t107 -46.5t81 -71t40.5 -96q2 -19 2 -37q0 -40 -12 -72q-18 -46 -54 -80t-86 -56.5t-108 -36.5q-10 -4 -19 -6.5t-15 -6.5q-36 -4 -72 -4q-49 0 -101 8q-68 10 -127 10q-17 0 -34 -1q-53 -4 -95.5 -24.5t-76.5 -23.5 q-12 10 -16.5 23.5t-3.5 29t3 32t0 28.5q-4 23 -11 39t-7 39q-8 86 -9 186.5t-1 205t-2 205.5t-9 187q-2 18 -2 35t2 35q4 35 0 61q-2 14 -7 28.5t-7 29zM182 1348q18 -139 22.5 -282.5t5.5 -287t4 -285t15 -272.5q37 4 79 5q14 0 28 -1q58 -2 119 -6t123 -5h13q54 0 103 7 q31 6 66 17.5t66.5 28t57 34.5t36.5 37q16 23 30 68q10 33 9 61q0 10 -1 20q-2 16 -20 45t-43 55.5t-49.5 47t-38.5 22.5q-51 6 -100.5 16.5t-79.5 12.5q-10 33 -12.5 63.5t-2.5 60.5t-2 62.5t-10 69.5q70 2 130 38t95 75q-4 -4 5.5 -4t15.5 4q18 20 16 39.5t2 38.5 q2 6 10.5 6t6.5 20q-2 78 -39 119q-38 42 -96 58q-55 16 -124 15h-8q-74 -1 -152 -7q-76 -5 -150 -8h-25q-58 0 -105 12z" />
<glyph unicode="C" horiz-adv-x="1077" d="M20 866q10 86 37 156t68 135q27 12 47.5 31.5t38.5 42t37.5 44t44.5 40.5q27 18 66.5 38.5t82.5 40t86 37t78 31.5q90 32 182 56q69 18 139 18q24 0 48 -2q5 -16 5 -34q0 -47 -34 -109q-29 -2 -47 4t-39 10q-10 -4 -21.5 -12.5t-22.5 -14.5t-23.5 -7t-26.5 11 q-16 -18 -36.5 -25t-45.5 -18q-2 0 -11 -5t-18.5 -8t-16.5 -2t-7 15q-10 -10 -19.5 -21t-21.5 -18q-51 -12 -93 -32.5t-77 -34.5q-20 -10 -48 -34.5t-55.5 -58.5t-53 -75t-44.5 -84q-4 -16 -4 -31.5t-4 -31.5q-10 -29 -16.5 -51.5t-9.5 -47t-2 -53.5t7 -68q4 -25 5 -57.5 t6 -36.5q10 -31 29.5 -65.5t42 -66.5t47 -60.5t47.5 -46.5q59 -53 132.5 -79t158.5 -34q57 -5 118 -5q30 0 62 1q96 4 198 10q10 -16 14.5 -39.5t5.5 -49.5t3 -52.5t10 -46.5q-66 -32 -153 -44q-59 -8 -121 -8q-30 0 -60 2q-94 6 -185 24.5t-163 47.5q-59 23 -98 60.5 t-78 54.5q-47 61 -86 133t-65 155t-38 175q-6 49 -7 102q0 46 5 94zM63 678q2 -47 16.5 -104.5t36 -115t48 -109.5t55.5 -91q51 -68 143 -111t204 -62q101 -17 209 -17h23q120 2 228 24q-2 29 -3 55.5t-7 69.5q-17 1 -34 1q-32 0 -64 -3q-48 -4 -91 -10t-85 -9 q-18 -1 -36 -1q-24 0 -47 2q-51 4 -95 17t-85 32.5t-81 44t-83 49.5q-8 27 -22 46.5t-30.5 35.5t-33 34.5t-28.5 41.5q-18 33 -32.5 81t-23 100t-8.5 101t10 86q20 76 44 139.5t56 113.5t73.5 89t99.5 68q35 16 79 37.5t91 38.5q43 12 89 31.5t87 31.5q23 4 49.5 2t53 -2 t49 7.5t36.5 29.5q-8 41 -27 49t-48 4q-43 -10 -96.5 -27.5t-107.5 -39t-105.5 -43t-88.5 -37.5q-35 -16 -71.5 -26.5t-65.5 -26.5q-78 -49 -133 -118t-90 -150t-49 -173q-10 -65 -11 -131q0 -27 2 -55z" />
<glyph unicode="D" horiz-adv-x="1189" d="M2 1501q19 -2 37 -2q13 0 27 1q32 3 65 8q33 6 65 10q22 3 47 3q11 0 21 -1q16 -4 21.5 -10.5t19.5 -8.5q14 -4 28.5 0t31.5 0l13 -13t5 -9q10 0 8 9t2 13q31 0 67 -18.5t66 -22.5q23 -4 42.5 -1t39.5 1q2 -2 10.5 -5t15.5 -5t9 -3t-8 3q16 -4 33.5 -12t27.5 -19 q10 2 7 5t-7 3q24 0 52 -17q21 -13 50 -13q10 0 21 2v-31q23 4 43.5 -7t40 -29.5t35.5 -41t33 -41.5q41 -53 69.5 -102t50 -104.5t35 -120t23.5 -146.5q4 -16 6 -19t14 -3q-16 -35 -17 -61.5t-3 -80.5q-12 -12 -16.5 -27.5t-5.5 -30.5t-2 -31.5t-7 -30.5q-18 -49 -48 -85 t-64.5 -68t-70.5 -62.5t-67 -65.5q-80 -35 -148.5 -67.5t-150.5 -51.5q-66 -14 -116 -29.5t-99 -27.5q-49 -11 -104 -19q-43 -6 -99 -6h-30q-6 188 -16.5 384t-23.5 387.5t-32.5 373.5t-46.5 346zM45 1456q49 -338 81 -698.5t40 -712.5q217 12 388 80t294 156q41 31 89 66.5 t71 66.5q74 86 95 204q11 63 11 127q0 56 -8 114q-18 122 -71.5 233.5t-127.5 183.5q-63 61 -162.5 98t-217 55.5t-243.5 23.5q-90 4 -173 4q-34 0 -66 -1zM182 1368q10 12 24.5 10t31 -9t36 -16.5t39.5 -15.5q16 -4 36 0t34 0q61 -14 130 -40.5t132.5 -57.5t114.5 -63.5 t78 -59.5q12 -12 34.5 -46t45 -74t40 -78.5t21.5 -63.5q4 -31 4 -62q-1 -66 -21 -125q-30 -87 -88.5 -159t-137.5 -127t-161 -90q-49 0 -85.5 -10.5t-69.5 -22.5q-34 -12 -66 -22q-27 -8 -58 -7h-13q-12 27 -15.5 55.5t-1.5 59.5q2 32 5 64q2 20 2 39q0 13 -1 26 q-2 92 -12 191.5t-14 199.5q-6 68 -7 135.5t-5.5 132t-15.5 124t-36 112.5zM248 1321q25 -125 34 -254t13 -262t6 -268.5t12 -272.5q61 10 129 34t121 46q23 10 50.5 23.5t43.5 23.5q31 18 57.5 42t52.5 49.5t50.5 49t50.5 41.5q46 88 60 169q6 34 6 67q0 45 -10 86 q-18 72 -63.5 133.5t-115.5 110.5q-51 35 -112.5 60.5t-126 46t-131 37.5t-127.5 38z" />
<glyph unicode="E" horiz-adv-x="991" d="M52 1124q1 194 3 402q6 8 9.5 6t6.5 -8t7 -11.5t12 -5.5q12 0 6 10.5t6 8.5q18 -2 30.5 -14.5t43.5 -12.5q14 -2 19.5 3t19.5 5q66 0 138.5 -5t154.5 -15q20 -2 46 -5t40 -22q57 4 99 9.5t79 7.5q15 1 29 1q22 0 43 -2q35 -3 78 -16q16 -47 16 -99t-25 -89 q-68 4 -147.5 7t-162.5 5t-164 3t-150 1q20 -75 20 -172q-1 -16 -1 -30q-4 -116 -36 -250q33 -8 71 -9q23 -1 46 -1h30q38 1 72.5 1t63.5 -8q0 4 -2 6q-4 4 -6 2q45 -6 84 -8t78 -3t84 -2t102 -5q4 -45 7 -101q1 -13 1 -26q0 -41 -8 -74q-41 -10 -83 -21.5t-87 -13.5 q-18 -4 -20.5 6.5t-6.5 10.5q-12 4 -20 -8.5t-19 -8.5q-41 4 -84 13.5t-89 16.5t-96 10q-14 1 -27 1q-37 0 -74 -6q1 -23 1 -56v-34q-1 -55 -4 -114.5t-4 -113.5q-1 -27 -1.5 -48.5t1.5 -38.5q-4 10 2.5 13t17.5 5t24.5 4t21.5 8q26 -2 52 -2q42 1 88 5q72 6 144 10 q31 2 62 2q39 0 76 -3q68 -5 125 -34q4 -16 7 -40t4 -48.5t-2 -48t-9 -39.5q-82 -14 -191.5 -20.5t-222 -6.5t-217 2t-174.5 4q-18 180 -26 362q-9 182 -11 368q-1 124 -1 252v128zM79 726v-16q0 -95 11 -184q16 -130 30 -242q7 -57 8 -108q0 -50 -7 -94q88 -16 174 -20 q55 -2 111 -2q32 0 65 1q89 3 187 7q68 3 141 3q33 0 67 -1v114q-86 8 -162 8q-6 0 -12 1q-69 1 -136 -5q-73 -6 -146.5 -13t-155.5 -11q-16 20 -18.5 44.5t1 53.5t9.5 59.5t8 61.5q1 28 1 57q0 50 -4 98q-3 32 -3 60q0 39 6 70q76 0 153.5 -7.5t153.5 -16.5q77 -9 151 -15 q37 -3 73.5 -3t72.5 3q9 26 9 60v7v8q0 32 7 58q-78 6 -165.5 7t-173.5 2t-165 4t-137 13q23 129 25 264.5t4 282.5q8 -6 40 -7h33h36t36 0.5t33 -0.5q32 -1 39 -9q25 10 45 10q12 0 22 -4q26 -10 56 -25q-6 18 -3 19.5t11 -2.5t16.5 -10.5t14.5 -6.5q4 0 5 10.5t22 8.5 q6 -2 14 -7t15.5 -10.5t14.5 -4.5t13 12q10 12 32.5 12t47 -4t49.5 -8t41 0q-12 0 -8 8t10 23.5t11 34t-3 38.5q-29 19 -61 21q-18 1 -35 1q-15 0 -29 -1q-32 -2 -65 -3h-5q-30 0 -59 11q0 -16 -7 -18.5t-23 -2.5q-41 0 -94.5 13.5t-112.5 17.5q-104 4 -182 9t-142 14 q2 -18 2 -36.5t-2 -37.5t-2 -37t2 -37q4 -60 4 -125q0 -32 -1 -66q-3 -100 -8 -203.5t-6 -206.5z" />
<glyph unicode="F" horiz-adv-x="909" d="M22 818q2 194 5 377q3 122 3 228q0 53 -1 103q103 -25 207 -31q62 -4 125 -3q41 0 83 1q104 4 209 15.5t209 17.5q2 -20 31 -21q2 -37 4 -59.5t2 -43t-2 -43t-4 -56.5q-74 -18 -157 -27.5t-168 -15t-169 -6.5t-159 -3q-6 -25 -4 -37t6 -21t7 -20.5t1 -37.5 q4 -16 -8.5 -17.5t-21.5 -3.5q0 -6 4.5 -9t11 -4t10.5 -5t4 -13q-8 -25 -5 -57q3 -34 7 -68q3 -28 3 -54v-14q-1 -34 -15 -61q66 -15 123 -15q17 0 33 1q70 6 139 22.5t145 34t170 21.5q23 -20 27 -48t3 -57.5t-1 -57.5t14 -48q-25 -18 -65 -32.5t-86 -23t-93 -10.5 q-16 -1 -30 -1q-29 0 -54 3q-16 2 -18 9.5t-12 11.5q4 -6 -3.5 -12t-20.5 -9.5t-29.5 -3.5t-30.5 4q-12 2 -14.5 7.5t-2.5 6.5t-2 -1t-14 -13q-4 -4 -6 -3t-3 2t-3.5 2.5t-8.5 -1.5q-8 -4 -16 -9t-20.5 -8t-31 -4t-48.5 3q-6 -18 -10.5 -49t-8.5 -63.5t-9 -58.5t-13 -32 q2 -45 8 -85t11 -83t7 -91q0 -12 1 -25q0 -38 -5 -82q-35 -16 -62.5 -19.5t-52 2.5t-48 18.5t-48.5 28.5q-19 172 -25 367q-4 153 -5 306q1 42 1 84zM59 471h20.5t10.5 -10q0 -35 -1 -85q0 -25 -0.5 -51.5t0.5 -54.5q1 -56 4 -111t9 -98q31 2 52.5 4.5t65.5 4.5 q-8 76 -15.5 152.5t-7.5 152.5t9 150.5t34 146.5q16 -8 36.5 -14.5t36.5 -18.5q68 27 139.5 30t142.5 3t135.5 8t119.5 45q-12 20 -13 53t-6 64q-70 -6 -153 -26q-82 -22 -167 -36q-75 -13 -146 -12h-20q-81 2 -146 39q-2 53 -4 117.5t-5.5 132t-4.5 137.5v46q0 45 1 85 q74 -16 160 -18q22 0 43 -1q65 0 132 5q89 6 174 20.5t155 34.5q-10 23 -5 54.5t-5 49.5q-90 -14 -188 -21t-196 -9h-49q-73 0 -145 4q-96 6 -180 18q-1 -53 -1 -105v-51q1 -76 2 -155v-54q0 -55 -1 -115q-2 -88 -10 -194q-4 12 -7 5t7 -17q-12 -4 -11.5 -7t7 -3t14.5 3t8 7 q-10 -27 -10 -67.5t1 -84.5v-22q0 -32 -2 -63q-3 -41 -20 -68z" />
<glyph unicode="G" horiz-adv-x="1114" d="M29 763q6 81 27.5 164t56.5 163q33 74 72.5 141t95 121.5t126 93.5t164.5 55q39 6 77 6t77 2t78 6.5t82 20.5q14 -6 29.5 -5l31 2t31 1t29.5 -10q0 -33 -2.5 -53.5t-3.5 -39t-2 -41t-1 -57.5q-78 5 -156 5q-39 0 -77 -1q-117 -4 -216 -29.5t-176 -78.5t-114 -139 q-14 -35 -22.5 -84.5t-20.5 -96.5q-25 -102 -25 -191q0 -55 10 -105q25 -130 136 -242q94 -92 200.5 -140.5t245.5 -58.5q68 25 115 66q6 63 11 118.5t5 107.5t-8 106.5t-33 115.5q14 8 37 10t46.5 -1t44 -9t30.5 -12q2 -52 2 -103q0 -94 -7 -185q-11 -140 -19 -294 q-20 14 -28.5 40t-9.5 56v16q0 24 2 49q3 34 5 64q2 33 11 68t11 66q2 33 5 71v22q0 25 -4 46q-5 31 -20 51.5t-46 20.5q10 -115 10 -232t-22 -227q-27 -16 -53.5 -31.5t-49.5 -34.5q-86 12 -158.5 18.5t-142.5 37.5q-61 29 -131 85t-126 128.5t-92 157.5q-32 76 -32 157v18 q4 45 18.5 93.5t28.5 99.5q10 47 14.5 92t18.5 74q25 55 79 105t127 90t159 64.5t172 28.5q29 2 53 -1t49 -5t51.5 -2t57.5 8v115q-68 -10 -137.5 -14t-137 -10.5t-131 -18.5t-119.5 -37q-84 -37 -146.5 -111.5t-109.5 -166.5q-29 -53 -57.5 -119t-48 -139.5t-23.5 -154.5 q-1 -13 -1 -26q0 -69 18 -141q6 -29 20 -66.5t32.5 -77.5t39 -76t41.5 -60q59 -72 142 -110t206 -69q55 -14 104.5 -23t99.5 -14.5t104 -7.5t116 -2q-43 -27 -92 -36q-44 -8 -89 -8h-10q-49 1 -98 11.5t-92 22.5q-84 25 -159 50.5t-136 61.5t-110.5 87t-84.5 125 q-10 16 -13 39.5t-11 40.5q-35 74 -46 153q-7 50 -7 102q0 28 2 57z" />
<glyph unicode="H" horiz-adv-x="1042" d="M27 49q4 209 10 386t11 347t6 348v72q0 147 -3 316q31 -2 56.5 1t50 7t51.5 6t61 -4q13 -76 13 -153q-1 -8 -1 -17q-2 -86 -7 -172t-5 -167t19 -155q51 0 113 -1t122 -3q30 -1 58.5 -1t55.5 1q54 2 95 8q4 59 4 113q0 27 -1 54q-3 79 -7 158t-9 161t-5 176q19 6 37 6 q26 0 49 -12q39 -20 76 -39q-2 -12 3 -26.5t11 -30t11 -34t1 -38.5q0 -4 -12 -17q-6 -6 -10 -12q0 -8 9 -10t5 -19q0 -23 -3 -52t-3 -58q-1 -22 -1 -44q0 -50 6 -96q9 -68 9 -104q-2 -14 -5 -26.5t-17 -22.5q14 -16 18 -41t2 -52.5t-6 -55t-6 -48.5q8 -45 13 -96t7 -100 t3 -91t1 -67q0 -80 -6 -154q-2 -28 -2 -59q0 -50 6 -106q-23 -2 -50 -4.5t-55 -1.5t-51.5 7.5t-37.5 22.5q12 94 14 179q1 28 1 56q0 56 -3 109q-4 80 -14 155t-25 150q-109 2 -215 12q-33 3 -66 4q-71 0 -139 -16q-10 -80 -10 -170v-181t-4 -176t-23 -157q-57 12 -110 12 h-5q-1 0 -2 -1q-54 0 -89 24zM55 68q12 -6 33 -10.5t43.5 -6.5t44 -4t33.5 -8q12 72 14 158t2 177t1 184t12 177q76 2 140 3h62q32 1 60 0q58 -1 112 -2t113 -3q14 -10 11 -25.5t1 -35.5q6 -25 11.5 -21t7.5 -8q6 -38 6 -81v-22q-1 -18 -1 -36q0 -36 3 -68q2 -12 9 -22.5 t7 -20.5q1 -20 1 -41q0 -52 -4 -114q-5 -86 -13 -172q14 2 29.5 -1.5t29 -6.5t25.5 -3t22 11q3 49 3 101q0 25 -1 51q-2 78 -6 157.5t-9 154t-7 140.5q-1 70 -1 141q0 141 5 281q4 94 4 180q0 108 -6 203q-12 -2 -21.5 2t-18.5 9t-19.5 8t-22.5 1q-1 -29 -1 -58 q0 -57 3 -112q4 -82 8 -162t4 -159.5t-12 -165.5q-125 -12 -259 -18q-26 -1 -51 -1q-105 0 -200 19q-14 33 -18 70.5t-5 77.5t-1.5 78t-4.5 71q-2 12 -3 53t-3 93t-2 108.5t2 101.5q-29 -6 -69.5 -17.5t-61.5 -3.5q6 -107 6 -203q0 -36 -1 -70q-3 -126 -7 -255 q-2 -109 -4 -223.5t-5 -226t-10 -220t-20 -204.5z" />
<glyph unicode="I" horiz-adv-x="315" d="M20 1540q66 -6 128.5 -15t117.5 -26q14 -16 11 -21t-13 -9.5t-19 -10.5t-3 -24q-10 -392 -12 -744v-37q0 -332 26 -641q-37 4 -63.5 2t-49 -3t-45 2t-49.5 18q-7 169 -7 340v43l2 384v84q0 148 -2 294q-4 186 -22 364zM59 1485q6 -4 10.5 -8.5t2.5 -16.5q2 -127 6 -227 t8 -203q2 -125 5 -240.5t4 -232.5v-59q0 -90 -2 -180q-3 -122 -11 -259q24 -11 56 -1q15 4 32 5q20 0 43 -6q-14 160 -19 336q-6 177 -8 359q-1 91 -1 182.5t1 183.5q2 184 2 363q-18 -6 -35.5 -2t-35 9t-31.5 6t-27 -9z" />
<glyph unicode="J" horiz-adv-x="839" d="M4 348q29 7 51 7q9 0 17 -1q26 -4 42.5 -19.5t28 -38t21.5 -46t23.5 -44t33.5 -32.5q16 -10 48 -16t66 -9.5t63.5 -3.5t45.5 5q68 14 110 57t65.5 106.5t30.5 143.5q6 70 6 145v21q-1 86 -7 174t-12 168q-10 152 -29.5 290t-19.5 248q4 18 24.5 23.5t47 4.5t50 -7.5 t33.5 -10.5q18 -117 33 -272.5t19 -327.5q0 -68 2 -138t2 -139t-3 -131.5t-12 -113.5q-12 -92 -40.5 -156.5t-81.5 -117.5q-39 -39 -98.5 -72t-149.5 -37h-15q-169 0 -269 85q-103 89 -126 255zM53 326q0 -72 32 -125.5t84 -89t115 -53.5q58 -17 117 -17h13 q111 4 180.5 57.5t108 138.5t51.5 195q9 84 9 171q0 28 -1 56q-4 106 -6 217t-7.5 218.5t-15.5 208t-31 184.5q-16 -4 -41.5 1t-31.5 -9q8 -2 8 -17q4 -135 15.5 -268t21.5 -258t15 -240q2 -44 2 -85q0 -67 -5 -128q-6 -68 -14 -138.5t-43 -119.5q-29 -41 -81 -67.5 t-114 -36.5q-35 -6 -72 -6q-30 0 -61 4q-70 8 -131 39q-8 27 -25.5 41t-31.5 43q-6 10 -8.5 25.5t-6.5 29.5t-14 22.5t-31 6.5z" />
<glyph unicode="K" horiz-adv-x="1052" d="M10 1447q2 46 19 89q15 1 28 1q58 0 93 -28q8 -96 12 -182t7 -169t4.5 -166t4.5 -171q63 57 120.5 123t115 132.5t118 130t132.5 116.5q2 16 16 41t30.5 50.5t33 48t20.5 38.5q20 8 50 13.5t61.5 5.5t63.5 -2t58 -9q-12 -31 -37.5 -66.5t-55.5 -72.5t-60.5 -69.5 t-52.5 -53.5q-123 -119 -248 -247t-254 -255q61 -88 134 -178t147.5 -180t147.5 -178t138 -170q-68 -33 -132.5 -33t-143.5 4q-14 39 -38 84t-49.5 89t-52 86t-49.5 75q-41 66 -85 131.5t-101 120.5q-7 -53 -7 -109q0 -22 1 -45q4 -80 13 -156.5t19.5 -146t10.5 -121.5 q-14 -10 -31.5 -11t-36 1l-37 4t-35.5 -2q-29 172 -48 355.5t-36 361.5q-3 37 -3 74q0 19 1 37q2 56 5.5 113t6.5 112q2 33 2 66q0 22 -1 45q-2 45 -8.5 90t-9.5 91q-2 28 -2 55q0 19 1 37zM47 1481q10 -97 11 -193q0 -48 0.5 -95t-0.5 -94q-1 -93 -1 -185.5t6 -186.5 q8 -90 18.5 -176t20.5 -172q8 -84 12.5 -170t35.5 -164q2 8 8 8t13 -3t15.5 -6t18.5 1q-20 111 -41 249q-16 104 -16 205q0 34 2 68q2 31 2 64t26 49q14 4 23.5 -1t16.5 -15.5t12.5 -21.5t11.5 -19q51 -59 102 -130t100.5 -147t95.5 -152.5t85 -146.5q39 -2 77 -9 q11 -2 22 -2q26 0 50 11q-53 78 -121.5 167t-143.5 180t-151.5 179.5t-144.5 161.5q35 35 72 69t80 62q59 78 138 155t158.5 153.5t151.5 155.5t117 161h-82q-23 -8 -44.5 -32.5t-40 -54.5t-34.5 -58.5t-29 -40.5q-31 -35 -68.5 -67t-70.5 -64q-51 -51 -99 -107.5 t-97.5 -112t-101.5 -105.5t-113 -87q-10 53 -12.5 107.5t-6.5 88.5q-7 68 -7 134v17q1 75 3 145q1 24 1 47q0 47 -3 89q-4 64 -23 119q0 -6 -5 -6t-13 3t-18.5 5t-18.5 -2v-28z" />
<glyph unicode="L" horiz-adv-x="1034" d="M20 856q-2 61 -2 121q0 68 2 133q2 45 6 96q3 52 4 104v52v51q-1 51 -10 94q21 -5 40 -5q14 0 28 3q31 6 58.5 13.5t52 7.5t49.5 -19q2 -21 2 -39q0 -26 -5 -46q-9 -32 -17 -60q-10 -30 -10 -56t20 -63q-8 -18 -6.5 -52t7 -71t9.5 -71.5t0 -53.5q-4 -10 -6 -37.5 t-3 -63.5t-1 -75v-69q2 -59 8 -120q4 -37 4 -75q0 -26 -2 -53q-10 -6 -11 -31t1 -59.5t5 -71.5t3 -68q53 -8 108 -8q42 0 84 4q100 10 202 22q100 11 196 12h6q92 0 170 -32q-8 -31 -8 -52t3 -43.5t5 -52.5q1 -15 1 -34.5t-1 -44.5q-16 2 -26.5 -1t-16.5 -4t-11.5 2 t-11.5 15q-20 2 -40 2q-52 0 -108 -12q-76 -16 -155 -22q-10 0 -29.5 -2.5t-39 -2.5t-34 2.5t-14.5 12.5q-24 -16 -59 -16q-1 1 -3 1q-36 0 -76 4q-23 2 -46 2q-16 0 -31 -2q-37 -2 -63 -22q-6 0 -10.5 7t-7.5 11.5t-4 2t-1 -20.5q-59 14 -114.5 17t-90.5 26q8 135 8 273 q0 20 1 40q0 118 -3 234q-2 135 -6 266zM58 1380.5q-3 -12.5 1 -20.5q0 4 5.5 6t5.5 -6q4 -72 4 -143q0 -89 -6 -175q-9 -119 -10 -241q0 -39 1 -78q2 10 7.5 8t3.5 -18q-6 -27 -7.5 -41.5t-0.5 -24.5t3.5 -21.5t4.5 -31.5q10 -57 10 -119q0 -29 -2 -51.5t-3 -39.5t2 -26.5 t13 -9.5q-16 -34 -17 -68v-17q0 -26 2 -53q3 -36 5 -70v-13q0 -27 -6 -51q25 -16 43 -25.5t38.5 -12.5t50.5 0t79 11q78 12 161.5 18.5t169.5 9.5t172 4t168 7q-2 27 0 43t5.5 30.5t5.5 31t0 45.5q-85 26 -147 28q-11 0 -21 1q-51 0 -93 -6q-52 -7 -94 -16q-35 -7 -70 -7 h-16q-29 -19 -66 -19q-4 1 -6 1q-40 2 -83 10t-85 11h-10q-36 0 -67 -18q0 141 -1 305t-2 329t-4 321.5t-5 287.5q-16 2 -37 3t-40.5 0t-35.5 -4t-25 -9q10 -12 9.5 -25.5t-4 -25.5t-6.5 -24.5z" />
<glyph unicode="M" horiz-adv-x="1677" d="M31 872q-1 68 -1 136q0 240 11 487q70 -33 129 -80t112.5 -101t104.5 -111.5t105 -110.5q72 -72 151.5 -138.5t144.5 -146.5q51 33 95.5 73t85.5 83t81 89t85 89q55 53 113.5 108.5t115.5 120.5q23 31 54.5 73t68.5 64q20 -18 28.5 -46.5t9.5 -59.5t0 -63.5t1 -59.5 q8 -106 8 -219t-1 -225v-44q0 -88 3 -174q4 -108 20 -202q-16 -37 -20 -85q-3 -32 -3 -66q0 -17 1 -35q2 -52 5 -104t3 -97q-12 -10 -31.5 -13.5t-41 -2.5t-44 5t-41.5 9q0 127 -15 247.5t-31 240.5q-15 119 -24 239q-4 51 -4 104q0 70 7 143q-12 -10 -29.5 -24t-33 -30.5 t-24.5 -33t-5 -28.5q-35 -10 -66 -47t-47 -70q-70 -51 -131 -107.5t-123 -111.5q-63 2 -111.5 36.5t-93.5 69.5q-115 86 -231.5 172t-226.5 185q10 -131 18 -250t17.5 -234.5t17.5 -232.5t18 -242q-6 -8 -23.5 -18t-37 -15.5t-37.5 -3.5t-29 21q-2 12 3 18t16.5 9.5t27 6.5 t31.5 11q-14 54 -18 114q-3 48 -3 97v25q1 62 2 126v27q0 53 -3 111q-4 70 -12.5 134t-15.5 124q-7 62 -10 122q-1 16 -1 33q0 44 6 88q20 2 30.5 -3t16.5 -13t11 -19.5t16 -21.5q43 -41 98 -76t102 -78q80 -76 174.5 -152.5t210.5 -129.5q59 53 129 100t125 103 q33 33 60.5 74.5t57.5 82.5t63.5 73t76.5 44q20 -4 27.5 -13.5t6.5 -21.5t-5 -27.5t-4 -29.5q-2 -46 -2 -89q0 -87 8 -166q12 -118 28 -228t28 -214q9 -75 8 -152q0 -31 -1 -63q18 0 44 3.5t36 -7.5q-10 164 -10 337q0 172 2 348q1 58 1 117q0 116 -3 232q-4 173 -24 334 q-78 -88 -156 -177t-159 -174t-168 -162.5t-185 -145.5q-57 29 -101.5 76t-91.5 88q-133 123 -257 258t-267 256q-8 -182 -10 -356q-1 -70 -1 -140q0 -105 2 -210q3 -175 11 -354t21 -372q-23 29 -34 66t-16.5 78t-6.5 83t-3 78q-16 249 -20 555z" />
<glyph unicode="N" horiz-adv-x="1150" d="M12 727q2 86 10 180q7 95 10 189q2 47 2 93.5t-2 91.5q-3 91 -20 171q18 12 29.5 2t26.5 -18q25 -18 47 -52t43.5 -73t40 -80t37.5 -74q45 -90 98 -170q2 -4 0 -14t0 -15q23 -18 37 -48.5t37 -65.5q27 -47 66.5 -103.5t74.5 -111.5q49 -74 107.5 -134.5t125.5 -115.5 q10 305 13.5 581.5t13.5 563.5q29 8 63 10q12 1 23 1q23 0 45 -3q33 -4 60.5 -14.5t41.5 -28.5q2 -18 0 -23.5t-7 -6.5t-9 -2t-4 -13q14 -125 21.5 -221.5t8.5 -188.5q0 -31 1 -62q0 -64 -2 -130q-2 -100 -9 -230q-4 -78 -6 -147.5t-2 -138t4 -139t13 -148.5 q-18 -8 -42 -15.5t-48.5 -11.5t-47 -3t-41.5 11q-29 16 -40 45t-33 54q-29 33 -71 57.5t-81 61.5q-74 70 -139.5 154.5t-128.5 174.5q-33 47 -57.5 97.5t-47 102.5t-45 103.5t-47.5 100.5q-8 -30 -8 -60q0 -23 4 -45q10 -54 12 -94q3 -56 3 -108q0 -44 -2 -84 q-5 -90 -12 -179.5t-11 -182.5q-1 -27 -1 -54q0 -69 7 -144q-34 4 -68 6q-4 0 -9 1q-29 0 -56 -15q-16 31 -19.5 62.5t1 62.5t10.5 62.5t8 62.5q2 24 2 49q0 31 -3 61q-5 56 -11 114q-7 58 -13 118q-5 46 -4 94v29zM57 1391q17 -121 19 -235q0 -26 1 -52q0 -86 -4 -172 q-5 -110 -9 -220q-2 -36 -2 -72q0 -73 6 -146q4 -70 8 -136q2 -33 2 -68.5t-2 -72.5q0 -16 -6.5 -46t-6.5 -57.5t11.5 -47t46.5 -17.5q6 125 14 252q9 127 13 253q3 71 2 142q0 55 -2 110q-4 126 -19 251q18 4 30.5 -2t21.5 -18.5t15.5 -27t14.5 -22.5q51 -72 85 -157 t75 -164q25 -51 56.5 -96.5t68.5 -92.5q35 -45 69.5 -91t73.5 -87q31 -31 65.5 -57.5t68.5 -54t62.5 -58.5t45.5 -72q35 -6 64.5 -8t60.5 8q-4 157 -16 297q-7 82 -6 166q0 58 3 117q9 181 15 367q2 44 1 88q0 141 -16 278q-2 10 -4 24.5t-2 29t5 26.5t20 18q-12 8 -34 13.5 t-44.5 6.5t-43 -3.5t-30.5 -16.5q4 -102 9 -212q1 -29 1 -58q0 -79 -10 -149q-4 -16 -7 -20.5t-4 -5.5t1 -1t10 -6q4 -4 -3 -13.5t-7 -7.5q4 -18 7 -34.5t3 -34.5q-2 -10 -10 -18.5t-8 -18.5q-1 -13 -1 -25q0 -32 7 -62q10 -42 12 -83q1 -11 1 -22q0 -28 -4 -56l-10 -78 t-11 -79q-4 -29 -4 -58q0 -10 1 -20q0 -20 3.5 -34t5.5 -26t1 -24.5t-10 -30.5q-59 59 -122.5 109.5t-118.5 113.5q-53 63 -94 138t-84 147q-45 72 -92.5 142.5t-88.5 143.5q-23 37 -41 77t-36.5 80t-41 77t-51.5 72z" />
<glyph unicode="O" horiz-adv-x="1523" d="M29 746v28q-1 116 29 222q34 120 99.5 222.5t153.5 174.5q6 4 14.5 4t14.5 4q25 23 63.5 42t81.5 34.5t88 28t86 22.5q39 6 78 6q64 0 128 -16q102 -26 184 -72q37 -20 68.5 -36.5t60 -35t55.5 -39t53 -47.5q6 -4 8 -15t9 -18q10 -10 21 -10t15 -10q27 -35 47.5 -82 t36 -99.5t24.5 -104.5t13 -95q2 -31 2 -60q0 -58 -8 -110q-12 -78 -33 -149q-23 -88 -55.5 -146.5t-79.5 -116.5q-47 -59 -96 -99t-105 -83q-47 -16 -94 -32.5t-94 -29t-95 -18.5q-29 -4 -58 -4q-19 0 -39 2q-10 0 -34 3t-48.5 7.5t-46 8.5t-29.5 8q-16 6 -43 18.5 t-56.5 25.5t-57.5 25.5t-42 22.5q-31 18 -70.5 64.5t-77.5 100.5t-70 107.5t-46 89.5q-51 127 -55 257zM68 836q-1 -22 -1 -43q1 -71 13 -142q16 -92 52 -178t89 -156q57 -92 159.5 -157.5t213.5 -98.5q63 -17 130 -17h8q72 1 138 14.5t122.5 34t92.5 42.5q86 51 156 140.5 t115 198.5q46 110 62 230q7 53 7 103q0 65 -12 129q-18 98 -53 174t-85 136.5t-114.5 107.5t-140.5 84q-123 59 -259 59t-259 -51q-137 -59 -239.5 -169t-160.5 -269q-29 -80 -34 -172zM152 727q6 64 22 135q16 55 32.5 97t41.5 94q16 35 33.5 72.5t29.5 56.5q6 8 24.5 15 t29.5 22q37 39 80.5 80.5t94.5 75.5q52 35 112 53q42 13 90 12q20 0 42 -2q115 -16 211.5 -73.5t161.5 -129.5q33 -37 62.5 -88t53 -109.5t41 -120t25.5 -118.5q4 -32 4 -62q0 -53 -13 -101q-21 -75 -44 -157q-63 -70 -126.5 -130t-147.5 -113q-23 -16 -49.5 -37t-51.5 -27 q-67 -21 -138 -21q-7 1 -15 1q-80 2 -155 20t-139.5 50t-107.5 67q-18 16 -45.5 44.5t-54.5 62.5t-49.5 69t-32.5 61q-4 12 -7 36t-9 46q-8 37 -8 77q0 21 2 42zM204 639q5 -59 36 -104q-10 0 -15.5 3t-13.5 7q39 -74 94 -143.5t133 -121t184 -75.5q60 -14 131 -14 q53 0 113 8q119 53 210 132t173 169q12 55 31.5 110.5t22.5 114.5v14q-1 59 -15 125q-16 74 -43.5 142.5t-60.5 127t-64 93.5q-10 12 -29.5 29.5t-42 36t-46 34.5t-44.5 27q-20 10 -56 21t-72.5 20.5t-67.5 13.5t-41 0q-49 -18 -90 -36.5t-76 -40t-67.5 -47t-65.5 -58.5 q-49 -49 -78 -101.5t-57 -117.5q-25 -53 -47 -118q-21 -64 -31 -128q-7 -42 -7 -83q0 -20 2 -40z" />
<glyph unicode="P" horiz-adv-x="1136" d="M16 758q-5 179 -5 355q0 185 5 366q16 29 50 31.5t63 7.5q91 13 188 13q47 0 97 -3q148 -10 278.5 -49t230 -107.5t142.5 -165.5q10 -20 13 -40.5t14 -41.5q6 -8 10 -37.5t5 -66.5v-15q0 -30 -3 -61q-4 -39 -12 -63q-10 -20 -39 -45t-56 -48q-41 -31 -79.5 -47t-80.5 -25 t-88.5 -12.5t-101.5 -5.5q-10 0 -15 -1t-10.5 -2t-12.5 -3t-21 -2q-33 0 -81 -5q-16 -2 -32 -2q-32 0 -63 7q-16 6 -15.5 21.5t3.5 34t4.5 37t-15.5 28.5q53 10 111.5 14t119 8.5t118 10.5t106.5 20q62 66 82 153q5 22 5 43q0 64 -44 126q-29 37 -76 66.5t-103.5 51t-120 34 t-124.5 14.5q-25 2 -54.5 -2t-62.5 -6l-28 -2q-20 0 -40 2q-34 4 -69 22q-19 -55 -19 -110q0 -16 2 -32q8 -70 11 -134q10 -92 11 -160v-45q0 -45 -1 -87q-2 -64 -4 -132q-1 -23 -1 -48q0 -51 3 -114q2 -18 0 -33.5t-2 -34.5q8 -45 9 -90t3 -93t6 -99.5t17 -108.5 q-18 -14 -46 -22.5t-58.5 -11.5t-60.5 -3t-50 4q-3 378 -13 746zM49 1466q2 -223 4 -415.5t5 -366.5t6.5 -331.5t9.5 -311.5q14 10 35.5 11t42 2t37 6.5t22.5 21.5q-39 172 -40 341t-1 316q4 67 14 129q5 32 4 64q0 31 -4 61q-2 51 -13 103.5t-19 104.5q-7 46 -6 92v13 q1 52 22 105q76 -18 155.5 -22.5t158.5 -8.5t154 -14t136 -43q27 -12 55.5 -33.5t54 -47t47 -54.5t34.5 -55q17 -40 17 -80q0 -27 -8 -53q-20 -66 -68 -114t-112 -70q-38 -13 -75 -14q-26 0 -53 7q4 0 7 4t-7 6q-25 -18 -49.5 -22t-53.5 -4t-61.5 -1t-71.5 -14 q14 -4 13 -18.5t-3 -26.5q45 -2 99.5 -5t112 -3t111.5 6t101 23q14 6 43 24.5t57.5 40t53 41t31.5 25.5q37 61 37 122v19q-6 70 -39 136.5t-81.5 122.5t-86.5 97q-102 31 -193.5 56.5t-179.5 39.5q-77 12 -154 11h-23q-89 -2 -188 -27q-27 16 -50 12t-40 -8z" />
<glyph unicode="Q" horiz-adv-x="1425" d="M10 625v58.5t1 65t2 58.5t5 39q18 70 43 157t67 169.5t104.5 153.5t156.5 110q53 25 90 38t80 35q59 12 107.5 17.5t89.5 5.5t81 -8t85 -23q20 -8 45.5 -14t40.5 -14q6 -2 4 -7.5t6 -9.5q20 -6 46 -22.5t50.5 -38t46 -43t33.5 -37.5q20 -31 40.5 -76t39 -95t32 -100.5 t19.5 -89.5q10 -55 10 -106q0 -43 -7 -84q-15 -90 -28 -164q-16 -18 -31.5 -51t-19.5 -68q-25 -20 -37 -39.5t-23 -38t-23.5 -38t-35.5 -39.5q20 -31 48 -52.5t55 -45t50.5 -50t33.5 -65.5q-10 -20 -27.5 -32.5t-34.5 -29.5q-18 -16 -28 -33.5t-33 -17.5h-5q-30 0 -55 22 q-26 25 -51.5 59t-51 64.5t-58.5 40.5q-33 -16 -60.5 -35.5t-55.5 -40t-59.5 -39t-72.5 -28.5q-41 -12 -71.5 -17.5t-78.5 -9.5q-20 -2 -40 -2q-59 0 -115 14q-74 17 -138.5 53t-113.5 89t-80 119q-2 10 1 19t-1 18q-12 29 -25.5 61.5t-25.5 104.5q-2 8 -6 23t-9.5 34.5 t-8.5 39t-3 36.5zM64 680q6 -74 18 -140.5t26.5 -123t24.5 -92.5q12 -49 39 -94.5t71 -81t104.5 -59t139.5 -30.5q10 -1 20 -1q28 0 59 4q42 6 84 15t80 20.5t67 23.5q20 8 43.5 26.5t49 35t54.5 25.5q15 5 32 5q16 0 32 -4q27 -4 47 -21.5t36.5 -41t33 -49t34.5 -46.5 q35 12 56.5 40t48.5 50q-43 55 -98.5 97.5t-102.5 95.5q37 47 70.5 88t62.5 83t49.5 88t26.5 103q6 44 6 90q0 42 -5 86q-11 91 -36 176t-57.5 157.5t-65.5 119.5q-35 51 -93 87t-131 54.5t-155 18.5t-166 -21q-86 -23 -170 -72t-153.5 -127.5t-117.5 -186t-62 -249.5 q-5 -43 -5 -86q0 -32 3 -63zM147 629v18q0 57 11 116q12 68 33.5 134t48 125t53.5 106q63 61 141 114.5t144 115.5q76 37 139 42q13 1 26 1q48 0 89 -15q53 -18 98 -58t88 -93q23 -31 35 -56.5t34 -66.5q45 -82 63 -184q10 -62 10 -124q0 -40 -4 -79q-11 -102 -50 -193.5 t-109 -152.5q-20 0 -36.5 12t-31 30.5t-26.5 40t-26 40.5q-29 39 -55.5 76.5t-61.5 64.5q-29 -14 -45.5 -43t-34.5 -53q41 -59 94 -101.5t119 -74.5q-45 -72 -124 -122t-168 -69q-47 -9 -93 -9q-41 0 -82 7q-86 17 -141 76q-63 66 -98 153t-40 222zM190 608.5 q0 -108.5 31 -194.5q23 -59 68 -96t84 -80q63 -31 129 -33h13q60 0 117 17q62 18 115.5 55.5t90.5 87.5q-59 33 -113.5 85t-95.5 105q12 18 23.5 38.5t24.5 39t29.5 32t36.5 15.5h5q36 0 68 -30q34 -32 64.5 -72.5t59.5 -80.5t59 -55q23 43 43.5 94.5t36.5 106.5 q25 89 25 193q0 18 -1 37q-5 126 -52 231q-16 37 -45 73.5t-65 68.5t-74 57.5t-70 37.5q-29 11 -61 11q-24 0 -50 -6q-59 -15 -117.5 -45.5t-108.5 -69.5t-81 -68q-55 -51 -98 -142t-67 -197.5t-24 -215z" />
<glyph unicode="R" horiz-adv-x="1189" d="M3 1399q-1 31 6 60.5t32 56.5q14 -12 29.5 -13.5t32 2.5t35 10.5t36.5 8.5q33 4 79 6t93 3h46h44q43 -1 74 -1q76 -4 143.5 -5t129 -7.5t116.5 -21.5t107 -46q53 -35 87.5 -77t45.5 -118q2 -20 2 -39q1 -49 -11 -93q-16 -60 -44.5 -111t-64.5 -96.5t-69 -83.5 q-43 -10 -88 -25.5t-90 -29t-90 -19.5q-19 -3 -38 -3q-25 0 -48 5q29 -59 72 -111.5t86 -118.5q35 -51 79 -114.5t90 -130t89 -132t78 -118.5q-23 -12 -50.5 -18.5t-54 -7.5t-49.5 1t-35 4q-43 6 -75.5 40t-60.5 80t-53.5 94.5t-54.5 80.5q-23 25 -42 45.5t-37 42.5 q-16 25 -30.5 48.5t-31.5 48.5q-66 111 -122 223t-91 205q36 6 72 7l18 -1q45 -2 89 -4q22 -1 43.5 -1t42.5 1q42 2 81 14q55 18 104.5 44t84.5 64q34 36 54 90q16 44 16 103q0 12 -1 25q-45 52 -121 68q-68 15 -150 14h-20q-92 -2 -188 -12q-79 -8 -149 -7h-29 q-33 -117 -33 -224.5t12 -207.5q10 -109 24.5 -217.5t25.5 -208.5q8 -109 19 -214q7 -68 7 -140q0 -39 -2 -80q-16 -14 -44 -21q-29 -6 -61 -7h-13q-26 0 -53 3q-34 4 -58 8q10 20 10 43q0 13 -3 26q-7 31 -7 60v13q2 66 2 140.5t-3 148t-9.5 143.5t-14.5 125q-6 40 -6 79 q-1 44 7 87q9 54 9 106q0 27 -2 53q-4 59 -16 117t-20 117q-4 29 -11.5 59.5t-8.5 61.5zM41 1462q27 -111 37 -222.5t13 -225t5 -232t15 -241.5q4 -53 4 -113q0 -62 -2 -124q-1 -42 -1 -83v-41q1 -62 7 -125q26 -10 55 -10q11 0 22 1q42 5 76 9q-16 121 -31.5 259.5 t-21.5 281.5q-6 102 -17 204q-12 104 -18 202q-4 66 -4 128q0 31 1 62q3 92 28 172q63 4 119.5 7t109.5 3q47 -2 76 -3t57 3q53 6 105 12q20 2 39 3q32 0 61 -7q37 -6 76 -29.5t74 -23.5q23 -63 24 -119q0 -42 -14 -81q-31 -89 -113 -147q-81 -58 -203 -80q-59 -11 -122 -11 q-67 0 -138 12q23 -47 47.5 -101t50 -107.5t51.5 -104.5t54 -94q25 -37 43.5 -66t39 -56.5t42 -56t51.5 -65.5q35 -41 62.5 -89t85.5 -106q33 0 77 -9q26 -5 48 -5q14 0 26 2q-49 61 -98 138t-97 155t-96.5 151.5t-95.5 131.5q-35 41 -71.5 82.5t-53.5 95.5q29 -4 64 -4 q18 0 38 1q58 3 116.5 12t109.5 25.5t80 36.5q12 6 32.5 30t41 51.5t38 51t21.5 33.5q19 40 25 94q3 27 3 54q1 26 -3 51q-6 51 -21.5 93t-40.5 63q-10 8 -38.5 24.5t-60.5 31.5t-58.5 27.5t-34.5 12.5q-29 6 -63 6q-19 0 -41 -2q-43 -5 -84 -5q-14 0 -27 1q-147 10 -295 10 t-287 -35z" />
<glyph unicode="S" horiz-adv-x="923" d="M4 1145v15q0 50 12 88q14 44 37 80t52.5 71t60.5 76q90 25 177 35t194 16q18 0 38.5 3t40 4t39 -5.5t37.5 -24.5q14 -25 18 -72l2 -22q0 -36 -12 -70q-48 7 -112 11q-29 2 -58 2q-36 0 -72 -4q-66 -6 -130 -21.5t-111 -49.5t-71 -86q-16 -34 -15 -79q0 -23 4 -49 q2 -18 13.5 -38.5t24.5 -41t27.5 -38t26.5 -25.5q10 -8 33 -16.5t49.5 -15.5t50 -13.5t37.5 -10.5q45 -14 80 -24.5t68 -20.5t66.5 -24.5t80.5 -38.5q31 -18 62.5 -34.5t48.5 -37.5q20 -27 34.5 -61.5t21.5 -70.5t10 -68.5t3 -55.5v-7q0 -122 -68 -199q-70 -79 -179 -116.5 t-241 -37.5t-257 30q-10 14 -14 40t-5.5 52.5t-1.5 51t-2 41.5q106 -16 200 -20q19 -1 38 -1q72 0 133 14q76 18 132.5 62.5t84.5 126.5q-10 39 -19 68.5t-24.5 54t-41 45t-70.5 39.5q-59 25 -121 42t-121 37.5t-112.5 47t-92.5 70.5t-62.5 111t-23.5 165zM49 1183 q-3 -24 -3 -49q0 -55 16 -110q22 -80 81 -145q45 -51 118 -78t148.5 -48.5t145.5 -49t111 -80.5q47 -61 58 -113q5 -24 5 -46q0 -26 -7 -49q-13 -42 -46 -76t-72 -58q-80 -49 -170 -54.5t-203 -5.5q-12 2 -29.5 7t-31.5 8.5t-24.5 0t-8.5 -15.5q2 -27 15.5 -48t32 -36.5 t39 -25t38.5 -9.5q23 0 50.5 -2t56 -5t54.5 -4t44 3q31 2 80 16.5t96 33t86 39t51 38.5q58 87 60 199q0 3 1 6q0 109 -48 217q-55 51 -126 84t-147 57.5t-153.5 46t-147.5 48.5q-35 33 -63 75q-30 42 -46 90q-16 46 -15 96v6q1 54 30 114q107 78 241 110q84 20 185 20 q61 0 129 -8v101q-30 -1 -60 -1t-61.5 1t-62 1t-60.5 -1q-60 -2 -116 -10t-101 -31q-72 -43 -116 -111.5t-54 -147.5z" />
<glyph unicode="T" horiz-adv-x="1345" d="M6 1542q172 -14 330 -16q79 -1 157.5 -1t156.5 1q156 2 314 6q106 3 220 3q57 0 116 -1q8 -20 16.5 -49t11.5 -56.5t0 -51t-15 -31.5q-18 4 -22.5 24.5t-3.5 45t2 48t-11 35.5q-303 -14 -602 -18q-50 -1 -100 -1q-253 0 -525 17q-4 -9 3 -35q3 -10 3 -24q0 -18 -6 -41 q59 -19 137 -21q26 0 52 -1l104 2q78 3 147.5 3t114.5 -14q4 -172 14 -334t15 -322q4 -120 5 -242q0 -40 -1 -81q-2 -162 -23 -334q4 -10 16.5 -11t27 0t30 3t27.5 0q16 92 18 188.5t4 198.5q1 36 1 72q0 64 -4 128q-3 42 -3 82q0 59 6 117q6 63 17.5 127t18.5 128 q4 41 4 83q0 25 -1 49q-4 66 -28 134q63 26 147 28q20 1 40 0q63 0 124 -6q13 -1 25 -1q24 0 42 3q28 4 50 5t44.5 -3t51.5 -22q-36 -16 -68 -20q-21 -2 -42 -2q-12 0 -25 1q-35 2 -73 5t-83 3q-43 -4 -85 -11t-79 -11q-4 -18 -5 -37q0 -28 10 -57q14 -49 16 -97v-20 q0 -38 -6 -75q-8 -46 -17.5 -89t-20 -85t-12.5 -83q-2 -13 -2 -27q0 -23 4 -47q6 -38 11 -71q0 -84 -3 -155.5t-7.5 -142.5t-8.5 -146.5t-4 -165.5q-49 -13 -98 -15q-4 0 -8 -1q-45 0 -84 16q12 168 12 331.5t-6 323.5t-12.5 316.5t-6.5 314.5q-20 25 -43.5 31t-46 4.5 t-45 -7.5t-41.5 -6q-33 -2 -68 -2q-45 0 -91 3q-84 5 -195 34q-16 31 -17 50.5t0 38t-1.5 37.5t-16.5 50z" />
<glyph unicode="U" horiz-adv-x="1220" d="M6 1186q-1 16 -1 33q0 30 4 62q7 50 13.5 96t9.5 86q1 11 1 21q0 26 -6 44q23 0 52.5 1t58 1t52 -4t35.5 -15q-14 -72 -24.5 -163t-15.5 -189q-4 -82 -4 -165v-34q1 -100 7 -194q4 -49 9.5 -102.5t12.5 -104.5t17.5 -97t22.5 -79q16 -47 50 -97t67 -75q37 -29 91 -41 t112 -13h13q52 0 103 7q57 8 102 22q33 16 66 42t64 67q29 55 48 127t29.5 152.5t13.5 166.5q1 37 1 74q0 49 -2 98q-6 80 -12.5 150t-14.5 138.5t-18.5 138t-24.5 149.5q37 22 75 22q3 -1 5 -1q41 -2 74 -9q0 -16 -10.5 -22t-27 -8.5t-36 -1.5t-35.5 -1q23 -147 43.5 -326 t24.5 -358q0 -78 -3.5 -162.5t-19.5 -152.5q-6 -27 -18.5 -50.5t-24.5 -46t-21.5 -47t-11.5 -51.5q-16 -12 -25 -23t-20 -22q-23 -23 -38 -35t-50 -28q-41 -18 -111 -30q-53 -9 -111 -10q-18 0 -37 1q-77 4 -147.5 25.5t-109.5 70.5q-33 39 -60.5 92.5t-37.5 102.5 t-20.5 113.5t-19.5 135t-16.5 144.5t-11.5 141q-1 34 -1 65v29q1 44 5 86t9.5 85t9.5 92q2 20 8 51t9 61.5t-2 55t-25 34.5q-37 -6 -56.5 -11t-27.5 -20.5t-9.5 -47t-1.5 -91.5q0 -82 -2 -150.5t-3 -132.5v-65v-65q1 -66 7 -140q6 -82 8.5 -164.5t11.5 -160.5t28.5 -145.5 t58.5 -116.5q49 -66 139 -102q91 -36 195 -48q57 -7 115 -6q47 0 97 4q108 10 197 37q39 10 60.5 41t50.5 70q41 61 79 153t50 197q13 106 13 204q0 33 -1 65q-6 128 -19.5 248t-25.5 234q-9 85 -9 169q0 28 1 57q20 -2 29.5 -16.5t11.5 -33t1 -38t1 -33.5 q10 -88 18.5 -187.5t14.5 -201t8 -202.5q1 -50 0.5 -98t-0.5 -93q0 -35 -2 -75t-8 -77q-16 -92 -47 -162.5t-84 -150.5q-35 -51 -97.5 -81t-138.5 -45.5t-159 -18.5q-36 -1 -69 -1q-45 0 -87 2q-68 2 -128.5 21.5t-109.5 46t-86 57.5t-55 60q-49 115 -69.5 237.5t-28 248.5 t-7.5 253t-8 250z" />
<glyph unicode="V" horiz-adv-x="1572" d="M8 1479q31 10 62.5 7t63.5 -10.5t67 -13.5q21 -4 42 -4q14 0 29 2q59 -121 115.5 -252t114 -262t116 -257t123.5 -236q92 156 182.5 319.5t176.5 339.5q14 35 30.5 65.5t28.5 59.5q4 6 0 18.5t0 18.5q35 72 79 132t85 124q8 -14 29.5 -12t48 8t52.5 10t42 -6 q27 -16 31 -31.5t-3 -33t-21.5 -40t-26.5 -49.5q-6 -12 -5.5 -27.5t-3.5 -31.5q-29 -63 -64.5 -129t-70.5 -137q-14 -33 -28.5 -66t-30.5 -63q-41 -82 -78 -165l-74 -166t-76.5 -164t-87.5 -161q-23 -31 -35 -62.5t-26 -58.5q-12 -23 -36.5 -41t-37.5 -41q-8 -16 -10 -24 t-3 -13.5t-3 -10.5t-12 -13q-37 39 -78 99.5t-80 125t-77 126t-69 102.5q-2 4 -6 9t-6 13q-94 160 -182 330t-166 338q-37 74 -61.5 163t-59.5 171zM57 1440q70 -152 136.5 -307.5t137 -306t150.5 -293t178 -265.5q16 -47 53.5 -86t51.5 -86q51 35 80.5 90.5t58.5 100.5 q4 10 19.5 14t19.5 14q8 12 10 31t13 31q39 70 72.5 133t47.5 154q49 82 92.5 170t85.5 178t83 179t88 175q-4 23 0 38t10 26.5t14 22.5t12 24q-20 5 -42 5q-14 0 -28 -2q-20 -3 -38 -3q-15 0 -29 2q-59 -104 -109 -207t-99.5 -203t-99.5 -198.5t-110 -194.5 q-31 -47 -66.5 -99.5t-57.5 -105.5q-6 -18 -7.5 -28.5t-3.5 -18.5t-8 -16.5t-24 -20.5q-78 94 -135.5 199.5t-106.5 216t-95 225.5t-100 229q-16 37 -30.5 70t-30.5 74q-16 6 -43 10t-54.5 9t-53 9.5t-42.5 10.5z" />
<glyph unicode="W" horiz-adv-x="2406" d="M12 1475q23 16 52.5 23t59.5 9t56.5 0t42.5 -4q49 -127 93 -252t92.5 -247.5t105.5 -244.5t135 -239q43 57 86 124t88 133.5t89 130t92 118.5q14 14 30.5 37.5t36 41t43 24t51.5 -14.5q-47 -45 -96 -104.5t-104 -96.5q2 -18 -3.5 -30.5t-11.5 -22.5t-11 -21.5t-5 -27.5 q-41 -35 -69.5 -77t-54.5 -86t-53.5 -88t-66.5 -81q-6 -12 -1 -18t11.5 -10.5t9.5 -6.5t-10 -6q-12 -2 -15 -9t-5 -13t-8 -11.5t-23 -3.5q-27 25 -43 55.5t-29.5 64.5t-26.5 68t-34 62q-41 57 -68.5 126t-50.5 149q-20 74 -46.5 140.5t-55.5 131t-56.5 129t-45.5 135.5 q-12 -2 -33 -4t-41.5 -6t-35.5 -10t-22 -17q27 -23 41.5 -59.5t18.5 -77.5q12 -139 62 -268t116 -256q78 -152 154.5 -313.5t152.5 -333.5q47 49 103.5 99t87.5 108q35 61 85 120.5t85 118.5q20 35 40.5 78t45 81t56.5 65.5t79 29.5q6 -6 6 -11v-9t1 -10.5t11 -14.5 q74 -72 137.5 -166t128 -191.5t133 -187.5t150.5 -153q41 68 78 145.5t71.5 156.5t68.5 154.5t71 139.5q35 59 60.5 119.5t60.5 121.5q33 57 54.5 104.5t37.5 93.5t31.5 97t33.5 119q-26 3 -68 13q-28 7 -54 7q-12 0 -23 -2q-14 -18 -26.5 -38.5t-22.5 -38.5 q-18 -29 -22.5 -47.5t-5.5 -34t-4 -31.5t-17 -41q-4 -8 -4 -21.5t-4 -17.5q-29 -45 -70 -94t-64 -88q-25 -43 -47 -81t-63 -60q-16 -47 -40 -90.5t-61 -71.5q2 -12 2 -24q0 -32 -13 -55q-17 -32 -46 -30q-53 4 -87 46t-73 96q-41 55 -79.5 116.5t-75.5 125t-74 124 t-74 109.5q-8 10 -13 14t-7 7t-1 8t7 22q63 -12 96 -46t53.5 -76t39 -83t55.5 -68q12 -43 37.5 -87t56.5 -87t64.5 -84t64.5 -77q53 127 133 237.5t150 227.5q33 59 56 106t42.5 90t39 87t48.5 99q44 13 80 13q4 -1 7 -1q38 -2 95 -1v2q23 -6 41.5 -16t26.5 -37 q4 -12 3 -25.5t-1 -28.5q-20 -63 -39 -119.5t-39.5 -111.5t-47 -110.5t-61.5 -116.5q-49 -86 -92 -168t-100 -154q-18 -57 -36.5 -112.5t-40 -108.5t-48.5 -101.5t-66 -91.5q25 -12 21 -22t-22.5 -20.5t-44 -20.5t-42.5 -19q-80 78 -160.5 180.5t-144.5 194.5 q-35 45 -62.5 94.5t-58.5 94.5q-31 47 -74.5 95t-84.5 66q-12 -37 -32 -68.5t-39 -62t-38.5 -62.5t-34.5 -69q-6 0 -8 -5t-5 -9t-9 -6t-19 2q4 -23 -6 -41.5t-24.5 -33.5t-26.5 -24.5t-12 -11.5q-4 -10 0 -11t0 -11q-12 -20 -20.5 -32.5t-16.5 -23t-19.5 -20.5t-25.5 -25 q4 4 6 -5t-6 -13q-10 -8 -20.5 -5t-20.5 -5q-10 -10 -9 -24.5t-10 -27.5q-8 -10 -25.5 -15t-25.5 -15q-4 -4 -4 -12.5t-1 -16.5t-6 -11t-20 1q-14 -10 -21 -28.5t-38 -22.5q-84 164 -158.5 330.5t-173.5 347.5q-31 57 -65.5 145t-64 180t-52.5 176t-31 137q-8 47 -13 57.5 t-10 11.5t-9.5 10.5t-10.5 52.5z" />
<glyph unicode="X" horiz-adv-x="1300" d="M-10 1393q86 13 157 13q35 0 67 -3q95 -10 116 -37q18 -29 50 -79t64.5 -106.5t63.5 -112.5t47 -93q47 57 103.5 119.5t111.5 128t105.5 133t85.5 135.5q37 8 70.5 8t65 -1t63.5 -1t67 6q-35 -102 -105.5 -197.5t-157.5 -192.5t-178.5 -196.5t-164.5 -205.5 q78 -90 158.5 -168t162.5 -153t165 -150.5t165 -161.5q0 -25 -11.5 -33t-26.5 -9t-33.5 2t-35.5 3q-39 -3 -83 -19q-35 -12 -60 -13q-6 0 -12 1q-29 4 -53.5 35t-53.5 64q-33 37 -70.5 82t-74.5 92t-69 93t-50 83q-98 -88 -183 -186.5t-167 -204.5q-69 -6 -141 -24 q-59 -15 -110 -16q-11 0 -22 1q-6 20 3.5 37.5t22.5 34t26.5 34t15.5 39.5q57 59 105.5 125t99.5 133.5t109.5 133t133.5 126.5q-88 94 -181 195.5t-179 212.5q-10 14 -19.5 29.5t-19.5 29.5q-14 16 -34.5 45t-42 61.5t-40 66.5t-26.5 61zM51 1354.5q8 -11.5 29 -43.5 q10 -16 44 -65.5t82 -114t102 -134t105.5 -127t92.5 -94.5q39 -35 59 -35h2q8 0 41 37t71 83t69.5 86t37.5 46q49 49 101.5 109.5t102.5 123t94 126t75 121.5q-10 0 -32.5 -4.5t-47 -9.5t-47.5 -9t-33 -4q-80 -90 -152.5 -172t-150.5 -174q-23 -29 -37 -57.5t-29.5 -52 t-38 -40t-59.5 -18.5q-47 51 -81.5 123.5t-71.5 141.5t-82 121t-113 66q-59 -12 -91 -13t-41 -3t-1 -13.5zM72 70q12 -8 34.5 -8t50 7t56.5 18t51 26q45 57 88 108t86 99.5t90 94.5t101 95q92 -125 189 -231.5t198 -223.5q27 6 59.5 6t62 2.5t50 8.5t22.5 28 q-82 63 -161.5 138t-159.5 152t-159 152.5t-159 141.5q-47 -74 -116.5 -152.5t-142 -157.5t-138 -156.5t-102.5 -147.5z" />
<glyph unicode="Y" horiz-adv-x="1554" d="M4 1501q27 8 60.5 8t69.5 -2t70 -2t58 6q74 -96 118 -201.5t86 -211t95 -202.5t144 -177q168 166 311 376t268 418q33 -4 62.5 -0.5t61.5 7.5t66 5h8q32 0 70 -7q-162 -283 -346 -552.5t-399 -519.5q-2 -28 -2 -53q0 -37 4 -68q6 -51 12 -98t6 -96t-14 -115 q-31 0 -59.5 -4t-56 -5t-53.5 3t-50 19q2 28 2 54q0 32 -3 61q-5 53 -11.5 104t-9.5 103q-1 17 -1 36q0 37 4 80q-111 104 -192.5 228t-146 257t-120 272.5t-112.5 276.5zM51 1473q59 -152 122 -298.5t130.5 -275.5t142 -234.5t158.5 -177.5q8 -66 10 -121t4.5 -107 t4.5 -104.5t8 -109.5q23 -12 39 -15t32.5 -2t35 4t44.5 3q16 83 16 158q0 30 -2 60l-20 202q43 45 112.5 132t148.5 193.5t160 221t146.5 215t110.5 173t51 97.5q-35 2 -61.5 -2t-49 -8t-43 -6.5t-42.5 6.5q-66 -104 -129.5 -212t-139.5 -206q-72 -98 -160.5 -201.5 t-185.5 -179.5q-90 82 -146 183.5t-102.5 208t-93.5 210.5t-116 193q-16 -2 -43 0t-54.5 4t-52.5 2t-35 -6z" />
<glyph unicode="Z" horiz-adv-x="1384" d="M14 1339q-4 37 0 61.5t8.5 43t9.5 35t5 34.5q72 -8 153 -9q34 0 70 2q121 5 249 14.5t259 17.5q75 5 148 5q55 0 110 -3q84 -2 164.5 -7t146.5 -40q6 -31 -5 -54.5t-30.5 -44t-42 -39t-40.5 -34.5q-66 -123 -151 -227.5t-175 -206.5q-53 -66 -105.5 -133.5t-105.5 -137.5 q-80 -98 -169 -205.5t-161 -228.5q172 16 328 22t309 17q45 2 89 8.5t89 10.5t89 4t90 -13q8 -41 8 -71q0 -9 -1 -18q-3 -36 -7 -74q-231 -42 -459 -56q-131 -8 -253 -8q-90 0 -175 4q-27 1 -56 1h-29q-44 -1 -89 -1t-90 4t-84 15q-6 25 -2 51t9 54t7 57.5t-4 60.5 q113 125 207 262t196 268q109 129 208 263.5t188 277.5q-56 1 -112 1t-112 -1q-112 -2 -226 -3h-57q-85 0 -171 2q-114 3 -228 19zM55 1454q8 -4 9.5 -14t0 -23.5t-2.5 -27t1 -21.5q137 -2 263 -2q94 0 182 1q36 1 72 1q167 0 323 -12q9 1 17 1q42 -1 48 -19q2 -6 3 -14 q-1 -19 -15 -47q-20 -40 -61 -92t-83 -106.5t-78 -104.5t-44 -87q-141 -156 -263 -330t-257 -336q2 -18 -2 -41.5t-7 -47t-3 -44t6 -33.5q142 -12 290 -16q66 -2 131 -2q83 0 165 3q148 5 289 20.5t268 43.5q0 12 4 26.5t6 30t1 29t-11 21.5q-248 -23 -502 -47 q-218 -21 -444 -22q-37 0 -74 1q-14 25 1 46.5t25 41.5q14 20 28.5 43t29.5 45q29 41 59.5 81t58.5 81q57 80 126 152t133 147q41 47 77.5 99.5t77.5 103.5q68 78 130.5 154.5t119.5 160.5q23 33 44.5 65t43.5 62q4 6 13.5 9.5t19.5 5.5t17 7t7 17q-153 17 -302 17 q-12 -1 -24 -1q-160 -2 -315 -11t-305 -17q-67 -4 -133 -4q-82 0 -164 6z" />
<glyph unicode="[" horiz-adv-x="542" d="M-20 1481q4 0 14 2t21.5 3t20.5 -2t9 -11q8 8 26.5 12t38 6t35 0t19.5 -4q27 16 64.5 25.5t78.5 14.5t83 7t79 6q8 -12 20.5 -19.5t24.5 -17.5q-4 -25 -2 -57.5t1 -60t-12 -43t-40 -7.5q-59 -25 -123 -27.5t-125 -9.5q31 -102 30 -208.5t1 -233.5q0 -92 7 -171t1 -157 q-4 -57 1 -125.5t-3 -134.5q29 -8 59.5 -9t62 1t61.5 3t59 -1q18 -16 23 -30.5t4 -30t-6 -32.5t-7 -40q-8 -74 -16.5 -95.5t-27 -18.5t-51 18.5t-87.5 15.5q-8 0 -6.5 -6t-2.5 -10q-10 -2 -35.5 4t-43.5 4q-39 -4 -82 -12.5t-86 -1.5q4 27 -1.5 56.5t-5.5 51.5 q0 12 6.5 22.5t8.5 20.5q4 41 2 89t-2 89q-2 104 -19.5 202.5t-17.5 199.5q0 35 3 69.5t3 69.5q-2 72 -6 138.5t-8 132t-7.5 132t-0.5 138.5q-2 8 -9.5 11t-15.5 6t-14.5 8t-3.5 18zM53 1313l6 -6q4 -4 9 -17q2 -45 -1.5 -94t1.5 -96q0 -10 6 -20.5t10 -22.5q4 -35 0 -75 t0 -77q2 -74 1 -132t5 -111q2 -72 12.5 -146t17.5 -148.5t7 -150.5t-16 -154q33 2 74.5 5.5t87.5 6.5t92.5 3t87.5 -6q-2 10 1 11t6 -1t6 -3t3 7q-8 8 -7 25.5t4 38t5 43t-2 38.5q-35 0 -63.5 -3t-54 -4t-52.5 3t-55 19q-2 -10 -2 -6t-17 8q-10 41 -13 105.5t-2 134t3 134 t0 105.5q-4 129 -11 259t-24 247q-4 16 -13 40.5t-1 53.5q20 14 50 13t58 3q49 4 96.5 15.5t84.5 11.5q0 53 1 82t-5 57q-104 -10 -199.5 -28.5t-188.5 -28.5q-12 -25 -2.5 -47.5t9.5 -46.5q0 -10 -7.5 -22.5t-7.5 -22.5z" />
<glyph unicode="\" horiz-adv-x="557" d="M12 1497q0 4 15.5 7t41 5t58.5 4.5t63 4.5q4 -41 22.5 -126t46.5 -195t62.5 -236.5t68.5 -254.5t63.5 -246t51 -210t29 -150.5t-3.5 -64.5q-33 -16 -46 -24.5t-24 -10.5t-26.5 1t-52.5 9q-14 2 -36.5 63.5t-51.5 162t-59.5 228.5t-61.5 263t-59.5 266t-50 237.5 t-35 178.5t-15.5 88zM47 1470q20 -86 48 -211.5t60.5 -268t67.5 -291t69 -278.5t62.5 -228.5t51.5 -143.5q31 -14 53 -15.5t47 21.5q-66 330 -161 687.5t-191 738.5q-31 -6 -49.5 -3t-57.5 -8z" />
<glyph unicode="]" horiz-adv-x="542" d="M-5 201.5q-1 15.5 4 30t24 30.5q27 2 57.5 1t62 -3t62.5 -1t59 9q-8 66 -3 134.5t1 125.5q-6 78 1 157t7 171q2 127 1 233.5t30 208.5q-61 6 -125 9t-123 28q-29 -8 -40 7.5t-12 43t1 60.5t-2 57q12 10 24.5 17.5t20.5 19.5q37 -4 79 -6t83 -7t79 -14.5t64 -25.5 q4 2 19.5 4t35 0t38 -6t26.5 -12q0 8 9 11t20.5 2t21.5 -3t15 -2q2 -12 -4.5 -17.5t-14.5 -8.5t-15 -6t-9 -11q2 -72 -1.5 -138.5t-7.5 -132t-8 -132t-6 -138.5q0 -35 3 -69.5t3 -69.5q0 -100 -17.5 -198.5t-19.5 -203.5q0 -41 -2 -89t2 -89q2 -10 8.5 -20.5t6.5 -22.5 q0 -23 -5.5 -52.5t-1.5 -55.5q-43 -6 -86 2t-81 12q-18 2 -44 -4t-36 -4q-4 4 -2 10t-7 6q-55 0 -87.5 -15.5t-51 -18.5t-27 18.5t-16.5 95.5q-2 23 -7 40t-6 32.5zM43 192.5q2 -22.5 5 -43t4 -38t-7 -25.5q0 -8 3 -7t6 3t6 1t1 -11q41 6 87.5 6t92.5 -3t88 -6t74 -6 q-16 78 -16 154t7 150.5t17.5 148.5t12.5 146q6 53 5 111t1 132q4 37 0 77t0 75q4 12 10 22.5t6 20.5q4 47 1 96t-1 94q0 8 9 17l6 6q0 10 -7.5 22.5t-7.5 22.5q0 25 9.5 47t-2.5 47q-92 10 -187.5 28.5t-199.5 28.5q-6 -29 -5.5 -57.5t0.5 -81.5q37 0 84.5 -11t96.5 -16 q29 -4 58.5 -3t49.5 -13q8 -29 -1 -53.5t-13 -40.5q-16 -117 -23.5 -247t-11.5 -259q-2 -41 0 -105.5t3 -134t-2 -134t-13 -105.5q-16 -4 -16.5 -8t-2.5 6q-29 -14 -55.5 -18.5t-52 -3.5t-54 4t-63.5 3q-4 -16 -2 -38.5z" />
<glyph unicode="^" horiz-adv-x="1144" d="M10 637q37 113 94.5 206t112.5 193q53 86 102 183.5t84 214.5q94 -12 177.5 -27.5t152.5 -34.5q55 -59 99.5 -138t86.5 -161t88 -159.5t107 -135.5q-10 -23 -43 -36t-70.5 -24t-72.5 -22.5t-47 -29.5q-43 47 -77 102t-68 110.5t-72.5 105.5t-92.5 85q-8 -61 -35.5 -101 t-58.5 -76t-57.5 -78t-32.5 -107q-80 -18 -173 -33t-204 -37zM102 721q111 -14 176.5 28t109.5 112.5t77 154.5t76 151q63 -16 115.5 -74.5t95.5 -127t76.5 -130.5t62.5 -85q-20 14 -11 19t34.5 7t58.5 5t61 18q-70 129 -119 208.5t-83.5 125t-55 66t-33 30.5t-17.5 20.5 t-7 34.5q-12 12 -51 25.5t-83 25t-85 18.5t-58 7q-33 -78 -72.5 -162t-82.5 -169t-90 -164t-95 -144z" />
<glyph unicode="_" horiz-adv-x="1011" d="M5 105.5q-1 11.5 4 26.5t14 52q4 16 60 22.5t141 7.5t189.5 -1t206 -3t190.5 0t144 11q6 -31 12.5 -62.5t10.5 -57t5 -42t-3 -16.5q-20 -4 -96 -10t-178.5 -13.5t-217 -12.5t-212 -5t-165 7.5t-73.5 23.5q-16 33 -23.5 47t-8.5 25.5zM39 113.5q6 -21.5 29 -47.5 q74 -14 170 -16.5t209.5 0.5t239.5 9.5t257 10.5q0 39 -7 57t-9 49h-215t-144.5 1t-107.5 1t-101.5 -1t-127 -4t-183.5 -9q-16 -29 -10 -50.5z" />
<glyph unicode="`" horiz-adv-x="229" d="M4 1520q47 12 97.5 2.5t105.5 -23.5q-20 -43 -14 -95t15 -104.5t7 -100.5t-39 -83q-31 4 -46 1t-24.5 -8t-17.5 -9t-27 -2q14 106 -4 222t-53 200zM53 1503q18 -49 27.5 -98t13.5 -96t6 -92.5t6 -88.5l-8 -2q10 4 17.5 9.5t23.5 3.5q27 2 30 36.5t-2 86t-11 112t4 115.5 q-33 -2 -52.5 7t-54.5 7z" />
<glyph unicode="a" horiz-adv-x="931" d="M25 213q-7 35 -7 66q0 58 24 105q36 73 106.5 120t165 71.5t188.5 28.5q-4 27 -8.5 57.5t-10.5 58.5t-16 50.5t-31 36.5q-20 2 -34.5 -11.5t-29 -34t-29.5 -40t-36 -25.5q-49 35 -57 76q-2 12 -2 25q0 29 12 57q18 41 58 76t91.5 57.5t106.5 27.5q11 1 21 1q43 0 81 -17 q66 -31 110 -90t70.5 -138t40 -171t18.5 -186.5t6 -184.5t3 -166q-35 10 -41 38t-14 57q-15 75 -15 161v29q2 61 2 120q0 40 -1 79q-2 98 -19.5 187t-75.5 155q-41 59 -97 79q-35 13 -73 13q-22 0 -45 -4q-47 -10 -86 -36t-64.5 -58.5t-36.5 -69.5q-5 -18 -5 -34 q0 -18 6 -34q18 6 27.5 21.5t17.5 33t17.5 35t25.5 27.5q51 -14 81 -42.5t45 -68.5t21.5 -88.5t10.5 -103.5q-14 1 -29 1q-36 0 -76 -4q-56 -5 -113 -18.5t-107 -38t-85 -57.5q-35 -37 -53 -85t-20 -95q0 -6 -1 -12q-1 -40 15 -75q18 -40 57 -64q37 -12 75 -25.5t80 -23 t90 -12.5q13 -1 27 -1q36 0 76 6q33 4 70 14.5t71.5 19.5t65.5 14.5t55 0.5q12 -4 26.5 -6t25 -6t17.5 -14t7 -31q-29 2 -57 2q-58 0 -116 -8q-87 -13 -173 -21q-52 -5 -104 -5q-33 1 -66 3q-84 6 -162 45q-35 14 -73.5 57.5t-44.5 92.5zM215 274q-1 8 -1 16q0 36 22 68 q28 39 74 63.5t104 34.5q23 4 46 4q34 0 66 -9q49 -35 77 -94.5t44 -108.5q-37 -20 -105 -38q-70 -16 -138 -20q-11 -1 -21 -1q-57 -1 -103 15q-56 18 -65 70zM248 295q14 -41 56 -56.5t94.5 -15.5t107.5 10.5t96 20.5v6q0 75 -47 116q-49 42 -113 47q-9 1 -17 1 q-55 0 -105 -28q-58 -32 -72 -101z" />
<glyph unicode="b" d="M4 1397q33 10 78 20q45 9 92 13l34 2q29 0 58 -4q45 -6 80 -29q-2 -68 -2 -118t2 -95t7 -91t16 -106q62 11 121 11q48 0 94 -7q104 -16 190 -65t149.5 -133t90.5 -199q6 -52 6 -99q0 -93 -24 -167q-36 -112 -110 -185q-76 -73 -178 -108q-97 -33 -202 -33h-12 q-112 2 -227 42t-212 116q-18 154 -23 314.5t-6 319t-4.5 311.5t-17.5 290zM57 1352q18 -166 23.5 -308.5t6.5 -277.5t3 -272.5t14 -292.5q80 -82 191 -117q100 -31 201 -31h24q114 4 214 45t159 113q59 74 75 167q7 41 8 83q0 52 -12 103q-20 93 -74 177t-134 138.5 t-184 72.5q-31 5 -63 5q-75 0 -157 -29q-12 57 -21 97t-15 85q-7 44 -9 104q-1 20 -1 44q0 48 3 112q-25 6 -59 9q-25 2 -52 2h-18q-37 -1 -70 -8t-53 -21zM250 450q-2 28 -2 57q0 43 5 86q9 73 33.5 135.5t63.5 90.5q32 23 86 29q33 4 62 4q20 0 39 -2q23 -2 56.5 -12.5 t68 -28.5t66.5 -45t50 -59q10 -29 19.5 -72t14.5 -89q4 -38 4 -76v-15q-1 -45 -9 -80q-16 -51 -56 -86t-90.5 -53.5t-107.5 -21.5q-10 -1 -21 -1q-46 -1 -90 11q-54 14 -96.5 42.5t-64.5 73.5q-25 42 -31 112zM289 501.5q0 -57.5 20.5 -107.5t63 -87t116.5 -51q30 -4 56 -4 q53 0 93 16q60 24 93 70t40 108q2 20 2 41q0 41 -9 81q-14 60 -48 115.5t-82 89.5t-110 40q-9 1 -17 1q-54 0 -116 -32q-27 -27 -50.5 -71.5t-37.5 -98t-14 -111z" />
<glyph unicode="c" horiz-adv-x="1011" d="M-2 450q12 112 62.5 211t134.5 176.5t187 123t222 49.5h19q110 0 221 -43q3 -18 3 -33q1 -23 -7 -40q-12 -28 -13 -60q-72 0 -163 -26t-167.5 -74t-119.5 -114q-26 -40 -26 -87q0 -30 11 -62q23 -57 68 -79q46 -22 104 -26q26 -2 54 -1q34 1 70 3q48 4 93 4q17 0 33 -1 q62 -2 115 -19.5t88 -68.5q13 -37 13 -70q0 -27 -8 -53q-18 -56 -62 -97q-94 -35 -226 -49q-63 -7 -126 -7q-69 1 -139 9q-132 16 -245.5 65.5t-168.5 141.5q-30 88 -30 174q0 27 3 53zM36 408q0 -87 38 -162q29 -59 83 -99.5t136 -70.5q43 -14 107.5 -21.5t135 -7.5t140 5 t126 17.5t91.5 29t35 38.5q32 46 32 89q0 12 -2 24q-12 54 -104 90q-128 -21 -225 -21q-62 1 -110 9q-124 22 -175 78q-41 45 -41 102q0 14 2 28q12 76 73.5 147t164 124t229.5 63l14 95q-65 11 -126 11q-64 0 -122 -12q-116 -24 -208 -78.5t-158 -132t-100 -164.5 q-36 -89 -36 -181z" />
<glyph unicode="d" d="M12 596q27 115 90.5 199t149.5 133q86 50 190 66q46 7 94 7q60 0 121 -12q8 59 14.5 105.5t8.5 91.5t2 95t-2 118q35 23 80 29q28 4 58 4q17 0 34 -2q47 -4 92 -13.5t78 -19.5q-14 -137 -17.5 -290t-4.5 -311.5t-6 -319.5t-23 -314q-96 -76 -211 -116q-116 -40 -228 -42 h-12q-106 0 -202 33q-102 35 -177 109q-75 72 -112 184q-24 72 -24 163q0 49 7 103zM56 378q16 -93 77 -167q57 -72 158.5 -113t215.5 -45h23q102 0 202 31q110 35 190 117q12 156 14 293t3 272t6.5 277.5t23.5 308.5q-20 14 -53 21t-70 8h-18q-27 0 -53 -2q-34 -3 -58 -9 q3 -64 3 -112q0 -24 -1 -44q-2 -60 -8 -104.5t-15.5 -84.5t-21.5 -97q-82 29 -157 29q-31 1 -63 -5q-104 -18 -184 -72.5t-134 -138.5t-74 -177q-12 -53 -12 -106q-1 -40 6 -80zM210 453v15q0 38 4 76q5 46 14.5 89t19.5 72q18 33 50 59.5t66.5 44.5t68 28.5t56.5 12.5 q19 2 39 2q30 0 62 -4q54 -6 86 -29q39 -29 63.5 -91t33.5 -135q5 -44 5 -86q0 -29 -2 -57q-6 -70 -31 -112q-23 -45 -65 -74q-42 -28 -96 -42q-44 -11 -90 -11q-10 0 -21 1q-57 3 -107.5 21.5t-90 53.5t-56.5 86q-8 35 -9 80zM255 446q7 -62 40 -108t93 -70q40 -16 93 -16 q26 0 56 4q74 14 116.5 51t63 87t20.5 107.5t-14 111t-37.5 98.5t-50.5 71q-62 32 -116 32q-9 0 -17 -1q-62 -6 -110 -40t-82 -89q-34 -56 -48 -116q-9 -40 -9 -81q0 -21 2 -41z" />
<glyph unicode="e" d="M11 509q3 34 11.5 66.5t17.5 64.5t17 67h-6q-10 2 -2 4t8 -4q33 100 108 153t183 96q72 26 136 48q41 14 93 14q29 0 60 -4q92 -12 170 -67.5t135 -132.5t88 -164q27 -77 28 -147q0 -9 -1 -18q-49 -39 -141 -52q-90 -13 -196 -15q-42 -1 -85 -1q-63 0 -129 2q-36 1 -70 1 q-66 0 -121 -4q-8 -17 -9 -35q0 -16 8 -32q14 -34 34 -50q37 -33 108.5 -49.5t152.5 -20.5q34 -2 68 -2q46 -1 92 3q79 6 132 16q10 -4 13.5 -10.5t5.5 -9.5t4 -2t10 9q4 -23 10 -39t10 -33.5t5.5 -36t-5.5 -44.5q-18 4 -26 16.5t-11.5 28.5t-2.5 34.5t-1 35.5 q-53 -9 -125 -15q-41 -3 -83 -4q-31 0 -63 2q-75 4 -146.5 19.5t-125.5 49.5q-52 34 -80 88q-18 36 -19 82q0 24 5 50q106 0 195.5 -5t173.5 -5t170 9t189 38q1 14 1 28q0 78 -29 158q-34 94 -98.5 164t-157.5 104q-55 20 -116 21q-43 0 -88 -10q-76 -16 -143.5 -50 t-141.5 -61q-78 -68 -115.5 -158t-38.5 -187v-6q-1 -93 29 -187q30 -96 91 -179q47 -27 105 -51t125 -39.5t141 -16.5q4 0 7 -1q70 0 146 20q31 8 60.5 17.5t59 14.5t56.5 3t49 -20q-63 -31 -147 -48q-83 -16 -175 -19q-17 -1 -34 -1q-75 0 -152 12q-94 14 -176 41 q-39 14 -66.5 37t-49 51.5t-41 61.5t-42.5 63q6 27 0 46.5t-16 39t-20.5 40t-14.5 48.5q-2 20 -2 40q0 14 1 29zM296 679q16 48 75 86q59 37 139 61q74 22 131 22h10v-21q7 1 14 1q29 0 54 -20q31 -26 56.5 -61.5t48 -73.5t46.5 -59q-18 -12 -42.5 -18t-51 -7t-54.5 -2 t-52 -5q-66 -10 -115 -18q-27 -4 -54 -4q-21 0 -42 3q-12 2 -22.5 6t-23 8.5t-27.5 6.5t-38 -2q-55 40 -55 79q0 9 3 18zM322 633q56 -11 116 -13q25 -1 50 -1q36 1 72 3q62 4 120.5 11.5t112.5 19.5q-29 47 -57 83t-85 61q-111 -18 -196.5 -55t-132.5 -109z" />
<glyph unicode="f" horiz-adv-x="704" d="M7 641q1 37 15.5 68.5t43.5 52.5q16 -4 27 -7t22.5 -5t25 -2t33.5 4q-17 80 -17 153q0 61 12 118q26 124 88 214t152.5 141.5t189.5 55.5h15q92 0 184 -44q101 -48 181 -157q-8 -8 -23.5 -19.5t-31 -25.5t-27.5 -32.5t-16 -43.5q-66 59 -129 76q-31 8 -60.5 8t-56.5 -8 q-55 -17 -100.5 -60t-75 -103t-43.5 -134q-7 -41 -7 -82q0 -34 5 -68q8 -4 28.5 -6t46 -4t52 -5t47.5 -7q25 -49 33 -113q4 -31 4 -57.5t-4 -46.5q-29 -8 -50.5 -8t-42 4t-40 12t-44.5 16q0 -106 1 -246.5t3.5 -283.5t6.5 -273.5t12 -216.5q-20 6 -42 1t-46.5 -10t-54.5 -6 h-3q-28 0 -63 15q-20 82 -26.5 212t-8.5 272.5t-5 276.5t-15 225q-8 4 -25.5 5t-39 1h-44t-39.5 4q-25 29 -37 66q-11 33 -11 67v6zM58 634.5q-1 -24.5 7.5 -48t24.5 -41.5q59 0 93 -1t67 -9q-10 -40 -10 -122v-29q2 -103 11 -240.5t19.5 -296t12.5 -318.5q12 0 32.5 2t43 3 t43 3t32.5 2q-8 111 -17 247t-13 276q-3 64 -3 125q0 76 3 149q6 133 26 235q20 -4 34.5 -11t30 -13t35 -9t48.5 1q9 24 9 44q0 15 -5 29q-11 31 -11 72q-31 8 -56.5 9t-48 2t-45 5.5t-46.5 22.5q-4 39 -4 77q0 50 7 97q13 84 46 152.5t82 116.5t108 68q33 10 68 10 q29 0 58 -7q67 -16 137 -78q-4 20 4 29.5t19 14.5t23.5 10.5t16.5 17.5q-96 102 -196 138q-68 25 -132 25q-30 0 -59 -6q-92 -16 -168 -79.5t-122 -155.5t-55 -209q-2 -20 -2 -42q0 -96 34 -197q-20 12 -42 15t-42.5 2t-38 -2t-29.5 3q-14 -16 -21.5 -40t-8.5 -48.5z" />
<glyph unicode="g" horiz-adv-x="970" d="M2 -369.5q0 29.5 6 56t14.5 48t12.5 38.5q37 6 74 6q22 0 45 -2q59 -6 118 -9q17 -1 32 -1q43 0 85 7q57 9 113 52q94 72 127 138.5t35 127.5v16q0 53 -11.5 100t-11.5 89v12q-72 -27 -169 -33q-25 -2 -49 -2q-72 0 -141 14q-92 17 -164.5 58t-94.5 107q-14 34 -14 75 q0 35 11 76q23 88 75 172t122 149.5t131 86.5q45 15 97 15q29 0 59 -5q86 -12 163.5 -59.5t134 -127t64.5 -192.5q6 -76 12.5 -118t10.5 -68.5t6 -46t0 -49t-8 -81t-19 -139.5q-18 -96 -61 -194.5t-103.5 -186.5t-138.5 -155.5t-166 -98.5q-64 -23 -133 -23q-26 0 -54 3 q-98 12 -200 84q-10 31 -10 60.5zM45 -403q88 -68 178 -79q22 -2 44 -2q67 0 130 24q84 32 158 97.5t132 152.5t97.5 187.5t51.5 200.5q10 86 14 132t4 71t-4 38t-10 33.5t-13.5 58.5t-11.5 112q-4 35 -12 71.5t-18.5 70.5t-21.5 59.5t-24 35.5q-8 8 -31.5 23.5t-54 34 t-62.5 34t-54 23.5q-39 12 -77 12q-8 0 -16 -1q-47 -3 -89 -19.5t-77.5 -42t-62.5 -56.5q-27 -27 -57.5 -62.5t-55 -77.5t-41 -88t-16.5 -91q0 -90 60.5 -147.5t152.5 -83.5q68 -18 146 -18q27 0 56 2q109 9 210 56q2 -86 9 -143t11 -98q3 -27 3 -51q0 -11 -1 -22 q-2 -32 -16 -65.5t-46 -74.5t-85 -101q-51 -55 -125 -69q-53 -9 -104 -9q-21 0 -42 1q-71 6 -126 18q-42 9 -59 9q-6 0 -9 -1q-23 -23 -29 -65.5t-6 -89.5zM152 553q0 27 21.5 72t54 89t72.5 76.5t77 36.5q31 2 52.5 -2t39.5 -10t39.5 -11t52.5 -5q45 -35 71 -91 q26 -59 26 -123q0 -59 -26 -113q-26 -56 -83 -91q-53 -10 -108 -10q-14 0 -27 1q-70 3 -128.5 22.5t-96 58.5t-37.5 100zM205 532q10 -43 46 -70.5t83 -41.5q41 -12 86 -12h13q52 2 95 20t70 54q25 34 25 84v7q0 23 -6.5 51.5t-14.5 56.5t-19.5 48.5t-23.5 28.5 q-14 6 -34.5 3t-37.5 7q-23 6 -37 10t-24 6t-20.5 1t-24.5 -5q-23 -6 -54.5 -34.5t-60 -65.5t-46.5 -77q-16 -33 -16 -60q0 -5 1 -11z" />
<glyph unicode="h" horiz-adv-x="755" d="M10 1409q10 4 29.5 10t48.5 10.5t63.5 4.5t75.5 -11q10 -33 18.5 -90t13.5 -127.5t9 -148.5t7.5 -150.5t5.5 -133t6 -95.5q89 51 163 82q63 26 112 26h18q56 -6 86 -55q29 -46 28 -145v-13q0 -6 1 -48t3 -102.5t4.5 -130t3.5 -130t1 -102.5v-48q-34 -12 -72 -12 q-11 0 -23 1q-50 5 -86 28q0 8 -1 36.5t-4 61.5t-6 60.5t-3 35.5q-6 82 -37 126t-65 49q-4 1 -9 1q-30 1 -55 -33q-29 -38 -31 -122q0 -10 -1 -43t-2 -72t-2 -72.5t1 -46.5q-12 1 -26 1q-21 0 -45.5 -2t-46.5 -2q-15 0 -30 1q-36 2 -60.5 13.5t-22.5 46.5l2 532 q0 113 -4 216.5t-13.5 201.5t-22.5 194.5t-32 196.5zM41 1382q33 -98 47 -187t20.5 -178t7.5 -183.5t5 -200.5v-47v-103.5v-132v-132v-103.5v-47q4 -14 21.5 -22.5t39 -11.5t45 -2t41.5 5q0 4 2 31.5t3 59.5t3.5 59.5t2.5 31.5q6 119 43.5 177.5t84 58.5t87.5 -58.5 t53 -175.5q0 -6 3 -30.5t6 -53t6 -54.5t3 -32q8 -2 24.5 -5t34 -5t33 -3t21.5 -1l-21 549q-11 102 -43 136q-27 28 -66 28q-10 0 -18 -2q-52 -8 -119 -43t-147 -72q-16 49 -20 145t-6 208t-8.5 221.5t-24.5 185.5q-41 12 -73 12t-91 -23z" />
<glyph unicode="i" horiz-adv-x="460" d="M12 1302q-9 25 -8 51q0 33 14 69q26 62 119 104q40 12 76.5 12t68.5 -12q66 -23 109 -69q43 -47 59 -105q8 -28 9 -54q1 -28 -9 -53q-18 -49 -72 -79q-39 -22 -101 -22q-24 0 -52 3q-78 10 -135.5 53.5t-77.5 101.5zM61 1374q-6 -17 -6 -34q-1 -20 9 -42q18 -38 54 -66 t84 -42q32 -9 62 -9q15 0 30 2q44 7 78 38.5t44 97.5q1 6 1 12q1 33 -19 61q-22 34 -59.5 60.5t-81.5 37.5q-27 7 -53 7q-16 0 -32 -3q-41 -7 -72 -36t-39 -84zM66 928q20 -6 55 -4t79 4t95 4h26q39 0 80 -4q-4 -98 -4 -180q0 -41 1 -77q2 -109 6 -209q2 -58 3 -119 q1 -43 -1 -87q-2 -106 -19 -250q-43 10 -80 12q-18 1 -36 1q-17 0 -35 -1q-34 -2 -69 -3h-10q-30 0 -63 5q-16 115 -18 232q-1 78 -1 155v77q1 116 1 228t-10 216zM102 887q27 -67 28 -171v-35q0 -89 -4 -185q-5 -116 -7 -233v-23q0 -102 16 -181q6 0 37 -1t69 -2t72.5 -2 t44.5 -1q0 125 -5 226.5t-8 196.5q-2 71 -2 146v50q1 100 11 227q-16 -2 -51 0t-75 4q-16 1 -31 1q-23 0 -45 -2q-36 -3 -50 -15z" />
<glyph unicode="j" horiz-adv-x="884" d="M8 -416q6 33 13.5 73t39.5 54q12 -6 14.5 -22.5t-0.5 -33.5t-10.5 -34.5t-9.5 -26.5q55 -61 141 -69q21 -2 42 -2q64 0 129 19q86 24 158.5 73t103.5 104q47 147 61 321q9 98 9 194q0 77 -5 153q-12 172 -46 327.5t-83 270.5q-10 -4 -27.5 -1t-39 6t-45 6t-43.5 1 q-2 -40 -2 -81q0 -61 5 -124q9 -106 21 -214.5t20 -221.5q2 -43 2 -86q0 -69 -7 -139q-16 -135 -19.5 -237.5t-31 -161t-100.5 -64.5q-6 -1 -14 -1q-72 0 -212 57q35 0 70.5 -10.5t71.5 -15.5q16 -2 32 -2q20 0 38 3q35 6 68 39q45 162 52 335q2 66 2 132q0 105 -6 209 q-11 168 -26 324q-9 104 -9 197q0 45 2 87q59 8 117 10h8q55 0 110 -22q49 -109 82 -261.5t45 -319.5q7 -95 7 -191q0 -71 -4 -143q-9 -167 -42 -302q-25 -102 -102.5 -175t-177.5 -104q-68 -22 -138 -22q-35 0 -70 6q-108 15 -194 86zM262 1302q-8 26 -8 51q0 34 14 69 q27 61 119 104q40 12 76.5 12t68.5 -12q66 -23 109 -69t59 -105q9 -28 9 -54q0 -28 -9 -53q-18 -49 -72 -79q-40 -22 -101 -22q-24 0 -52 3q-78 10 -135 54t-78 101zM311 1374q-6 -17 -6 -34q0 -22 9 -42q18 -38 53.5 -66t84.5 -42q32 -9 62 -9q15 0 30 2q44 7 77.5 38.5 t44.5 97.5q1 6 1 12q0 32 -19 61q-23 35 -60 61t-81 37q-27 7 -53 7q-16 0 -32 -3q-41 -7 -72 -36t-39 -84z" />
<glyph unicode="k" horiz-adv-x="899" d="M-2 1434q33 -8 72 -10t81 -3.5t82.5 -5.5t77.5 -18q0 -76 -1 -138.5t-1 -119t2 -109.5t8 -108q59 63 92 112t63 92t69 85t110 96q27 0 55.5 -8.5t57.5 -18.5t57.5 -20.5t57.5 -12.5q-66 -74 -108 -135t-80 -117.5t-79 -110t-104 -106.5q63 -68 110.5 -167t87.5 -201.5 t79.5 -195.5t93.5 -151q-18 -20 -46 -27t-57.5 -9t-58.5 0t-53 2q-41 57 -78 132t-69 153.5t-59.5 158.5t-49.5 148q-23 4 -52.5 -5.5t-53.5 -13.5q0 -53 -5.5 -122.5t-10.5 -146.5t-6 -153v-14q0 -68 9 -123q-66 -25 -120 -25t-124 17q-10 193 -11 370t-2 347t-8.5 338 t-27.5 344zM35 1405q14 -158 22.5 -325t12 -338t4 -343t0.5 -336q6 -12 24.5 -18t43 -6t51 4t49.5 10q0 82 5 158t10 147.5t7 139.5v33q0 50 -4 100q31 4 56.5 9t48 7t45 -1t49.5 -13q12 -74 29.5 -140.5t44 -134t63.5 -141.5t88 -162q12 0 35.5 1t48.5 4t46.5 7.5 t29.5 12.5q-61 63 -104.5 161.5t-82.5 202t-84 195.5t-110 141q66 45 106.5 93.5t75.5 101.5t75 114.5t105 135.5q-16 8 -38.5 17t-47 17.5t-46 13.5t-36.5 5q-59 -49 -109 -112.5t-94 -124t-81 -106.5t-69 -61q-16 -8 -25 16t-12 70q-2 34 -2 75v28q1 57 3 115.5t5 111.5 t3 88h-53t-64 2t-67 8.5t-57 16.5z" />
<glyph unicode="l" horiz-adv-x="374" d="M8 1411q26 15 60 17q12 1 25 0q22 0 46 -2q37 -4 77 -9q20 -2 40 -2t39 2q-11 -180 -11 -337v-26q1 -168 7 -334.5t16 -338.5t19 -375q-31 6 -57 6h-13q-31 -2 -60.5 -5t-60.5 -3t-69 12q-4 168 -5.5 345.5t-5.5 356.5t-14 354t-33 339zM51 1395q8 -152 19.5 -320 t20.5 -342t15 -348q4 -128 4 -250q0 -44 -1 -88q29 -5 57 -5q18 0 35 2q45 5 86 5q-20 186 -28.5 361.5t-9.5 339.5q0 82 -1 162q0 82 1 160v103q0 103 -1 203q-23 -8 -49.5 -5t-52 9.5t-50 11.5t-45.5 1z" />
<glyph unicode="m" horiz-adv-x="1927" d="M2 973q63 33 136 43q36 5 73 5t74 -5q23 -41 42 -75t42 -69q74 33 160.5 55.5t172.5 24.5h15q78 0 150 -18q79 -20 139 -74q74 33 162 60q86 26 178 38q54 7 109 8q37 0 73 -4q90 -8 170 -44q100 -49 146 -150.5t60 -229.5q9 -84 8 -173q0 -45 -2 -93q-7 -138 -14 -260 q-25 -2 -47 -2q-79 0 -131 27q-67 35 -107 100.5t-59.5 151.5t-35.5 176q-38 12 -75 12q-43 0 -82 -17q-73 -32 -123 -96.5t-74 -151.5q-17 -62 -18 -123q0 -25 3 -50q-37 -10 -74 -20.5t-73 -12.5h-10q-32 0 -65 12q-38 14 -75 50q-6 70 -11 142.5t-23.5 131.5t-56.5 98 t-108 39q-74 0 -119 -47t-70.5 -115.5t-38.5 -148.5t-26 -143q-53 -11 -92 -15q-15 -2 -30 -1q-23 0 -43 4q-34 7 -68.5 26.5t-77.5 56.5q-10 225 -26.5 454.5t-57.5 422.5zM39 948q37 -96 52 -194.5t20.5 -203t9.5 -213.5t20 -226q8 -10 33 -24.5t57.5 -25t66.5 -12.5 t60 12q0 154 44 259.5t108.5 160t137.5 57.5h8q68 0 124 -46q58 -50 90 -151q21 -65 21 -153q0 -49 -6 -104q16 -14 46 -22q29 -9 63 -12q14 -1 29 -1q19 0 38 2q33 4 55 17q-19 45 -19 94q1 24 5 50q14 76 55 141t101 115q58 50 120 68q28 8 56 8q31 0 60 -12 q54 -20 85 -96q10 -27 16.5 -62.5t15.5 -80.5t27.5 -95.5t55.5 -105.5q20 -6 41.5 -19.5t43 -23.5t43 -12t40.5 14q-1 60 -1 124v65v35q1 80 -3 156q-4 93 -18.5 178t-50.5 150.5t-96.5 108.5t-156.5 52q-45 4 -87 4q-101 0 -191 -23q-128 -33 -244 -104q-80 63 -155 89 q-75 28 -141 30h-18q-56 0 -105 -14q-58 -16 -107.5 -34t-87.5 -34q-30 -12 -53 -12q-6 0 -11 1q0 20 -12.5 41t-26.5 42.5t-26.5 43t-12.5 43.5q-16 -6 -48 -10t-66.5 -8t-64.5 -10.5t-40 -16.5z" />
<glyph unicode="n" horiz-adv-x="1009" d="M4 1004q48 14 102 16h26q37 0 63 -4q12 -2 23 -13.5t18.5 -40t10.5 -77.5q1 -21 2 -47q0 -35 -3 -80q57 27 132 48q76 22 152 30q41 5 79 4q34 0 68 -4q71 -8 120 -35q98 -59 140 -155q42 -98 50 -208q3 -40 3 -80q0 -71 -9 -145q-14 -115 -27 -209q-59 4 -104 9l-90 10 q-18 57 -30.5 132.5t-37 142.5t-67.5 109q-33 32 -87 32q-17 0 -36 -3q-63 -4 -101.5 -50t-64 -108.5t-43 -132t-37.5 -120.5q-29 2 -46 2t-29.5 -1t-26 -4.5t-33.5 -9.5q-37 139 -52.5 263t-23.5 243t-15 237.5t-26 248.5zM45 981q16 -123 24.5 -239.5t15.5 -230.5 t19.5 -226.5t34.5 -229.5l80 21q27 53 46.5 119.5t45 127t66.5 105.5t110 55q22 4 43 4q48 -1 84 -23q52 -32 85.5 -93.5t52 -144.5t26.5 -169q35 -6 75 -8t77 -16q4 90 12 174t8 164t-15 155.5t-58 147.5q-37 61 -116 93t-173 34h-13q-87 1 -179 -25q-98 -28 -175 -86 q-13 36 -13 72v5q1 38 3 76q1 10 1 19q0 28 -5 54q-6 36 -33 69q-25 -2 -42 -1t-31.5 2t-27 1t-28.5 -6z" />
<glyph unicode="o" horiz-adv-x="1083" d="M16 597q18 99 68.5 183t122.5 140t162 82q58 16 120 17q34 0 68 -5h10q178 0 296 -72q122 -74 170 -194q29 -73 29 -157q0 -55 -12 -113q-30 -150 -153 -302q-57 -72 -159 -117t-216 -53q-21 -1 -42 -1q-93 0 -185 28q-113 35 -193 127q-66 114 -85 226q-10 56 -10 110 q0 52 9 101zM73 412q5 -82 30.5 -150.5t70.5 -107.5q70 -59 158 -86q79 -24 160 -24h18q90 3 174 37t147 93q99 92 143 196q41 96 40 189v17q-4 100 -52.5 186t-134.5 141q-87 55 -205 71q-35 5 -72 5q-89 0 -190 -27q-78 -23 -135 -79t-93 -131.5t-50 -161.5 q-10 -63 -11 -125q1 -21 2 -43zM189 544q6 84 48 145t111 99q70 38 144 48q26 4 50 3q48 -1 92 -13q68 -20 109 -72t43 -142v-6q0 -88 -55 -213q-31 -31 -101 -61q-70 -32 -146 -44q-37 -6 -72 -6q-38 0 -75 8q-71 14 -101 72q-48 88 -48 164q0 10 1 18zM303 350 q29 -31 91 -36q17 -1 33 -2q45 0 93 10q66 14 120 43.5t69 66.5q35 88 35 154v21q-6 73 -44 117t-96 60q-37 10 -76 11q-22 1 -44 -3q-62 -10 -118 -44q-54 -34 -86 -90q-31 -55 -31 -129q0 -81 54 -179z" />
<glyph unicode="p" horiz-adv-x="1040" d="M18 -391q14 137 17.5 289.5t4.5 311.5t6 319.5t24 314.5q96 76 210.5 115.5t227.5 42.5h15q105 0 200 -33q102 -35 177 -109t111 -186q24 -74 24 -164q0 -48 -7 -100q-27 -115 -90.5 -199t-149.5 -133t-190 -66q-47 -7 -95 -7q-59 0 -120 11q-10 -59 -15.5 -105t-7.5 -91 t-2 -95t2 -118q-35 -23 -80 -29q-29 -4 -60 -4q-16 0 -32 1q-47 3 -92 13.5t-78 20.5zM72 -346q20 -14 53 -21.5t69 -8.5h19q27 0 52 2q34 3 59 9q-3 63 -3 110q0 24 1 45q2 60 8 105.5t15 85t22 97.5q82 -29 157 -29q32 0 63 5q103 18 183 72t134 138t74 178q12 52 12 104 q0 41 -7 82q-16 93 -76 167q-59 72 -159.5 112.5t-213.5 44.5h-24q-101 0 -200 -30q-111 -35 -191 -117q-12 -158 -14.5 -294t-3.5 -271.5t-6 -277.5t-23 -308zM264 555q6 70 31 113q23 45 65.5 73.5t95.5 42.5q44 11 91 11q10 0 21 -1q57 -3 107 -21.5t90 -53.5t56 -86 q8 -35 9 -81v-15q0 -39 -4 -77q-5 -46 -14 -88t-19 -71q-18 -35 -50 -60.5t-67 -44t-68.5 -28.5t-56.5 -12q-19 -2 -39 -2q-30 0 -62 4q-55 6 -85 28q-39 29 -64 91.5t-34 134.5q-5 44 -5 87q0 28 2 56zM303 503.5q0 -57.5 14.5 -110.5t38 -98t50.5 -72q61 -31 115 -31h18 q61 7 109 40.5t82 89t48 116.5q10 39 10 80q0 21 -2 42q-8 61 -40.5 107t-91.5 71q-40 16 -94 16q-26 0 -56 -4q-74 -14 -117 -51t-63.5 -87.5t-20.5 -108z" />
<glyph unicode="q" horiz-adv-x="1148" d="M14 410q-9 42 -9 85q0 47 11 94q19 89 84 161q68 74 123.5 130t119 92t143.5 49q42 7 95 7q48 0 105 -6q63 -18 127 -44t120 -69t100 -106.5t71 -155.5q10 -34 10 -78q0 -18 -2 -39q-6 -67 -29.5 -136.5t-63.5 -131t-93 -98.5q39 -63 88 -109.5t72 -89.5q13 -23 13 -48 q0 -21 -9 -42q-19 -47 -113 -111q-70 4 -120 30t-89 65t-69.5 84t-59.5 86q-75 -18 -143 -18q-47 0 -90 9q-107 21 -188 78.5t-134 139t-70 172.5zM50 456q9 -87 48 -160t103.5 -127t141.5 -84t163 -32h10q81 0 158 31q8 -27 29.5 -65.5t50 -77.5t63.5 -73t70 -52 q32 -17 62 -17h7q33 2 60 37q39 47 41 81t-16.5 60.5t-49 49t-58.5 45t-45 50.5q-11 17 -11 37q0 13 4 27q43 29 81.5 88.5t64.5 129t35 140.5q3 24 3 45q0 43 -12 77q-4 41 -43 93t-95.5 100t-122 82t-122.5 38q-30 2 -58 2q-85 0 -151 -19q-88 -24 -155.5 -72t-122 -113.5 t-109.5 -139.5q-26 -74 -26 -143q0 -19 2 -38zM272 513q15 48 48.5 90t85 75t109.5 48q43 11 88 11q15 0 29 -1q60 -5 113 -38q23 -12 43.5 -42.5t36 -66.5t23.5 -73t4 -63q-10 -55 -50 -95.5t-96.5 -63t-123.5 -27.5q-17 -1 -33 -1q-49 0 -95 10q-61 15 -109 50t-71 94 q-8 24 -8 48q0 22 6 45zM301 446q12 -43 49 -70.5t85 -40.5t103 -15h16q47 0 90 8q50 10 88 27t54 42q20 31 22 66q1 8 1 17q0 26 -6 50q-8 33 -21.5 62t-23.5 47q-10 20 -48 33.5t-84 17.5q-18 2 -37 2q-27 0 -55 -4q-45 -6 -71 -24q-70 -47 -112 -104.5t-50 -113.5z" />
<glyph unicode="r" horiz-adv-x="987" d="M6 889q139 33 242.5 53.5t207 31.5t224.5 13q60 1 134 1t161 -1q6 -34 7 -69q0 -22 -3 -42q-6 -56 -16 -110q-28 -8 -52 -8q-7 0 -14 1q-29 3 -51.5 10t-42 14.5t-37.5 7.5q-102 0 -168 -35t-104.5 -93.5t-58 -133t-26 -154.5t-7.5 -160t-3 -147q-29 -23 -77 -40.5 t-101 -21.5q-15 -1 -29 -1q-38 -1 -73 7q-49 10 -76 41q-25 78 -29 153q-2 38 -2 74q0 38 2 74q4 72 14 142q11 68 15 136q1 25 1 49q0 43 -4 83q-7 64 -34 125zM49 862q42 -90 42 -177q-1 -85 -15 -187q-14 -94 -20 -199q-1 -19 -1 -39q0 -87 25 -186q61 -32 132 -32h4 q73 1 153 48q-5 82 -9 170q-1 26 -2 51q0 61 6 120q8 83 32 157t71 127t122 83q62 25 149 24q18 0 36 -1q37 -2 74 -16t84 -25q10 25 18 52.5t9.5 52t-5 42t-24.5 17.5q-77 6 -163 6h-44q-111 -2 -225.5 -13t-229.5 -30.5t-219 -44.5z" />
<glyph unicode="s" horiz-adv-x="710" d="M11 156.5q-3 27.5 8.5 57.5t32 60.5t38.5 59.5q47 -14 104 -34q56 -18 110 -28q28 -5 55 -5q23 -1 45 3q46 8 69 45q-33 41 -79 74t-97 63.5t-101.5 63.5t-87 74t-56.5 95q-14 36 -14 81q0 22 3 45q10 57 62.5 89t123 51.5t149.5 32.5t140 32q70 -41 79 -86q2 -8 2 -17 q0 -36 -32 -68q-39 -40 -117.5 -68.5t-183.5 -35.5q-4 -8 3.5 -30t21.5 -47q51 -25 110.5 -43.5t112.5 -41t97 -53t69 -80.5q39 -78 39 -144q0 -14 -2 -28q-10 -78 -58.5 -137t-124 -94t-162.5 -41q-17 -1 -34 -1l-140 19q-87 24 -157 86q-25 23 -28 50.5zM57 154 q66 -53 144 -78q72 -23 143 -23h12q76 2 143.5 26.5t111.5 72.5q43 46 57 114q4 20 5 43q0 51 -22 109q-66 78 -163 128t-214 68q-29 37 -33.5 75t-15.5 77q-6 6 9.5 8t44 3t66.5 5t77 16.5t76 34t63 60.5q-8 45 -53 59q-29 9 -65 8q-19 0 -41 -2q-62 -8 -128.5 -30.5 t-118 -48t-76 -47t-1.5 -29.5q-3 -19 -3 -37q-1 -43 17 -78q24 -49 68.5 -90t100.5 -77t109.5 -71.5t96.5 -74.5t59 -88q-39 -31 -94 -45q-51 -13 -105 -12h-9q-58 1 -113 16.5t-99 42.5q-10 -10 -16 -26.5t-12 -36t-11.5 -39t-9.5 -33.5z" />
<glyph unicode="t" horiz-adv-x="684" d="M23 1078q4 38 4 87q29 6 52 6t44.5 -2t46.5 -4t57 0q-6 31 -7 67v18q0 28 2 52q3 34 6 66.5t3 56.5q27 8 47.5 5t36 -9t27.5 -11t25 -1h16q4 -49 5 -76.5t0 -49t-3 -44t-6 -61.5q18 -6 68.5 -9.5t109.5 -7.5q5 -48 5 -85q0 -19 -1 -35q-1 -11 -1 -21q0 -35 11 -62 q-33 -22 -80 -22h-6q-51 2 -102 2q1 -24 1 -52q0 -41 -2 -87q-3 -78 -4 -159v-23q0 -69 5 -139q6 -81 29.5 -147.5t68.5 -114.5t119 -66q8 -29 1 -59t-7 -52q-59 -14 -108 -14q-58 0 -102 20q-81 37 -128 116t-64.5 188.5t-17.5 222t10.5 218t20.5 177.5q-14 -4 -43 -3 t-57.5 3t-52 6t-27.5 8q-4 35 -4 63q0 19 2 34zM53 1006q43 -16 89 -19t104 -4q-12 -49 -24.5 -141t-14.5 -201v-29q0 -96 11 -192q13 -112 52 -199.5t109 -136.5q53 -37 128 -37q25 0 52 4q18 29 15 55.5t-25 26.5h-5q-68 -1 -112 51q-45 54 -68 136q-24 84 -31 186 q-6 90 -6 174v24q1 96 8 175t11 116q14 -10 38 -16t50.5 -8t54 1t48.5 9q-6 14 -4 59t2 86q-20 8 -51 8.5t-62 2.5t-55.5 9t-30.5 30v60.5t1 47t2 45t5 53.5q-23 8 -39 14.5t-45 6.5q-6 -57 -6 -111q0 -20 1 -40q1 -24 1 -45q0 -42 -4 -70h-189q0 -49 -5 -73t-5 -58z" />
<glyph unicode="u" horiz-adv-x="1030" d="M7 756q3 118 26 227q57 -10 110.5 -14t92.5 -27q-2 -31 -2 -69q0 -28 1 -60q3 -74 14 -151.5t31.5 -150.5t53.5 -126t79 -79q26 -14 56 -14q24 0 51 9q41 8 69.5 50t49 103.5t34 135.5t26 148.5t23.5 142t28 114.5q29 18 59.5 21.5t62 -0.5t64 -13.5t65.5 -13.5 q-6 -63 -10 -155.5t-15 -194.5t-33.5 -205.5t-67 -189.5t-112 -143.5t-167.5 -69.5q-38 -4 -73 -4q-83 -1 -153 23q-98 34 -168.5 103.5t-114.5 166.5q-43 98 -63 208q-17 96 -17 197v31zM54 626q18 -160 84 -288q68 -129 174 -208q101 -75 224 -75h13q92 2 157.5 52.5 t110.5 128t71.5 177t42 201t21.5 196.5t11 165q-10 0 -27.5 6t-40.5 11t-49 4t-55 -15q-31 -41 -43.5 -98.5t-19.5 -123t-12 -135t-22.5 -135t-50.5 -123t-94 -96.5q-47 -30 -87 -30q-14 0 -28 4q-52 14 -92.5 65t-70 130t-49.5 165q-18 86 -28 171q-8 70 -8 126v23 q2 2 -9 8t-28.5 11t-38 7t-32.5 -4q-30 -112 -30 -224q0 -48 6 -96z" />
<glyph unicode="v" horiz-adv-x="1273" d="M6 1010q22 8 58 10q10 1 21 1q26 0 53 -4q38 -5 73 -16.5t57 -25.5q43 -29 84 -94.5t78 -142t68.5 -149.5t56.5 -116q25 10 59.5 54t75.5 104.5t85 128t90 124t90 93.5t85 37q18 0 51 -19.5t69 -46t65.5 -52.5t42.5 -38q-90 -98 -173 -217t-170 -236.5t-185.5 -225 t-219.5 -183.5q-63 31 -100 85t-63.5 119.5t-48 139.5t-52.5 145q-27 63 -62.5 128t-72.5 130.5t-69 132t-46 134.5zM49 985q16 -47 45 -106.5t64 -121t69.5 -122t63.5 -109.5q29 -57 47 -121.5t38.5 -129t51.5 -125t84 -107.5q98 76 190.5 179.5t179.5 216t171 225 t164 206.5q-35 14 -57.5 32t-41 33t-35 26.5t-34.5 13.5q-16 10 -47 -14.5t-72 -72.5t-89 -111.5t-97.5 -130t-97.5 -129t-87 -107.5q-82 152 -157.5 276.5t-137.5 253.5q-14 4 -46 13.5t-66.5 18.5t-64.5 13t-38 0z" />
<glyph unicode="w" horiz-adv-x="2146" d="M-2 936q45 10 85 25.5t79 30t80 21.5q19 3 40 3q23 0 48 -4q33 -102 84 -192.5t112.5 -165t127 -135t126.5 -99.5q49 6 85 35.5t66 68.5t55.5 83t53.5 79q29 36 63 56q28 17 65 16h14q41 -2 73.5 -34t62.5 -77t58.5 -92t59.5 -80q68 39 104.5 109.5t59 147.5t40 146.5 t46.5 108.5q76 -23 131 -23h2q55 0 103 6.5t97 10.5q10 1 20 1q42 0 95 -13q-47 -131 -88 -261t-90 -252t-112.5 -232.5t-151.5 -205.5q-49 -11 -97 -11q-31 1 -62 5q-79 12 -151.5 44t-133 83t-99.5 113q-98 -164 -214 -215q-73 -32 -147 -32q-44 -1 -90 11 q-120 30 -236 127t-211 227t-163 279.5t-90 286.5zM45 901q6 -39 38 -115.5t82 -171t116.5 -193.5t146.5 -181t170 -135.5t184 -55.5h8q76 0 132 37q60 39 102.5 89t72 97t48.5 64q25 -55 80 -111.5t122.5 -99.5t140.5 -67q55 -18 102 -19q15 0 30 2q94 72 161.5 175 t118 224t88 252t74.5 256q-16 -12 -65 -22.5t-107 -13.5q-18 -1 -36 -1q-38 1 -76 5q-56 6 -84 26q-10 -59 -22.5 -123.5t-37 -131t-66.5 -133.5t-112 -130q-59 25 -98 78t-72 105q-32 52 -62 86q-19 22 -44 22q-13 0 -27 -6q-5 2 -10 2q-21 0 -45 -32q-32 -40 -75.5 -99.5 t-103 -122t-135.5 -92.5q-92 55 -162.5 120.5t-128 142.5t-105.5 165t-97 188q-10 -12 -46 -21.5t-77 -18.5t-77 -18.5t-46 -21.5z" />
<glyph unicode="x" horiz-adv-x="1107" d="M-20 856q16 12 32.5 32.5t31.5 43t31.5 44t33.5 34.5q23 -18 18.5 -40t-23 -43.5t-41 -42t-36.5 -34.5q-18 6 -8 -6.5t39.5 -37t74.5 -58t97.5 -69.5t108.5 -71t105 -61q-55 -51 -105 -109.5t-97 -117t-95.5 -113.5t-97.5 -101q10 -12 17.5 -19t13.5 -11t13 -9.5 t20 -15.5q66 45 124 99.5t110 107.5t99.5 103.5t94.5 87.5q121 -96 238.5 -211t215.5 -209q4 12 22.5 32.5t35.5 34.5q-10 10 -43 42t-78 74t-93 90t-87 92t-60.5 79t-13.5 51q37 55 83 111.5t91 110t83 100.5t58 86q-4 16 -12 23.5t-18.5 12.5t-20.5 8t-18 11 q-8 -8 -35 -35.5t-60.5 -66.5t-71.5 -82t-72 -81t-56.5 -64.5t-26.5 -32.5q-16 -6 -53 13t-85 52t-100.5 76t-98.5 84t-79.5 73.5t-44.5 49.5q4 2 4 10v17.5t1 16.5t10 7q92 -92 207.5 -179t220.5 -167q86 88 169 182t179 187q18 -12 39.5 -29t42 -32t36 -26.5t19.5 -13.5 l-338 -426q-14 4 6.5 -24.5t60.5 -73.5t91 -98.5t97 -101.5t79 -82t35 -38q-23 -35 -50.5 -60.5t-43.5 -49.5q-72 41 -130.5 90t-112.5 101.5t-108.5 106.5t-113.5 107q-14 -20 -46 -55t-74 -76t-88 -84t-87 -79.5t-72 -62.5t-43 -32q-12 -2 -30.5 7.5t-38 25.5t-37 35.5 t-27.5 36.5q-4 -4 19.5 22.5t62.5 70.5t86 97t90 100.5t74.5 81t38.5 39.5q-33 41 -93.5 78t-123 76t-112.5 82t-60 96z" />
<glyph unicode="y" horiz-adv-x="1187" d="M8 901q14 29 41 55.5t60.5 44t70.5 25.5q18 4 36 4t36 -4q55 -10 96 -63.5t76 -120t65.5 -132t65.5 -100.5q43 23 73.5 65t57.5 89t52.5 96t57 87t72.5 61q35 19 80 19q9 0 17 -1q25 0 48 -13.5t47.5 -30.5t50.5 -33.5t54 -22.5q-39 -121 -112.5 -243t-147.5 -233.5 t-132 -207t-66 -162.5q3 -35 3 -69q0 -88 -20 -161q-26 -102 -78.5 -174.5t-122 -114.5t-144.5 -51q-21 -3 -42 -3q-54 0 -107 17q-73 25 -130 85q-12 33 -14.5 52.5t1.5 33.5t12.5 28.5t16.5 38.5q57 0 118 -3q11 -1 22 -1q46 0 79 11q45 41 63.5 95t24.5 118.5t7 136 t12 145.5q-41 102 -108 185t-129 157t-110.5 144.5t-52.5 150.5zM70 866q20 -68 66 -137.5t103.5 -143t118 -151.5t107.5 -164q-16 -59 -19.5 -138t-11.5 -157.5t-31.5 -148.5t-85.5 -111q-31 -10 -61.5 -4t-59 13.5t-54 10.5t-44.5 -16q-7 -27 -7 -50q0 -37 19 -61 q29 -40 84 -52q28 -7 61 -7q30 0 63 5q71 12 135.5 42.5t112.5 79t61 107.5q16 82 22 142.5t10.5 108.5t12.5 86t28 77q33 61 92.5 145t123 179t116.5 194.5t72 191.5q-18 23 -48 40.5t-59.5 26.5t-55.5 11t-40 -4q-23 -12 -53.5 -53t-65 -93.5t-69.5 -109.5t-67 -100 t-58.5 -64.5t-42.5 -5.5q-23 23 -50.5 77t-60.5 118.5t-71.5 129t-81.5 109.5q-31 -2 -59.5 -2t-55.5 -10t-51.5 -34.5t-44.5 -76.5z" />
<glyph unicode="z" horiz-adv-x="1122" d="M12 931q2 30 6 79q84 -5 175 -5h30q107 1 213 3q71 1 141 1h69q104 -1 198 -14q29 -4 57.5 -4t53 -3t46 -15t35.5 -41q-72 -74 -138.5 -143.5t-124.5 -143.5t-104 -152.5t-73 -170.5q57 -14 129 -15t141.5 -2.5t127.5 -9.5q60 -8 92 -36q30 -26 30 -73q0 -4 -1 -9 q-3 -54 -56 -148q-58 4 -116 4q-51 0 -101 -3q-108 -7 -219 -15.5t-223.5 -8.5t-229.5 23q-29 4 -46.5 10t-30.5 17.5t-25.5 29.5t-30.5 47q29 92 74 170t95 150.5t102 143.5t95 148q-25 18 -72.5 26.5t-100 11.5t-98.5 3t-66 2q-25 29 -36.5 49.5t-15.5 42t-2 51.5zM54 892 q3 -36 32 -65q26 4 53 4q25 0 49 -3q52 -7 101 -17q49 -11 91 -17q16 -2 29 -2q23 0 40 7v-7q-1 -78 -45 -152q-46 -77 -108.5 -155.5t-124.5 -163.5t-93 -184q12 -49 78 -67q68 -19 164 -22q26 -1 54 -1q74 0 158 6q116 8 226 15q24 1 46 1t44 -1q43 -2 78 -2t61.5 3 t40.5 15q16 16 34 52q15 30 16 71q0 9 -1 18q-39 25 -90 31t-116.5 8t-146.5 3t-179 16q18 113 65 201.5t107.5 166.5t125 147.5t118.5 143.5q-102 10 -219 15.5t-236 7.5t-234 2h-211q-8 -30 -8 -58q0 -9 1 -17z" />
<glyph unicode="{" horiz-adv-x="684" d="M14 741q61 18 106.5 58.5t70 92.5t27.5 114.5t-19 128.5q-12 35 -35 64.5t-39 62t-17.5 69.5t29.5 84q37 55 106 88t171 37q35 -20 42 -58t5 -79q-39 -4 -75 -10.5t-63.5 -17.5t-45 -29.5t-19.5 -47.5q-2 -12 6 -31.5t19.5 -43t23.5 -49t21 -46.5q18 -47 38.5 -97 t26.5 -99t-8 -96.5t-63 -87.5q61 -31 73.5 -86.5t3 -120t-25 -131t-10 -120.5t47.5 -89t148 -35q18 -18 23.5 -63.5t-4.5 -79.5q-90 -29 -169 -7.5t-131.5 76.5t-72 137t5.5 179q8 31 15 63.5t8.5 65t-8 62.5t-36.5 56q-12 14 -41.5 20.5t-58.5 12.5t-52.5 17.5t-23.5 35.5z M119 723q37 -8 67.5 -33.5t52 -60.5t32 -77t5.5 -85q-4 -43 -24.5 -86t-22.5 -90q-2 -66 21.5 -116t66.5 -83t103.5 -43t132.5 6q4 20 -1 41t-9 37q-23 -2 -36 3t-24.5 9.5t-21 6t-23.5 -6.5q-43 29 -81 62t-42 90q-4 51 11.5 108.5t28 112.5t11.5 104.5t-38 86.5 q-29 0 -57.5 5t-34.5 40q55 14 80.5 51t31.5 82t-1 91t-19 77q-6 23 -12.5 45t-12.5 41q-10 25 -24.5 47t-28.5 44.5t-23.5 43t-9.5 41.5q0 35 18.5 59.5t47 41t66.5 26.5t77 18q-10 0 -6 12.5t0 20.5q-16 6 -26.5 7t-17.5 -2t-15.5 -7t-20.5 -4q-29 -2 -64.5 -22.5 t-67.5 -51.5t-51.5 -68.5t-11.5 -74.5q4 -16 16.5 -23.5t22.5 -23.5q12 -18 30.5 -63.5t29.5 -78.5q14 -57 12 -105t-18.5 -91t-47 -83t-71.5 -81z" />
<glyph unicode="|" horiz-adv-x="245" d="M2 1271.5q0 108.5 1 181.5t3 89q0 4 16.5 4t42 -3t57.5 -8t62 -9q-4 -41 -3 -128t6.5 -201t13.5 -245t15 -262t13.5 -254t8.5 -217t-2.5 -152.5t-16.5 -62.5q-35 -10 -50 -15t-26.5 -5t-26.5 7t-48 19q-12 6 -22.5 70.5t-18 169t-12.5 235.5t-8 269.5t-4 273.5t-1 243.5z M35 1509q2 -88 4 -217t5 -275.5t8 -299t11.5 -285.5t15.5 -236.5t21 -150.5q27 -20 48.5 -26t50.5 12q2 338 -19.5 706.5t-38.5 759.5q-31 0 -49 7t-57 5z" />
<glyph unicode="}" horiz-adv-x="684" d="M24 102.5q5 44.5 23 63.5q106 0 148.5 35t47.5 89t-10.5 120.5t-24.5 131t3 120t74 86.5q-49 41 -63.5 88t-8.5 96t26.5 99t39.5 97q8 20 20 46t23.5 49.5t19.5 43t6 31.5q-2 29 -19.5 47.5t-45 29.5t-63.5 17.5t-75 10.5q-2 41 5.5 79t42.5 58q102 -4 170.5 -37 t105.5 -88q31 -47 30 -84t-17.5 -69.5t-39 -62.5t-34.5 -64q-23 -66 -20 -128.5t27.5 -114.5t69.5 -92t107 -59q0 -25 -23.5 -36t-52.5 -17t-58.5 -12t-41.5 -21q-27 -27 -36 -56.5t-8 -62t8 -65.5t15 -63q25 -96 5.5 -178.5t-72 -137.5t-131 -76.5t-168.5 7.5 q-10 35 -5 79.5zM53 55q72 -16 132.5 -6t103.5 43t66.5 83t21.5 116q-2 47 -22.5 90t-24.5 86t6 85t31.5 77t52.5 60.5t67 33.5q-41 41 -71.5 81t-47 83t-19.5 91t13 105q10 33 29 78t31 64q10 16 22.5 23t16.5 24q8 37 -11.5 74.5t-51 68.5t-68.5 51.5t-64 22.5 q-12 0 -20 4t-15.5 7t-17.5 2t-27 -7q-4 -8 0 -20.5t-6 -12.5q39 -8 76 -18t66.5 -26.5t48 -41t18.5 -59.5q0 -20 -9 -41t-23.5 -43.5t-30 -45t-23.5 -46.5q-6 -18 -12 -41t-12 -45q-12 -31 -19.5 -77t-1.5 -91t31.5 -82t81.5 -51q-6 -35 -35 -40t-57 -5q-37 -37 -38 -86.5 t11 -104.5t27.5 -112.5t11.5 -108.5q-4 -57 -42 -90t-81 -62q-14 8 -24.5 6.5t-20.5 -6t-24.5 -9.5t-35.5 -3q-4 -16 -9 -36.5t-1 -41.5z" />
<glyph unicode="~" horiz-adv-x="811" d="M16 625q6 45 12.5 76.5t18.5 55t32.5 40t51.5 34.5q31 16 64.5 28.5t68.5 18t70 -2t65 -29.5q20 -16 36 -37t30 -40t27.5 -34.5t29.5 -17.5q31 -6 56.5 7t45 35.5t32 49.5t18.5 45q35 0 67.5 -1t46.5 -22q2 -23 -4 -14.5t-18 6.5q6 -31 -7.5 -67.5t-39 -69.5t-61 -56.5 t-76.5 -27.5q-45 -6 -80 6.5t-63.5 35t-51 53t-43.5 65.5q-45 6 -82 -2t-67.5 -28.5t-54 -48.5t-40.5 -58q-16 0 -27.5 -2t-20.5 -3.5t-17 -1.5t-19 7zM47 647q18 4 30.5 17.5t24 30t22.5 32.5t30 29q23 14 52.5 27.5t53.5 17.5q43 4 69.5 -4.5t45 -26.5t32 -44t29.5 -54 q33 -10 57.5 -25.5t57.5 -13.5q18 0 44 9t50.5 24.5t45 35t30.5 37.5q4 10 8 25.5t6 29t0 22.5t-8 7q-16 2 -23.5 -4t-11.5 -15t-5 -21.5t-5 -20.5q-33 -25 -65.5 -50.5t-79.5 -33.5q-35 8 -58.5 30.5t-43 47t-40 49t-51.5 41.5q-133 0 -203.5 -48t-93.5 -151z" />
<glyph unicode="&#xa1;" horiz-adv-x="407" d="M8 1372q20 -35 47 -54.5t56 -41.5q78 23 123.5 48t68.5 91q-18 45 -64 61.5t-95.5 9.5t-89.5 -37t-46 -77zM24.5 90q-12.5 -47 8.5 -98q20 -10 49 -15.5t56.5 -2.5t53 13.5t44.5 28.5q20 23 27 63t7 89t-3 102t-5 103q-6 96 0 206q2 47 11.5 96.5t5.5 92.5q0 45 -14.5 84 t-18.5 74q-10 88 -19.5 165.5t-23.5 143.5q-14 -8 -24.5 -8t-19.5 2t-19.5 2t-22.5 -6q-2 -59 -9.5 -118t-17.5 -112q-4 -51 -3 -120.5t-5 -139.5q-6 -86 -22.5 -171t-16.5 -171q-4 -53 0 -103.5t-2 -105.5q-4 -47 -16.5 -94zM57 98q14 43 19.5 91t7.5 99.5t3 104.5t5 107 q16 172 35.5 343t15.5 345q16 -2 25.5 -13.5t12.5 -24.5t4 -28.5t1 -28.5q4 -23 6.5 -47t6.5 -47q4 -68 17 -141.5t15 -144.5q0 -23 -7 -45.5t-7 -47.5q-8 -78 -5 -140t5 -122q2 -80 6 -162.5t-22 -160.5q-29 -16 -58.5 -23.5t-66.5 2.5q-4 33 -2 52.5t-17 31.5zM68 1378 q-6 33 17.5 52.5t57 24.5t68.5 -6t53 -40q-10 -33 -39.5 -53.5t-63.5 -25.5t-61.5 6t-31.5 42z" />
<glyph unicode="&#xa2;" horiz-adv-x="890" d="M2 487q4 100 34 175t78 132.5t109.5 102.5t128.5 84q8 53 6 115.5t-7 125t-11 123t-6 109.5q78 8 139.5 -2t126.5 -25q14 -33 19.5 -70.5t7.5 -80.5t6 -89t14 -93q2 0 14.5 4t28 7t33.5 1t37 -12q8 -25 20.5 -45.5t23.5 -45t18 -54t5 -72.5q-61 16 -104 10t-70.5 -18.5 t-43 -26t-19.5 -13.5q6 -72 9 -130t6 -115.5t8 -121t16 -145.5q57 -16 110.5 -12t124.5 12q8 -35 7 -82t-15 -90q-23 -14 -49.5 -16t-56 1l-59 6t-54.5 1q-18 -53 -25.5 -115.5t-10.5 -128t-7 -129t-14 -120.5q-25 14 -55.5 17t-61.5 4t-60.5 7t-50.5 29q8 115 -4 220.5 t-4 205.5q-68 29 -128 65.5t-106.5 81.5t-75 98.5t-32.5 114.5zM49 498q-4 -63 28 -119.5t83 -101t116.5 -74t129.5 -41.5q-18 -53 -18.5 -106.5t4.5 -107.5t10.5 -111.5t-3.5 -117.5q23 -14 70 -20t96 -6q0 123 10.5 250t30.5 227q29 10 55.5 8t54 -7t57.5 -7t61 8 q8 23 6 57.5t-2 57.5q-41 -6 -77 -13.5t-65.5 -9.5t-55.5 4t-46 25q-2 55 -9 128t-14.5 149.5t-12.5 148.5t-5 125q20 33 53 50t69 23.5t69.5 4.5t56.5 -7q-8 43 -34 88.5t-40 67.5q-18 4 -31.5 2t-26 -5t-24.5 -5t-31 2q-14 47 -17 87t-5 80t-7 82t-24 93q-25 4 -52.5 10 t-52 10.5t-45 5t-30.5 -5.5q10 -53 16 -114.5t9.5 -123t3.5 -119.5v-107q-63 -29 -126 -72t-113 -101.5t-83 -131t-39 -160.5zM182 546.5q0 69.5 27 131t81 104.5t138 47q-18 -53 -22.5 -124.5t-3.5 -147.5t7.5 -148.5t10.5 -129.5q-78 0 -131 39.5t-80 99t-27 129z M234.5 535.5q-3.5 -72.5 28.5 -135.5t110 -83q-14 49 -15.5 119t0.5 138.5t3 126t-9 81.5q-49 -37 -81.5 -105.5t-36 -141z" />
<glyph unicode="&#xa3;" horiz-adv-x="974" d="M2 836q18 6 53 8t73 1t73 -6t51 -12q-4 8 -9 24.5t-11.5 34t-15.5 35t-17 29.5q-39 68 -46.5 134.5t8 128t48.5 119t70 110.5q45 23 96 45t106.5 35.5t113.5 10.5t116 -32q-2 -23 1 -36t8 -25.5t7 -27.5t-4 -40q-47 -4 -80 -11t-61.5 -15.5t-56 -16.5t-66.5 -12 q-45 -31 -67.5 -89.5t-24.5 -126t14 -136t51 -119.5q74 -6 145.5 -12.5t133.5 -22.5q10 -39 6 -85t2 -89q-39 -8 -92.5 5t-100.5 20q-8 -25 7.5 -43.5t19.5 -32.5q16 -68 12 -127.5t-24.5 -110.5t-51 -93t-65.5 -75q45 -18 92 -4t98 21q59 6 116 1t108 -1q18 0 34.5 5t33 8 t29.5 -1t26 -21q-10 -18 -13.5 -43.5t-6.5 -50t-9 -46t-23 -34.5q-14 -6 -31.5 -5t-37 5t-40 9.5t-38.5 7.5q-57 6 -111.5 4t-111.5 -4q-35 0 -67 -8.5t-64 -8.5q-59 -2 -132 10.5t-145 6.5q2 10 -1 14t-8 7t-8 7t-1 15q35 45 79 78.5t87 70.5q39 100 63.5 208t13.5 214 q-41 14 -72.5 15.5t-64.5 -2t-74 -5.5t-100 9q-27 31 -38 72.5t-5 101.5zM47 809q2 -14 12.5 -51t6.5 -60q80 -4 162.5 -6t148.5 4q12 -18 17 -39.5t5 -57.5t-4 -91t-12 -141q-8 -27 -19.5 -76t-33.5 -82q-6 -10 -24.5 -27.5t-26.5 -27.5q-10 -10 -28 -17.5t-35 -16.5 t-29.5 -20.5t-8.5 -27.5q61 -6 152.5 -7.5t188.5 -1.5t191 -4t164 -18q23 23 27 60.5t8 68.5q-49 2 -105 -2t-112.5 -9t-111 -11.5t-97.5 -8.5q-8 0 -26.5 -2t-38 0t-32.5 12.5t-9 34.5q29 37 55.5 74t47 75t29.5 80t5 91q-6 51 -22.5 101t-26.5 97q53 -4 96 -10t113 -18 q-2 8 -1 25.5t3 35t1 30.5t-9 17q-51 -6 -122 5.5t-138 15.5q0 29 -23 55.5t-39 54.5q-23 47 -31 114t1.5 132.5t38 118.5t77.5 76q61 14 125 19t133 34q-8 4 -15 25.5t-7 31.5q-31 -4 -48.5 1t-34 11.5t-35 10.5t-50.5 -2q-4 -6 -20.5 -12.5t-38 -13.5t-42 -15t-30.5 -19 q-59 -35 -94 -81t-50.5 -101t-14.5 -118.5t13 -131.5q12 -23 27.5 -46t29 -49t23.5 -55.5t10 -60.5q-23 -10 -56.5 -5t-70 13.5t-73.5 15.5t-66 3z" />
<glyph unicode="&#xa4;" horiz-adv-x="1642" d="M39 792.5q0 73.5 17.5 138t52 116t88.5 75.5q-10 41 -31 73t-40.5 60.5t-30.5 57t-5 61.5q8 82 64.5 105.5t125 6t130 -65.5t82.5 -109q55 27 123.5 52.5t140 36.5t143.5 4t135 -46q35 35 88.5 77t118 69.5t137 28.5t148.5 -48q37 -31 44 -65t-6.5 -68.5t-41 -68.5 t-61.5 -63.5t-67 -54.5t-53 -43q41 -80 65 -168t28 -177t-12.5 -176t-57.5 -167q20 -20 46 -56t48.5 -79t36.5 -88t11 -83t-28.5 -64.5t-82.5 -30.5q-25 -2 -65 10t-79 35.5t-69.5 58.5t-36.5 80q-59 -61 -154.5 -86t-196 -18.5t-190.5 39t-139 88.5q-35 -18 -58.5 -40 t-44 -45.5t-42 -49t-52.5 -52.5q10 20 -1 20.5t-34.5 -6t-53 -9.5t-54.5 12q-35 18 -50.5 61t-11 94t29 103.5t71.5 91.5q-41 39 -68.5 99.5t-42 130t-14.5 143zM102.5 688.5q8.5 -65.5 32 -124t60.5 -97.5q0 20 6 22.5t15 -3t18.5 -15.5t13.5 -14q-41 -66 -74 -100.5 t-51.5 -63.5t-18.5 -64.5t29 -103.5q47 -39 87 -33t75 36t62.5 71t50 70.5t40 35.5t29.5 -33q104 -59 180 -90.5t144.5 -35t141.5 21.5t171 80q27 14 46.5 4t38 -32.5t37.5 -52.5t44 -53.5t56.5 -35.5t74.5 2q59 35 60.5 80t-25.5 92t-68 91t-67 79q25 18 40 52t26.5 75 t16.5 87t7 87q4 117 -35 220.5t-80 199.5q35 39 83 71.5t84 65.5t47 73t-25 95q-80 27 -153 19.5t-125 -35t-80.5 -68.5t-22.5 -80q-55 51 -133 65.5t-161 4t-165 -39t-146 -65.5q-41 25 -70.5 63t-59 70.5t-64.5 51t-82 0.5q-63 -23 -67.5 -71t19 -100.5t61.5 -99.5t61 -65 q-55 -14 -93 -55.5t-60.5 -97.5t-31 -123.5t0 -133zM354 748q-6 45 23 111.5t78 133t114.5 119t135.5 68.5q70 20 143.5 -1.5t138 -69.5t113.5 -115.5t69 -141.5q20 -94 1 -167t-66 -125t-113.5 -84t-140.5 -44q-78 -8 -162 15.5t-156.5 68.5t-122 105.5t-55.5 126.5z M449 750q6 -88 62 -149.5t133 -92.5t164 -30t156.5 36t109.5 105.5t24 177.5q-18 113 -71.5 187.5t-124.5 110t-148.5 31.5t-144 -47t-111.5 -125.5t-49 -203.5z" />
<glyph unicode="&#xa5;" horiz-adv-x="1300" d="M14 1509q29 -2 78 2.5t99.5 4.5t92.5 -8.5t60 -34.5q12 -6 38 -38t57.5 -77t66.5 -95.5t65.5 -92.5t52 -69.5t29.5 -25.5q37 61 81 115.5t89 110t86 112.5t72 125q27 -4 66.5 -9t81.5 -12.5t84 -14.5t77 -15q-10 -31 -45 -85t-83 -119.5t-104.5 -135.5t-109.5 -132.5 t-98 -110.5t-70 -68q0 -29 -2 -50.5t-4 -40t-6 -39t-6 -47.5q27 -10 51.5 -14t40.5 -33q-6 -6 -4 -25.5t4 -42t1 -44t-11 -31.5q-29 4 -54.5 2t-48.5 10q-10 -25 -9 -49t-3 -49q35 4 77 0t73 -16q-12 -27 -13.5 -36t-0.5 -18.5t-1 -27t-14 -60.5q-29 4 -51.5 0t-46.5 6 q-4 -23 -1 -49t5 -56t0 -61.5t-15 -62.5q-66 4 -123 0t-98 21v54t2 67.5t6 60t11 33.5q-12 -4 -33 -4.5t-42.5 4t-39.5 11.5t-27 19q-4 53 -2 78t2 66q53 0 91 -1t83 -8q-8 29 0.5 46.5t10.5 60.5q-33 10 -73 11t-83 9q-16 14 -17 37t1 45.5t4 43t-8 28.5q4 -6 16 -4t29.5 5 t39 5t44.5 -2q12 37 8 71t-4 87q-72 57 -136.5 145t-128 183.5t-127 185.5t-133.5 149zM98 1483q39 -39 91.5 -113t109.5 -158t115.5 -164.5t113.5 -132.5q20 -20 44 -33.5t28 -41.5q-4 -27 -6 -61t-4 -62.5t-5 -49t-5 -20.5q-27 0 -54.5 -3t-79.5 7q0 -8 -2 -36.5t2 -49.5 q29 -10 59 -11t56.5 -2t48 -6t33.5 -22q-10 -14 -12 -34.5t-2 -42t-3 -43t-16 -37.5q-41 -4 -83 7t-95 9q4 -29 3 -53.5t3 -44.5q14 -2 38 -2t46.5 -1t42 -5.5t25.5 -16.5q-2 -23 -6 -54.5t-9.5 -61t-10.5 -54t-5 -35.5q35 -4 80 -8t84 -4q-10 43 -7 95t-7 124q35 -4 60.5 2 t45.5 -4q4 25 13.5 46.5t13.5 47.5q-59 0 -93 -2t-48.5 10.5t-15.5 46t3 105.5q12 6 27.5 3t33 -8t35 -9t31.5 2q-8 27 2 52.5t-2 55.5q-29 8 -46 7t-40 14q-10 25 -8 54.5t8 60t12.5 60.5t6.5 52q119 123 242.5 268.5t240.5 325.5q-47 12 -104.5 28.5t-114.5 20.5 q-41 -63 -88 -129.5t-97.5 -131t-98.5 -122t-87 -102.5q-37 29 -88 94.5t-101.5 138t-93.5 135t-67 86.5h-55.5t-43 1.5t-42 4.5t-52.5 7z" />
<glyph unicode="&#xa8;" horiz-adv-x="626" d="M20 1169q-10 51 4.5 84t42 48.5t60.5 14.5t62.5 -14.5t48 -37t14.5 -56.5q-4 -31 -30.5 -50t-62.5 -24.5t-74 3.5t-65 32zM51 1182q29 -10 59.5 -15.5t53 -1.5t36 19.5t9.5 48.5q-18 33 -47 45t-56.5 4t-44 -33.5t-10.5 -66.5zM367 1153q-4 98 45 141h24h22.5t27.5 2.5 t40 6.5q14 -14 29.5 -26.5t28 -25t19.5 -28t3 -35.5q-4 -33 -32.5 -49.5t-65.5 -19.5t-76 6.5t-65 27.5zM392 1186.5q1 -13.5 11 -21.5q14 -10 45 -17t62 -3t52.5 21.5t17.5 58.5q-12 16 -34 26.5t-45.5 15.5t-45 4t-31.5 -9q-8 -8 -16.5 -20.5t-12.5 -27t-3 -28z" />
<glyph unicode="&#xa9;" horiz-adv-x="833" d="M-16.5 987q10.5 94 53.5 176t111.5 146.5t154.5 101.5t185.5 41t199.5 -35q8 -39 -2 -60.5t-10 -49.5q-59 0 -136 -21.5t-140.5 -61.5t-99.5 -96.5t-11 -123.5q18 -47 56 -64.5t86 -22t102.5 1t105.5 3.5t96 -16.5t74 -57.5q18 -55 3 -101.5t-52 -80.5 q-78 -31 -188.5 -42.5t-220 1t-204 54.5t-141.5 120q-33 94 -22.5 188zM24.5 1029q-24.5 -116 22.5 -212q25 -49 70 -83t112 -58q37 -12 90.5 -18.5t111.5 -6.5t116.5 4t105.5 14.5t76 25t29 32.5q35 49 25.5 94t-87.5 74q-176 -29 -278.5 -10.5t-144.5 64.5t-31.5 109.5 t60.5 122t135 102.5t192 52l12 80q-166 27 -298 -26.5t-213 -148.5t-105.5 -211z" />
<glyph unicode="&#xaa;" horiz-adv-x="700" d="M4 672q-17 81 13 141t88 98.5t135.5 58.5t154.5 23q-3 23 -7 48t-8.5 48t-13 41.5t-25.5 29.5q-16 2 -28 -9t-24 -28t-24.5 -33t-29.5 -21q-40 29 -46.5 62.5t8.5 67.5t47.5 62.5t75 47t87.5 22.5t83 -13q55 -25 91 -73.5t57.5 -113.5t33 -141t15.5 -153.5t4.5 -151.5 t2.5 -136q-29 8 -34 31t-11 47q-15 72 -12.5 155.5t1 164t-16 153.5t-62.5 128q-33 48 -79 65t-97 7q-39 -8 -71 -29.5t-53 -48t-30 -57t1 -56.5q15 5 23 18t14.5 27t14 28.5t20.5 22.5q42 -11 67 -34.5t37 -56.5t17.5 -72.5t8.5 -85.5q-40 2 -86.5 -2t-93 -15t-87.5 -31.5 t-70 -47.5q-28 -30 -43 -69.5t-17 -78t12.5 -71.5t46.5 -53q30 -10 61.5 -21t66 -18.5t73.5 -10t85 3.5q27 3 57 12t58.5 16.5t54 12t45.5 -0.5q10 -3 21.5 -4.5t20.5 -5t14.5 -11.5t5.5 -25q-71 5 -142 -5t-142 -17t-140 -2.5t-133 37.5q-28 11 -60 47t-36 76zM160 722 q-5 37 17.5 69t60 52.5t85 28t92.5 -3.5q40 -29 63 -78t36 -89q-30 -17 -86.5 -31t-112.5 -17t-101.5 12t-53.5 57zM187 739q11 -33 45.5 -46t77.5 -13t88.5 9t78.5 17q2 65 -38.5 100t-92.5 39t-100 -22t-59 -84z" />
<glyph unicode="&#xab;" horiz-adv-x="1155" d="M6 719q102 78 199.5 168t202.5 172q41 33 85 59.5t85 55.5q20 14 33.5 26t26.5 24.5t28.5 21.5t40.5 18q2 -8 10 -8.5t14 -0.5q2 -47 13.5 -90t-5.5 -78q-10 -23 -37.5 -49t-61.5 -53t-68.5 -49.5t-57.5 -36.5q-47 -33 -106.5 -76t-110.5 -69q43 -80 95 -133.5 t108.5 -97.5t118 -88t126.5 -105q4 -29 17.5 -64t-0.5 -65q-113 51 -193 113.5t-153.5 127t-152.5 128t-187 116.5q-18 -6 -29.5 5.5t-40.5 27.5zM70 719q100 -37 177 -94.5t146.5 -121t140 -125t156.5 -110.5q37 -20 38 -8t-15.5 38t-43 54.5t-46.5 44.5q-55 43 -111.5 87 t-108 89t-96.5 92.5t-78 96.5q156 78 265.5 163t212.5 173q2 12 1 39.5t-5.5 51t-9.5 34t-13 -12.5q-82 -55 -155.5 -117.5t-145.5 -126t-147.5 -127t-161.5 -120.5zM375 719q102 78 199.5 168t201.5 172q41 33 85 59.5t85 55.5q20 14 33.5 26t27 24.5t29 21.5t39.5 18 q2 -8 10.5 -8.5t14.5 -0.5q2 -47 13 -90t-5 -78q-10 -23 -38 -49t-61.5 -53t-68.5 -49.5t-57 -36.5q-47 -33 -106.5 -76t-110.5 -69q43 -80 95 -133.5t108.5 -97.5t118 -88t126.5 -105q4 -29 17.5 -64t-1.5 -65q-113 51 -192.5 113.5t-153 127t-152.5 128t-188 116.5 q-18 -6 -29 5.5t-40 27.5zM438 719q100 -37 177 -94.5t146.5 -121t140.5 -125t157 -110.5q37 -20 38 -8t-15.5 38t-43 54.5t-47.5 44.5q-55 43 -111.5 87t-107.5 89t-96 92.5t-78 96.5q156 78 265.5 163t211.5 173q2 12 1 39.5t-5 51t-9 34t-13 -12.5q-82 -55 -156 -117.5 t-145.5 -126t-147.5 -127t-162 -120.5z" />
<glyph unicode="&#xac;" horiz-adv-x="1515" d="M-2 920q18 12 24.5 42.5t8.5 68.5t4 79t12 74q82 14 184.5 12t217 -12t234.5 -24.5t236.5 -27t226.5 -17.5t204 5q-10 4 -17.5 13.5t4.5 13.5q37 -8 60.5 -17.5t58.5 -42.5q0 -90 6 -197.5t13.5 -217t12.5 -216t5 -194.5q-8 -4 -19.5 -8t-19.5 -9t-9 -12.5t11 -19.5 q-43 6 -91 9t-94 7t-88 14.5t-73 32.5q-2 39 3 99.5t9 128t3 136.5t-15 124q-141 23 -294.5 28t-301 14t-281 31.5t-235.5 82.5zM51 934q74 -25 174.5 -45.5t211 -32.5t225 -18.5t217.5 -1.5q98 4 167.5 -0.5t133.5 -51.5q-23 -41 -24 -97t5 -120.5t9 -134t-11 -139.5 q35 0 78 -7t84 -13.5t76 -9.5t53 7q2 8 -10.5 23.5t-20.5 15.5q-8 92 -5 178t8 175.5t6.5 185.5t-11.5 205q-158 -10 -326.5 9t-340.5 41.5t-341 36t-323 -9.5q2 -55 -12.5 -105t-22.5 -91z" />
<glyph unicode="&#xad;" horiz-adv-x="741" d="M-10 762q88 -8 183 -6t189.5 9t180 21.5t155.5 30.5q20 -47 4 -94t-40 -100q-72 20 -159 13t-175 -15.5t-169 -7.5t-141 38q8 31 3 45.5t-14 23.5t-15 16t-2 26zM39 727q4 -10 11 -21.5t5 -27.5q4 -18 32 -24.5t73 -6.5t103.5 4t123 7.5t130 4.5t126.5 -6q-2 14 2 29.5 t9 30t9.5 30t2.5 31.5q-145 -29 -277.5 -37t-263.5 -8q-8 0 -20.5 3t-24.5 4t-23.5 -1t-17.5 -12z" />
<glyph unicode="&#xae;" horiz-adv-x="684" d="M-8 1455q-6 38 22 67q18 -14 38 -6t42 12q20 2 47 3t54.5 2t53 0t44.5 -1q90 -4 161.5 -7t133.5 -40q31 -18 52.5 -44t27.5 -73q2 -43 -7.5 -78t-27 -65.5t-39 -57t-39.5 -49.5q-25 -6 -51.5 -15t-53 -17.5t-53 -12.5t-51.5 2q16 -35 41 -65.5t51 -69.5q20 -31 47 -68.5 t53.5 -77.5t53 -78t47.5 -71q-29 -16 -63.5 -15t-49.5 3q-27 2 -46 22.5t-34.5 48t-31 56t-31.5 47.5l-26.5 26.5t-22.5 28.5q-10 14 -18.5 27.5t-18.5 28.5q-39 66 -71.5 132t-55.5 121q27 4 54.5 4.5t53 -2t51 -1t48.5 7.5q33 12 61.5 27.5t50 38t32.5 54t9 76.5 q-27 31 -72.5 40t-100 8t-112 -6t-104.5 -5q-20 -68 -21 -133.5t7 -122.5q4 -66 14.5 -130t16.5 -124q4 -66 10 -128t2 -130q-8 -10 -24.5 -13t-36 -3t-39 2t-33.5 4q8 18 2 40.5t-2 43.5q2 78 -3 171t-14 161q-8 47 0.5 96t4.5 96q-2 35 -9.5 70t-11.5 69q-6 35 -12 73z M14 1493q16 -68 22.5 -134.5t8.5 -134t3 -137t7 -143.5q6 -66 1 -141.5t5 -147.5q20 -8 45 -5t46 5q-10 72 -19.5 154t-13.5 168q-2 61 -8.5 121.5t-10.5 119t-2 113.5t17 103q37 2 70.5 3t64.5 1q29 0 46 -1t34 1q31 4 61.5 7t59.5 -1q23 -4 46 -17.5t42 -13.5 q25 -66 6 -119t-67 -88t-120.5 -48t-154.5 1q29 -55 58.5 -122.5t62.5 -118.5q29 -45 50 -74t56 -72q20 -25 36.5 -53.5t51.5 -63.5q16 0 44 -5t44 -1q-31 37 -59.5 82t-57 92t-56 90t-56.5 78q-20 25 -42 49.5t-32 55.5q25 -4 59.5 -2t69.5 8t66 16.5t47 22.5q6 2 18 16 t24.5 30.5t23 31t12.5 20.5q12 25 15 55.5t0 61t-12.5 55.5t-23.5 37q-6 6 -23.5 15.5t-36 18.5t-34.5 16t-21 7q-29 8 -62.5 3t-64.5 -3q-88 6 -175 6t-171 -18z" />
<glyph unicode="&#xb0;" horiz-adv-x="454" d="M19.5 1228q-17.5 48 5 98t100.5 87q68 18 122 0t90 -57t49 -87t-1 -90t-59 -67t-127 -14q-66 8 -114 45t-65.5 85zM70 1284q-12 -31 2 -60.5t42.5 -51t65.5 -33t72 -6t61.5 31t34.5 76.5q4 47 -35 84t-90 50.5t-98 -6t-55 -85.5z" />
<glyph unicode="&#xb1;" horiz-adv-x="1705" d="M168 1016q16 25 47 21.5t57 -1.5q96 2 189.5 5t177.5 -11q4 74 10 135.5t10.5 115.5t5.5 107.5t-6 112.5q2 4 4.5 8t2.5 13q55 -4 82.5 -16.5t54.5 -37.5q-2 -72 -6 -128t-9.5 -107t-11.5 -101.5t-14 -109.5q74 2 127 4t100 5t93 8t108 12q4 -33 3 -58.5t-6 -48 t-12.5 -45t-17.5 -51.5q-55 -2 -99 0t-88 6t-95.5 8t-124.5 4q-8 -23 -7.5 -49t0.5 -55q0 -47 3.5 -88t4.5 -81t-3.5 -80t-18.5 -85q-84 2 -149 39q4 92 6 197.5t0 207.5q-53 12 -96.5 12.5t-86.5 -3.5t-90 -7.5t-106 5.5q-10 43 -10 64.5t10 45.5q-2 6 -9.5 7t-15.5 1 t-13 3.5t-1 15.5zM225 901q35 -4 62.5 0t50.5 6t63.5 5t82.5 5.5t78 -1t50 -15.5q8 -6 10.5 -29.5t1.5 -55.5t-3.5 -66.5t-2.5 -61.5q-2 -51 -3 -97t-9 -97q33 0 54.5 -13.5t56.5 -13.5q8 61 4 118.5t-9 111t-4 103.5t21 99q20 10 45 8t47 -2q55 0 89 -4t64 -7t67.5 -6 t103.5 -1q4 31 10 59.5t8 63.5q-63 -12 -112.5 -15.5t-97.5 -4.5t-101 -3t-123 -10q2 76 8 133t12.5 110.5t11.5 111t9 130.5q-16 10 -37 15.5t-41 11.5q0 -8 -2 -12t-6 -9q4 -53 8 -84.5t4 -54t-2 -42t-10 -48.5q-6 -31 -8 -61.5t-3 -63.5t-5 -63.5t-17 -61.5 q-61 8 -115.5 9t-105.5 0t-100 -1t-105 7v-103zM289 362q88 -8 183 -6t189.5 9.5t180 22t155.5 30.5q20 -47 4 -94.5t-40 -100.5q-72 20 -159 13t-175 -15t-169 -7t-141 38q8 31 3 45t-14 23.5t-15 16.5t-2 25zM338 328q4 -10 11 -21.5t5 -27.5q4 -18 32 -24.5t73 -6.5 t103.5 4t123 7t130 4t126.5 -5q-2 14 2 29.5t9 30t9.5 29.5t2.5 32q-145 -29 -277.5 -37t-263.5 -8q-8 0 -20.5 3t-24.5 4t-23.5 -1t-17.5 -12z" />
<glyph unicode="&#xb2;" horiz-adv-x="526" d="M3 1096q4 23 21 40t42.5 27.5t56 15.5t60.5 3q37 -4 68 -21t56.5 -41t42.5 -54.5t24 -59.5q-3 -42 -3 -91.5t-10 -94.5q-9 -29 -22 -54.5t-27.5 -49.5t-28.5 -47.5t-24 -45.5q-18 -12 -30.5 -26t-23.5 -28.5t-22 -29.5t-24 -28q53 0 90.5 1.5t70 2.5t67 0.5t79.5 -4.5 q7 0 9.5 5t10.5 2q5 -3 8 -6.5t5.5 -12t5 -24t6.5 -43.5q-22 -13 -52 0q-59 -7 -109 -6.5t-97 0.5q-29 0 -58.5 -3t-58.5 -4.5t-57 -1t-57 8.5q-13 31 -10 56t15 47t30 41t35 38q19 23 35.5 45.5t32 47t31 49.5t33.5 54q17 31 28.5 61t13.5 61t-6.5 63.5t-30.5 66.5 q-23 15 -47 18.5t-47.5 -0.5t-44 -14.5t-38.5 -24.5q-19 13 -28.5 29t-20.5 32zM34 1094.5q-1 -10.5 12 -23.5q8 -2 14.5 2.5t14 11.5t16 13.5t22.5 7.5q30 4 65 -7t61 -23q23 -38 41 -79.5t14 -91.5q-3 -25 -15.5 -53t-28.5 -57t-33 -55t-29 -47q-4 -6 -10 -13.5t-11.5 -15 t-9.5 -15t-4 -10.5q-7 -19 -15 -24.5t-17 -17.5q-11 -11 -20 -24.5t-18.5 -26.5t-19 -24.5t-20.5 -19.5q0 -23 -4 -36t4 -25q41 0 94.5 3.5t111.5 6.5t119 4t118 -3q-8 10 -5 22t-5 24q-13 -7 -27.5 -7.5t-28 1t-28 4t-27.5 2.5q-50 0 -90.5 -5t-70.5 -5q-12 0 -24 -2 t-23.5 -2t-21 2.5t-17.5 11.5q11 24 28 46.5t37 45t41 46.5t40 52q30 53 56 113t29 130q5 58 -15 107.5t-56.5 80t-87.5 37.5t-107 -20q-10 -4 -21.5 -9.5t-19 -13.5t-8.5 -18.5z" />
<glyph unicode="&#xb3;" horiz-adv-x="442" d="M11.5 1144.5q-1.5 5.5 0.5 14.5q34 17 75.5 20.5t81.5 -3t75.5 -23.5t61.5 -44q21 -23 35 -56t19.5 -69.5t1 -72t-22.5 -60.5q-6 -8 -18 -15.5t-20 -16.5q-4 -6 -16 -23.5t-31 -30.5q21 -9 44.5 -24.5t43.5 -35t33 -44.5t16 -52q2 -29 -5.5 -51.5t-20.5 -40.5 t-31.5 -33.5t-38.5 -28.5q-21 -14 -39.5 -20.5t-38.5 -10t-42.5 -5t-51.5 -2.5q-14 -1 -31 1t-33 4.5t-28.5 6.5t-17.5 7q5 16 6.5 26.5t2 20t2 22t5.5 31.5q28 -9 68.5 -10.5t80.5 3.5t76 15.5t57 25.5q11 46 -4 72.5t-46 39.5t-72.5 15.5t-83.5 1.5q-16 26 -17.5 51.5 t-2.5 62.5q35 -3 67 7t58 30t45 47.5t27 59.5q-9 33 -29.5 62.5t-47 50.5t-57.5 29.5t-63 0.5q-9 -3 -14 -6.5t-9.5 -7.5t-9 -7t-11.5 -1q-8 -2 -9 4t-1 13t-1 13.5t-8 6.5q2 8 -0.5 12t-5.5 8t-4.5 9.5zM36 1138q8 -13 12 -13t16 -1q23 0 41.5 -0.5t35.5 -4t33.5 -10 t35.5 -18.5q7 -5 15.5 -17.5t17.5 -21.5q12 -10 22 -19.5t17 -18.5q11 -16 15.5 -34t3 -35t-8.5 -33t-21 -26q-2 -3 0.5 -8.5t-0.5 -7.5q-6 -9 -17.5 -19t-24 -20t-25.5 -19t-23 -13q-17 -6 -35.5 -10.5t-36.5 -4.5q0 -12 0.5 -19t0.5 -13t0.5 -12.5t3.5 -16.5 q51 4 98.5 -5.5t79.5 -33t41 -60t-19 -87.5q-23 -10 -57.5 -18t-72.5 -12.5t-74.5 -4t-62.5 9.5q-1 -22 -3.5 -34.5t7.5 -29.5q37 -8 73 -8t70 7t63 19.5t49 28.5q7 5 18 10t15 8q7 7 13 19t10.5 24.5t7.5 23.5t3 19q0 33 -15.5 55.5t-34.5 39.5q-15 18 -36 33.5t-44 18.5 q-16 2 -31 -2t-28 -7t-23.5 -1t-18.5 15q29 15 55.5 19.5t45.5 20.5q8 7 22.5 21t29 30.5t25.5 32t14 23.5q9 25 8.5 54t-7 57t-18.5 51.5t-26 37.5q-12 14 -34.5 25.5t-49.5 19.5t-55.5 13.5t-52.5 5.5q-18 0 -35 -5.5t-28 -18.5z" />
<glyph unicode="&#xb4;" horiz-adv-x="403" d="M6 942q6 43 29.5 69.5t45 55.5t34 68t-3.5 104q-2 25 -16.5 36t-31 21.5t-30 24.5t-10.5 43q16 86 51 125t74.5 43t82.5 -22.5t78 -70.5t57.5 -101.5t22.5 -116.5q0 -74 -31.5 -140.5t-86 -109.5t-123 -54.5t-142.5 25.5zM51 965q94 -16 162 23.5t99.5 110t20.5 161 t-73 174.5q-39 37 -74.5 43t-63.5 -9.5t-44.5 -46t-14.5 -63.5q86 -45 105.5 -106.5t2.5 -120t-54 -105.5t-66 -61z" />
<glyph unicode="&#xb5;" horiz-adv-x="1431" d="M0 283.5q2 160.5 4 303t5 250t3 152.5q47 20 108.5 22.5t124 -4t120 -15.5t96.5 -15q-4 -14 -10.5 -67.5t-9.5 -129t0 -165t19.5 -174.5t50.5 -158.5t91 -116.5t142 -49t204 43q43 57 66.5 135t35 163t11.5 171t-1 158.5t-1 125t8 70.5q6 14 43 22.5t83 11.5t93 3h74 q33 -33 48 -127t11 -217t-25.5 -259t-62.5 -255t-101.5 -204t-142.5 -105q-193 -106 -372.5 -84t-358.5 182q-10 -74 -8 -120t5 -86t2 -86t-15 -118q-6 -31 -49 -41t-95.5 -8t-99.5 9t-65 12q-14 66 -20.5 189.5t-9.5 272t-1 309zM51 -106.5q0 -155.5 10 -342.5q27 8 59 9.5 t62.5 -0.5t60 -3t56.5 7q2 100 2 174v139.5t2 130t8 144.5q39 -121 111 -189.5t158 -101.5t176 -36t165.5 11t126 37t58.5 41q49 12 95 82t84 172t63.5 223t35 235.5t-2 210t-48.5 144.5q-55 -6 -107 -11t-102 -18q2 -113 0 -222t-14 -211.5t-40 -197t-77 -176.5 q-119 -90 -214 -92t-167.5 53.5t-122 157t-75 220t-27.5 241.5t19 221q-37 6 -85.5 9t-96.5 3t-92 -5t-73 -15q2 -225 0 -400.5t-5 -332t-3 -312z" />
<glyph unicode="&#xb6;" horiz-adv-x="1705" d="M4 1194q0 63 36 119.5t93 98.5t131 66.5t150 24.5q129 2 274.5 3t310.5 7q18 -16 33 -82.5t26 -167t18 -224.5t11.5 -253t7.5 -253.5t3 -226t-1 -170t-3 -85.5q-6 -14 -23.5 -18t-41 -3t-52 3t-59.5 0q-4 16 -5.5 109.5t-1.5 224.5v284.5v291.5t-1 245.5t-5 146.5 q-90 -4 -195.5 -6t-199.5 -18q2 -14 4 -72.5t4 -144.5t3 -193.5t2 -219.5t2 -219.5t1 -197.5v-151.5t-2 -81.5q-10 -2 -38.5 -8.5t-58.5 -11.5t-54.5 -4t-28.5 13q-14 35 -20.5 110t-9.5 168t-3 194.5t-1 192.5t-3 160.5t-8 100.5q-47 -4 -99.5 21.5t-96.5 63.5t-71.5 83 t-27.5 80zM47 1214q-10 -57 24.5 -105t85 -80t101.5 -45t74 1q10 -229 15 -473t15 -467q8 -6 24.5 -6t36 2t38 6t31.5 8l-11 1284q53 6 113.5 14.5t121 12.5t119 2t107.5 -14q-2 -35 -2 -106.5v-166v-204t1 -219t1 -213t1 -184.5t1 -132v-57q27 -12 42 -13.5t27.5 0.5 t24 5.5t27.5 1.5q-4 193 -6 336t-4 254.5t-5 203.5t-9.5 184.5t-17.5 194.5t-28 236q-37 2 -118.5 3t-173 1t-176.5 -2t-130 -9q-84 -10 -146.5 -37.5t-105.5 -63.5t-67.5 -76t-30.5 -77z" />
<glyph unicode="&#xb7;" horiz-adv-x="415" d="M25.5 744.5q-17.5 48.5 5 98.5t100.5 87q68 18 122 -0.5t90 -57t49.5 -87t-1 -90.5t-59.5 -66.5t-127 -14.5q-66 8 -114 45t-65.5 85.5zM76 801q-12 -31 2 -60.5t43 -51t65.5 -33t71.5 -6.5t61.5 31t34.5 77q4 47 -34.5 84t-90 50t-98.5 -6t-55 -85z" />
<glyph unicode="&#xb8;" horiz-adv-x="874" d="M422 -385q-2 37 9 70.5t32.5 60.5t51.5 42t65 15q-6 39 -11.5 66t-10.5 51.5t-11 49t-15 57.5q39 2 71 -6.5t81 -6.5q18 -29 20.5 -65.5t-1 -75.5t-8.5 -77.5t-1 -71.5q-12 0 -30.5 -3.5t-36 -9.5t-29.5 -13t-12 -15q8 -43 43 -55.5t74.5 -12.5t77.5 2t55 -12 q4 -31 13 -49.5t19 -42.5q-20 -20 -61 -27.5t-90 -5.5t-100.5 14t-94.5 30.5t-70.5 41t-29.5 49.5zM453 -393q27 -35 70.5 -57.5t95 -32t106.5 -5t106 20.5q-4 10 -12 27.5t-10 31.5q-76 -6 -127 0.5t-81 21.5t-41 37.5t-9 45.5q23 29 55.5 40t67.5 7q-10 59 -13.5 123.5 t-1.5 130.5q-35 -4 -51 -4t-26 10q8 -78 25.5 -131t15.5 -115q-29 25 -64 13.5t-62.5 -39t-42 -63.5t-1.5 -62z" />
<glyph unicode="&#xb9;" horiz-adv-x="247" d="M7 725q-5 29 7.5 57t19.5 54q29 84 56.5 168.5t61.5 160.5h15q0 -25 -6.5 -50.5t-15.5 -51t-19.5 -51.5t-19.5 -53q-16 -51 -31 -103t-34 -103q5 -8 17 -11.5t24.5 -5t25 -5t20.5 -11.5q-15 -148 0 -340h39q2 83 3 178t2.5 195.5t2.5 203t3 202.5q17 -2 23.5 -12t7.5 -24 t-1 -28t-2 -24q3 -54 1 -139t-4 -182t-3.5 -198t0.5 -190q-10 -3 -24 -4t-27.5 0t-26.5 4t-21 8q-8 42 -10 87t-1.5 90.5t3 86.5t2.5 74q-8 8 -18.5 11.5t-21.5 4t-23 0t-25 1.5z" />
<glyph unicode="&#xba;" horiz-adv-x="841" d="M-12 984.5q15 80.5 56 148.5t99 114t131 66.5t153 9.5q149 1 248 -59t138 -157t14 -219t-124 -245q-47 -59 -129 -95.5t-175 -43t-184.5 22t-156.5 103.5q-54 93 -69.5 183.5t-0.5 171zM34 834.5q4 -66.5 25 -122t57 -87.5q57 -48 128.5 -70t144.5 -19.5t141 30t119 75.5 q80 75 116 159.5t32.5 166t-42.5 151.5t-109 114.5t-166 58t-213 -18.5q-63 -18 -109.5 -63.5t-75.5 -107t-40.5 -131t-7.5 -136zM128 941q5 68 39 118t90.5 80t116 38.5t115 -7t89 -58t35 -115.5t-44.5 -178q-25 -25 -81.5 -50t-118.5 -35t-119.5 1t-82.5 59 q-43 79 -38 147zM177 925q1 -63 44 -141q23 -25 73 -29t103 7t97 34.5t56 53.5q33 83 28 142.5t-35.5 95t-78 49t-97.5 5.5t-95 -35t-70.5 -73t-24.5 -109z" />
<glyph unicode="&#xbb;" horiz-adv-x="1155" d="M30 266.5q13 34.5 17 63.5q63 61 126 105t119 88t108.5 97.5t95.5 133.5q-51 27 -110.5 69.5t-106.5 75.5q-23 14 -58 36.5t-68.5 49.5t-62.5 53.5t-37 48.5q-16 35 -5 78t13 90h14.5t10.5 9q25 -8 40 -17.5t28.5 -22t27 -24.5t33.5 -26q41 -29 85 -55.5t85 -59.5 q104 -82 201.5 -172t199.5 -168q-29 -16 -40 -27.5t-29 -5.5q-109 -53 -187.5 -116.5t-152.5 -128t-154 -127t-192 -113.5q-14 31 -1 65.5zM64.5 260q1.5 -12 37.5 8q86 49 157 110.5t140.5 125t146.5 121t177 94.5q-86 57 -162 120.5t-147.5 127t-145 126t-155.5 117.5 q-8 23 -13.5 12.5t-9.5 -34t-5 -51t1 -39.5q51 -43 103.5 -87t108.5 -86t121.5 -83t143.5 -80q-33 -49 -78 -96.5t-96 -92.5t-107.5 -89t-111.5 -87q-20 -16 -47 -44.5t-43.5 -54.5t-15 -38zM398.5 266.5q13.5 34.5 17.5 63.5q63 61 125.5 105t119 88t108.5 97.5t95 133.5 q-51 27 -110.5 69.5t-106.5 75.5q-23 14 -57.5 36.5t-68.5 49.5t-62.5 53.5t-36.5 48.5q-16 35 -5 78t13 90h14.5t10.5 9q25 -8 40 -17.5t28.5 -22t26.5 -24.5t34 -26q41 -29 85 -55.5t85 -59.5q104 -82 201.5 -172t199.5 -168q-29 -16 -40 -27.5t-30 -5.5 q-109 -53 -187.5 -116.5t-152 -128t-153.5 -127t-193 -113.5q-14 31 -0.5 65.5zM433 260q1 -12 38 8q86 49 156.5 110.5t140.5 125t146.5 121t177.5 94.5q-86 57 -162 120.5t-147.5 127t-145.5 126t-156 117.5q-8 23 -13 12.5t-9 -34t-5 -51t1 -39.5q51 -43 103 -87 t108.5 -86t122 -83t143.5 -80q-33 -49 -78 -96.5t-96 -92.5t-107.5 -89t-111.5 -87q-20 -16 -47 -44.5t-43.5 -54.5t-15.5 -38z" />
<glyph unicode="&#xbc;" horiz-adv-x="1955" d="M12 659q-8 51 13.5 100.5t35.5 94.5q51 147 99.5 296.5t107.5 283.5h27q0 -45 -11.5 -89.5t-27.5 -89.5t-34.5 -91t-33.5 -93q-29 -90 -55.5 -182t-60.5 -182q10 -14 30.5 -19.5t43 -8.5t45 -9t36.5 -21q-27 -260 0 -598h68q4 147 6 314t4 343.5t4 357.5t6 357 q29 -4 40.5 -21.5t13.5 -42t-1 -49t-3 -42.5q4 -96 0.5 -245t-6.5 -320t-6 -349t1 -334q-18 -6 -42.5 -8t-49 0t-47 7.5t-37.5 13.5q-14 74 -17 153.5t-2 159.5t5 152.5t4 130.5q-14 14 -32.5 20t-38 7t-41 0t-44.5 3zM470 99.5q7 58.5 28.5 150.5t51.5 210t63.5 246 t67.5 254.5t62.5 236.5t47 195t22.5 126q31 -2 64 -4.5t58.5 -4.5t40.5 -5t15 -7q-2 -16 -15 -88t-34.5 -178.5t-50.5 -237.5t-59.5 -266t-61 -263t-59.5 -228.5t-51.5 -162t-36.5 -63.5q-37 -6 -52.5 -9t-26.5 -1t-24.5 10t-46.5 25q-10 6 -3 64.5zM498 55q25 -23 47 -21.5 t53 15.5q20 45 50 143.5t64 228.5t68.5 278.5t67.5 291t61.5 268t47.5 211.5q-39 10 -57.5 7.5t-49.5 3.5q-96 -381 -191 -738.5t-161 -687.5zM1018 516q12 66 43 118t47 105q27 86 49.5 167t42 164t39 169t39.5 182q12 6 38 8.5t54.5 1.5t56 -5.5t48.5 -12.5q6 -29 3 -55.5 t-11.5 -53t-18.5 -53t-18 -53.5q-14 -57 -18.5 -118.5t-26.5 -114.5q-12 -39 -39 -72t-39 -72q-10 -29 -14.5 -57.5t-14.5 -56.5q-2 -6 -5 -10.5t-3 -10.5q53 2 112.5 7t120 6t121 -3t113.5 -18q47 16 103.5 13t101.5 -21q2 -10 5 -26.5t3 -37t-4 -40t-13 -31.5h-63.5 t-78.5 1t-84 1t-81 -2q-16 -117 -36.5 -248t-61.5 -262q-35 -6 -75 -12.5t-77 3.5q-6 61 7.5 123t29 125.5t25.5 131t0 139.5q-49 -4 -104.5 -8.5t-110.5 -7.5t-108.5 -5t-96.5 2zM1084 551q55 2 106 7t100.5 9t99.5 6t105 -2q2 -92 -5 -159.5t-18.5 -126t-24.5 -113.5 t-26 -123h54q20 66 34.5 130.5t25.5 130t22.5 132t27.5 138.5q66 -14 150 -9.5t162 0.5q2 18 0 40t8 30q-43 16 -76 8t-84 -8q-45 0 -87 7t-89 7q-51 0 -102 -6q-63 -4 -126 -4t-124 -12q-10 59 3 111.5t34.5 100.5t46 95t41.5 96q27 84 42 170t37 178q-18 4 -39.5 2.5 t-31.5 6.5q2 -10 -3 -16.5t-13.5 -9.5t-14.5 -3t-4 4q-14 -23 -12 -54.5t-6 -62.5q-4 -23 -13.5 -44t-13.5 -46q-23 -111 -49.5 -213t-48.5 -180q-37 -119 -88 -217z" />
<glyph unicode="&#xbd;" horiz-adv-x="2054" d="M12 659q-8 51 13.5 100.5t35.5 94.5q51 147 99.5 296.5t107.5 283.5h27q0 -45 -11.5 -89.5t-27.5 -89.5t-34.5 -91t-33.5 -93q-29 -90 -55.5 -182t-60.5 -182q10 -14 30.5 -19.5t43 -8.5t45 -9t36.5 -21q-27 -260 0 -598h68q4 147 6 314t4 343.5t4 357.5t6 357 q29 -4 40.5 -21.5t13.5 -42t-1 -49t-3 -42.5q4 -96 0.5 -245t-6.5 -320t-6 -349t1 -334q-18 -6 -42.5 -8t-49 0t-47 7.5t-37.5 13.5q-14 74 -17 153.5t-2 159.5t5 152.5t4 130.5q-14 14 -32.5 20t-38 7t-41 0t-44.5 3zM470 99.5q7 58.5 28.5 150.5t51.5 210t63.5 246 t67.5 254.5t62.5 236.5t47 195t22.5 126q31 -2 64 -4.5t58.5 -4.5t40.5 -5t15 -7q-2 -16 -15 -88t-34.5 -178.5t-50.5 -237.5t-59.5 -266t-61 -263t-59.5 -228.5t-51.5 -162t-36.5 -63.5q-37 -6 -52.5 -9t-26.5 -1t-24.5 10t-46.5 25q-10 6 -3 64.5zM498 55q25 -23 47 -21.5 t53 15.5q20 45 50 143.5t64 228.5t68.5 278.5t67.5 291t61.5 268t47.5 211.5q-39 10 -57.5 7.5t-49.5 3.5q-96 -381 -191 -738.5t-161 -687.5zM1028 1268q6 43 38 74.5t79 51t104.5 29t112.5 4.5q68 -6 126 -37.5t105.5 -76.5t79 -101.5t45.5 -111.5q-6 -78 -6 -170 t-20 -176q-16 -53 -40 -100.5t-51.5 -92.5t-53 -88t-44.5 -84q-33 -23 -56 -48.5t-43.5 -53l-41 -55t-45.5 -52.5q98 0 168 3t131 5t124.5 1t147.5 -9q14 0 18.5 9.5t18.5 3.5q10 -6 15.5 -12.5t10.5 -22t9 -44t12 -81.5q-41 -23 -96 0q-111 -12 -204 -11t-179 1 q-55 0 -109.5 -5.5t-108.5 -8.5t-106.5 -2t-105.5 16q-25 57 -19.5 103t28 87t56 77t64.5 70q37 43 67.5 85t59.5 87.5t57.5 92.5t61.5 100q31 57 52.5 113.5t25.5 114t-11.5 117.5t-56.5 124q-43 27 -88 34t-88 -1t-82 -27.5t-72 -44.5q-35 23 -53 53.5t-37 59.5z M1085 1264.5q-1 -19.5 23 -43.5q14 -4 26.5 5t26 21.5t29.5 24.5t41 14q57 8 121.5 -12.5t114.5 -42.5q41 -70 74.5 -147.5t27.5 -170.5q-6 -47 -29.5 -99t-53.5 -105.5t-61.5 -102.5t-52.5 -88q-8 -10 -19 -24.5t-21.5 -28.5t-17.5 -27.5t-7 -19.5q-14 -35 -28.5 -45.5 t-31.5 -32.5q-20 -20 -37.5 -45t-35 -49.5t-35 -46t-37.5 -35.5q0 -43 -8 -67.5t8 -45.5q76 0 175 6t207.5 11.5t221.5 7.5t219 -6q-14 20 -9 41.5t-9 44.5q-25 -12 -51.5 -13.5t-52 1.5t-52 7.5t-51.5 4.5q-92 0 -168 -9.5t-131 -9.5q-23 0 -44.5 -3t-43 -3t-39.5 4t-33 21 q20 45 52 87t69 84t76 86t74 97q57 98 105 209.5t54 241.5q8 109 -28.5 200.5t-105 148t-163 70t-198.5 -36.5q-18 -8 -40 -18t-36 -25.5t-15 -35z" />
<glyph unicode="&#xbe;" horiz-adv-x="2308" d="M5 1366q-3 10 1 27q63 31 140 38t151 -5.5t140.5 -44t113.5 -81.5q39 -43 65.5 -105t37 -130t2 -133.5t-41.5 -112.5q-12 -16 -34.5 -29.5t-36.5 -31.5q-8 -10 -30.5 -43t-57.5 -56q39 -18 83 -46.5t80.5 -65.5t61.5 -83t29 -97q4 -53 -9.5 -95.5t-38 -76t-58.5 -62.5 t-71 -53q-39 -25 -73.5 -38t-71.5 -19.5t-79 -8.5t-97 -4q-25 -2 -56.5 1t-61.5 8.5t-53.5 12.5t-31.5 13q8 29 11.5 48.5t4.5 38t3 41t10 58.5q53 -16 128 -19t149.5 6t141 28.5t105.5 48.5q20 86 -7.5 135t-85.5 73.5t-135 29t-155 2.5q-29 49 -32 96t-5 117 q66 -6 125.5 13t107.5 56t83 88t51 111q-18 61 -56 116.5t-87.5 94.5t-106.5 55t-117 0q-16 -4 -25.5 -11t-17.5 -14.5t-17 -12.5t-22 -3q-14 -2 -16 8.5t-2 23.5t-2 25.5t-14 12.5q2 14 -2.5 22t-9.5 15.5t-8 17.5zM51 1354q14 -25 21.5 -25t29.5 -2q43 0 77 -1t65.5 -7 t62.5 -18.5t66 -34.5q14 -10 29.5 -33t31.5 -39q23 -20 41.5 -37.5t32.5 -34.5q20 -29 28.5 -62.5t5.5 -65t-16.5 -61.5t-38.5 -50q-4 -4 0.5 -14.5t-0.5 -14.5q-12 -16 -33.5 -35.5t-44 -38t-47 -35t-43.5 -24.5q-31 -10 -65.5 -18.5t-67.5 -8.5q0 -23 1 -36t1 -24t1 -23.5 t6 -30.5q94 8 183 -10.5t148.5 -61.5t75.5 -111.5t-35 -163.5q-43 -18 -107.5 -33.5t-135 -23.5t-138 -7t-116.5 17q-2 -41 -6.5 -64.5t14.5 -53.5q68 -16 135.5 -15.5t130 13t116.5 36t91 52.5q14 10 34.5 19t28.5 15q12 14 23.5 36t20 45.5t13.5 44t5 34.5q0 63 -29 104.5 t-63 73.5q-29 33 -68 62.5t-82 34.5q-29 4 -56.5 -3.5t-52 -13.5t-44 -2t-33.5 29q53 27 102 35t84 39q16 12 43 38.5t53.5 57.5t47 59.5t26.5 44.5q16 45 15 99.5t-13 106.5t-34.5 96t-47.5 71q-23 25 -64.5 46.5t-92 36.5t-103.5 25.5t-96 10.5q-35 0 -66.5 -10.5 t-50.5 -34.5zM822 99.5q7 58.5 28.5 150.5t51.5 210t63.5 246t67.5 254.5t62.5 236.5t47 195t22.5 126q31 -2 64 -4.5t58.5 -4.5t40.5 -5t15 -7q-2 -16 -15 -88t-34.5 -178.5t-50.5 -237.5t-59.5 -266t-61 -263t-59.5 -228.5t-51.5 -162t-36.5 -63.5q-37 -6 -52.5 -9 t-26.5 -1t-24.5 10t-46.5 25q-10 6 -3 64.5zM850 55q25 -23 47 -21.5t53 15.5q20 45 50 143.5t64 228.5t68.5 278.5t67.5 291t61.5 268t47.5 211.5q-39 10 -57.5 7.5t-49.5 3.5q-96 -381 -191 -738.5t-161 -687.5zM1370 516q12 66 43 118t47 105q27 86 49.5 167t42 164 t39 169t39.5 182q12 6 38 8.5t54.5 1.5t56 -5.5t48.5 -12.5q6 -29 3 -55.5t-11.5 -53t-18.5 -53t-18 -53.5q-14 -57 -18.5 -118.5t-26.5 -114.5q-12 -39 -39 -72t-39 -72q-10 -29 -14.5 -57.5t-14.5 -56.5q-2 -6 -5 -10.5t-3 -10.5q53 2 112.5 7t120 6t121 -3t113.5 -18 q47 16 103.5 13t101.5 -21q2 -10 5 -26.5t3 -37t-4 -40t-13 -31.5h-63.5t-78.5 1t-84 1t-81 -2q-16 -117 -36.5 -248t-61.5 -262q-35 -6 -75 -12.5t-77 3.5q-6 61 7.5 123t29 125.5t25.5 131t0 139.5q-49 -4 -104.5 -8.5t-110.5 -7.5t-108.5 -5t-96.5 2zM1436 551 q55 2 106 7t100.5 9t99.5 6t105 -2q2 -92 -5 -159.5t-18.5 -126t-24.5 -113.5t-26 -123h54q20 66 34.5 130.5t25.5 130t22.5 132t27.5 138.5q66 -14 150 -9.5t162 0.5q2 18 0 40t8 30q-43 16 -76 8t-84 -8q-45 0 -87 7t-89 7q-51 0 -102 -6q-63 -4 -126 -4t-124 -12 q-10 59 3 111.5t34.5 100.5t46 95t41.5 96q27 84 42 170t37 178q-18 4 -39.5 2.5t-31.5 6.5q2 -10 -3 -16.5t-13.5 -9.5t-14.5 -3t-4 4q-14 -23 -12 -54.5t-6 -62.5q-4 -23 -13.5 -44t-13.5 -46q-23 -111 -49.5 -213t-48.5 -180q-37 -119 -88 -217z" />
<glyph unicode="&#xbf;" horiz-adv-x="733" d="M15 396q2 41 17 103.5t40 102.5q4 4 18.5 15.5t22.5 19.5q41 47 102.5 77t137.5 48q10 49 10 109.5t-4 124t-8.5 125t-2.5 110.5q8 6 5 12.5t-9 12.5t-8 13t6 15q41 -2 71 5.5t66 -7.5q-8 -82 -0.5 -163.5t13.5 -162.5t3 -162t-30 -159q-61 4 -115.5 -18.5t-93.5 -62.5 t-59.5 -95t-13.5 -121q4 -41 25.5 -75.5t53 -56t72.5 -22.5t82 25q98 66 156 187q20 -8 32.5 -20.5t21.5 -27t18.5 -31t23.5 -32.5q-25 -53 -57.5 -100t-73.5 -82t-91 -53.5t-110 -14.5q-70 4 -130 36t-104 81t-68 111.5t-19 132.5zM41 371q0 -76 42 -144.5t107.5 -111.5 t145.5 -50t156 42q25 16 44 38.5t34.5 47t32 49.5t34.5 45q-20 10 -30.5 24.5t-22.5 30.5q-20 -35 -51 -76.5t-69 -73.5t-84 -48.5t-95 0.5q-63 20 -96 84.5t-33 142.5t30.5 151.5t92.5 112.5q39 23 80 28t88 19q16 90 17 156t-5 127t-11 128t-1 155q-25 2 -46.5 2 t-35.5 -11q23 -117 29 -241.5t-5 -265.5q-72 -8 -135 -36t-110 -74t-75 -109.5t-28 -141.5zM283 1471q4 41 37 62.5t70.5 21.5t69.5 -19.5t34 -62.5q2 -59 -44 -83.5t-120 -10.5q-20 29 -35.5 46t-11.5 46zM318 1454q2 -27 25.5 -39t49 -9t46 23.5t18.5 59.5q-16 25 -40 30 t-46.5 -2t-37.5 -23.5t-15 -39.5z" />
<glyph unicode="&#xc0;" horiz-adv-x="1353" d="M-74 72q-2 6 8.5 27.5t25.5 48t31.5 53t26.5 43.5q27 49 49.5 92t44 84t43 83t46.5 89q57 109 115.5 232.5t111.5 248.5t99 243t81 214h33q-12 -14 -3 -41t11 -51q47 -92 85 -186.5t79 -198.5q18 -51 32.5 -93t37.5 -102q35 -86 82 -164t82 -162q18 -45 39.5 -99 t44 -110.5t45 -109.5t43.5 -94q14 -18 23 -28.5t14.5 -20t5.5 -23.5t-2 -41q-20 2 -46 1t-48.5 -2t-42 -2t-27.5 3q-23 10 -40.5 39t-33.5 62.5t-31.5 64.5t-34.5 43q-94 -4 -196.5 -12t-203.5 -14.5t-197.5 -3.5t-178.5 22q8 -25 0 -52.5t-26.5 -56t-41 -53.5t-42.5 -43 q-6 8 -28 15.5t-46.5 14.5t-45 16t-24.5 24zM-25 72q45 -23 77 -6.5t56.5 50.5t41 77t30.5 73q63 -18 115.5 -24t97.5 -6t87 4t87 4q84 4 183.5 13t205.5 22q16 -12 35 -42t35 -64t29.5 -67.5t19.5 -56.5q18 -4 35.5 0t35 7t33 3t29.5 -10q-70 160 -145.5 328t-151 339 t-147.5 342t-133 339q-12 4 -16.5 8t-16.5 4q-4 -57 -23.5 -90t-35.5 -76q-82 -205 -169 -395.5t-180 -376.5q-27 -53 -56.5 -101t-59 -95.5t-55 -96.5t-44.5 -106zM250 397q45 86 92 171t92 172t85 179.5t71 192.5q-4 10 8 10q16 16 21.5 5t21.5 -15q14 -117 51 -206 t78 -169t77 -162t48 -186q-111 -10 -229.5 -7t-229.5 7q-25 0 -50.5 -2t-49 -4t-46 1t-40.5 13zM315 430q80 -8 150 -6t134.5 5t126.5 5t128 -4q-20 80 -50 148.5t-63.5 134t-65.5 133t-57 145.5q0 10 -10 10q-37 -80 -68.5 -156.5t-65.5 -148t-72 -138.5t-87 -128z M383 1882q-2 12 4 17.5t4 19.5q20 2 54 5t71 4t72.5 1t62.5 -2q-6 -43 12.5 -82t43 -80t47 -87t24.5 -101q-61 -16 -103 -5t-72 39.5t-53.5 67.5t-47 79t-51 74t-68.5 50zM446 1890q33 -41 67 -96t69.5 -101t72.5 -73t80 -10q-29 72 -60.5 150.5t-74.5 133.5 q-10 -6 -29.5 -6t-42 1t-44.5 2t-38 -1z" />
<glyph unicode="&#xc1;" horiz-adv-x="1353" d="M-74 72q-2 6 8.5 27.5t25.5 48t31.5 53t26.5 43.5q27 49 49.5 92t44 84t43 83t46.5 89q57 109 115.5 232.5t111.5 248.5t99 243t81 214h33q-12 -14 -3 -41t11 -51q47 -92 85 -186.5t79 -198.5q18 -51 32.5 -93t37.5 -102q35 -86 82 -164t82 -162q18 -45 39.5 -99 t44 -110.5t45 -109.5t43.5 -94q14 -18 23 -28.5t14.5 -20t5.5 -23.5t-2 -41q-20 2 -46 1t-48.5 -2t-42 -2t-27.5 3q-23 10 -40.5 39t-33.5 62.5t-31.5 64.5t-34.5 43q-94 -4 -196.5 -12t-203.5 -14.5t-197.5 -3.5t-178.5 22q8 -25 0 -52.5t-26.5 -56t-41 -53.5t-42.5 -43 q-6 8 -28 15.5t-46.5 14.5t-45 16t-24.5 24zM-25 72q45 -23 77 -6.5t56.5 50.5t41 77t30.5 73q63 -18 115.5 -24t97.5 -6t87 4t87 4q84 4 183.5 13t205.5 22q16 -12 35 -42t35 -64t29.5 -67.5t19.5 -56.5q18 -4 35.5 0t35 7t33 3t29.5 -10q-70 160 -145.5 328t-151 339 t-147.5 342t-133 339q-12 4 -16.5 8t-16.5 4q-4 -57 -23.5 -90t-35.5 -76q-82 -205 -169 -395.5t-180 -376.5q-27 -53 -56.5 -101t-59 -95.5t-55 -96.5t-44.5 -106zM250 397q45 86 92 171t92 172t85 179.5t71 192.5q-4 10 8 10q16 16 21.5 5t21.5 -15q14 -117 51 -206 t78 -169t77 -162t48 -186q-111 -10 -229.5 -7t-229.5 7q-25 0 -50.5 -2t-49 -4t-46 1t-40.5 13zM315 430q80 -8 150 -6t134.5 5t126.5 5t128 -4q-20 80 -50 148.5t-63.5 134t-65.5 133t-57 145.5q0 10 -10 10q-37 -80 -68.5 -156.5t-65.5 -148t-72 -138.5t-87 -128z M381 1577q2 55 24.5 101t47 87t43 80t12.5 82q27 2 62.5 2t72.5 -1t71 -4t54 -5q-2 -14 4 -19.5t4 -17.5q-41 -16 -68.5 -50t-51 -74t-47 -79t-53.5 -67.5t-72 -39.5t-103 5zM424 1610q43 -16 80 10.5t72.5 72.5t68.5 101t68 96q-16 2 -38 1t-44.5 -2t-42 -1t-29.5 6 q-43 -55 -74.5 -134t-60.5 -150z" />
<glyph unicode="&#xc2;" horiz-adv-x="1353" d="M-74 72q-2 6 8.5 27.5t25.5 48t31.5 53t26.5 43.5q27 49 49.5 92t44 84t43 83t46.5 89q57 109 115.5 232.5t111.5 248.5t99 243t81 214h33q-12 -14 -3 -41t11 -51q47 -92 85 -186.5t79 -198.5q18 -51 32.5 -93t37.5 -102q35 -86 82 -164t82 -162q18 -45 39.5 -99 t44 -110.5t45 -109.5t43.5 -94q14 -18 23 -28.5t14.5 -20t5.5 -23.5t-2 -41q-20 2 -46 1t-48.5 -2t-42 -2t-27.5 3q-23 10 -40.5 39t-33.5 62.5t-31.5 64.5t-34.5 43q-94 -4 -196.5 -12t-203.5 -14.5t-197.5 -3.5t-178.5 22q8 -25 0 -52.5t-26.5 -56t-41 -53.5t-42.5 -43 q-6 8 -28 15.5t-46.5 14.5t-45 16t-24.5 24zM-25 72q45 -23 77 -6.5t56.5 50.5t41 77t30.5 73q63 -18 115.5 -24t97.5 -6t87 4t87 4q84 4 183.5 13t205.5 22q16 -12 35 -42t35 -64t29.5 -67.5t19.5 -56.5q18 -4 35.5 0t35 7t33 3t29.5 -10q-70 160 -145.5 328t-151 339 t-147.5 342t-133 339q-12 4 -16.5 8t-16.5 4q-4 -57 -23.5 -90t-35.5 -76q-82 -205 -169 -395.5t-180 -376.5q-27 -53 -56.5 -101t-59 -95.5t-55 -96.5t-44.5 -106zM250 397q45 86 92 171t92 172t85 179.5t71 192.5q-4 10 8 10q16 16 21.5 5t21.5 -15q14 -117 51 -206 t78 -169t77 -162t48 -186q-111 -10 -229.5 -7t-229.5 7q-25 0 -50.5 -2t-49 -4t-46 1t-40.5 13zM315 430q80 -8 150 -6t134.5 5t126.5 5t128 -4q-20 80 -50 148.5t-63.5 134t-65.5 133t-57 145.5q0 10 -10 10q-37 -80 -68.5 -156.5t-65.5 -148t-72 -138.5t-87 -128z M354 1595q18 57 47 104.5t58 98.5q29 43 53.5 92.5t40.5 108.5q98 -12 168 -31q27 -31 49.5 -70.5t44 -80.5t45 -81t53.5 -69q-6 -12 -22.5 -18.5t-35.5 -11.5t-36.5 -11t-23.5 -16q-23 25 -39.5 52.5t-33.5 56t-36.5 53t-46.5 43.5q-4 -31 -18.5 -51.5t-30 -39t-29.5 -40 t-16 -54.5q-41 -10 -88 -17t-103 -18zM401 1638q55 -8 89 13.5t55.5 57.5t38 78t39.5 77q33 -8 59.5 -38t48 -65t39 -65.5t31.5 -42.5q-10 8 -6 10t17 3t29.5 3t30.5 8q-53 98 -82.5 141.5t-46 60.5t-22.5 21.5t-8 22.5q-6 6 -25.5 13.5t-42 12.5t-43 9t-29.5 4 q-35 -78 -79.5 -168t-92.5 -156z" />
<glyph unicode="&#xc3;" horiz-adv-x="1353" d="M-74 72q-2 6 8.5 27.5t25.5 48t31.5 53t26.5 43.5q27 49 49.5 92t44 84t43 83t46.5 89q57 109 115.5 232.5t111.5 248.5t99 243t81 214h33q-12 -14 -3 -41t11 -51q47 -92 85 -186.5t79 -198.5q18 -51 32.5 -93t37.5 -102q35 -86 82 -164t82 -162q18 -45 39.5 -99 t44 -110.5t45 -109.5t43.5 -94q14 -18 23 -28.5t14.5 -20t5.5 -23.5t-2 -41q-20 2 -46 1t-48.5 -2t-42 -2t-27.5 3q-23 10 -40.5 39t-33.5 62.5t-31.5 64.5t-34.5 43q-94 -4 -196.5 -12t-203.5 -14.5t-197.5 -3.5t-178.5 22q8 -25 0 -52.5t-26.5 -56t-41 -53.5t-42.5 -43 q-6 8 -28 15.5t-46.5 14.5t-45 16t-24.5 24zM-25 72q45 -23 77 -6.5t56.5 50.5t41 77t30.5 73q63 -18 115.5 -24t97.5 -6t87 4t87 4q84 4 183.5 13t205.5 22q16 -12 35 -42t35 -64t29.5 -67.5t19.5 -56.5q18 -4 35.5 0t35 7t33 3t29.5 -10q-70 160 -145.5 328t-151 339 t-147.5 342t-133 339q-12 4 -16.5 8t-16.5 4q-4 -57 -23.5 -90t-35.5 -76q-82 -205 -169 -395.5t-180 -376.5q-27 -53 -56.5 -101t-59 -95.5t-55 -96.5t-44.5 -106zM250 397q45 86 92 171t92 172t85 179.5t71 192.5q-4 10 8 10q16 16 21.5 5t21.5 -15q14 -117 51 -206 t78 -169t77 -162t48 -186q-111 -10 -229.5 -7t-229.5 7q-25 0 -50.5 -2t-49 -4t-46 1t-40.5 13zM315 430q80 -8 150 -6t134.5 5t126.5 5t128 -4q-20 80 -50 148.5t-63.5 134t-65.5 133t-57 145.5q0 10 -10 10q-37 -80 -68.5 -156.5t-65.5 -148t-72 -138.5t-87 -128z M322 1608q6 45 12 76.5t18.5 55t33 40t50.5 35.5q31 16 65 28t68.5 17.5t69.5 -2t66 -29.5q20 -16 35.5 -36.5t29.5 -40t27.5 -35t29.5 -17.5q31 -6 56.5 7t45 35.5t32 49.5t18.5 45q35 0 67.5 -1t47.5 -21q2 -23 -4.5 -15t-18.5 6q6 -31 -7 -67.5t-39 -69.5t-61.5 -56.5 t-76.5 -27.5q-45 -6 -80 6.5t-63.5 35t-51 53t-43.5 65.5q-45 6 -82 -2t-67.5 -28.5t-54 -48.5t-39.5 -58q-16 0 -27.5 -2t-21 -3t-17.5 -1t-18 6zM352 1630q18 4 30.5 17.5t24 30t22.5 32.5t30 29q23 14 52.5 27.5t53.5 17.5q43 4 70 -4t45 -26.5t31.5 -44.5t29.5 -54 q33 -10 57.5 -25.5t57.5 -13.5q18 0 44 9t50.5 24.5t45 35t30.5 37.5q4 10 8 25.5t6 29t0 22.5t-8 7q-16 2 -23.5 -4t-11.5 -15t-5 -21.5t-5 -20.5q-33 -25 -65.5 -50.5t-79.5 -33.5q-35 8 -58.5 30.5t-43 47t-40 49t-51.5 41.5q-133 0 -203.5 -48t-93.5 -151z" />
<glyph unicode="&#xc4;" horiz-adv-x="1353" d="M-74 72q-2 6 8.5 27.5t25.5 48t31.5 53t26.5 43.5q27 49 49.5 92t44 84t43 83t46.5 89q57 109 115.5 232.5t111.5 248.5t99 243t81 214h33q-12 -14 -3 -41t11 -51q47 -92 85 -186.5t79 -198.5q18 -51 32.5 -93t37.5 -102q35 -86 82 -164t82 -162q18 -45 39.5 -99 t44 -110.5t45 -109.5t43.5 -94q14 -18 23 -28.5t14.5 -20t5.5 -23.5t-2 -41q-20 2 -46 1t-48.5 -2t-42 -2t-27.5 3q-23 10 -40.5 39t-33.5 62.5t-31.5 64.5t-34.5 43q-94 -4 -196.5 -12t-203.5 -14.5t-197.5 -3.5t-178.5 22q8 -25 0 -52.5t-26.5 -56t-41 -53.5t-42.5 -43 q-6 8 -28 15.5t-46.5 14.5t-45 16t-24.5 24zM-25 72q45 -23 77 -6.5t56.5 50.5t41 77t30.5 73q63 -18 115.5 -24t97.5 -6t87 4t87 4q84 4 183.5 13t205.5 22q16 -12 35 -42t35 -64t29.5 -67.5t19.5 -56.5q18 -4 35.5 0t35 7t33 3t29.5 -10q-70 160 -145.5 328t-151 339 t-147.5 342t-133 339q-12 4 -16.5 8t-16.5 4q-4 -57 -23.5 -90t-35.5 -76q-82 -205 -169 -395.5t-180 -376.5q-27 -53 -56.5 -101t-59 -95.5t-55 -96.5t-44.5 -106zM250 397q45 86 92 171t92 172t85 179.5t71 192.5q-4 10 8 10q16 16 21.5 5t21.5 -15q14 -117 51 -206 t78 -169t77 -162t48 -186q-111 -10 -229.5 -7t-229.5 7q-25 0 -50.5 -2t-49 -4t-46 1t-40.5 13zM315 430q80 -8 150 -6t134.5 5t126.5 5t128 -4q-20 80 -50 148.5t-63.5 134t-65.5 133t-57 145.5q0 10 -10 10q-37 -80 -68.5 -156.5t-65.5 -148t-72 -138.5t-87 -128z M381 1640q-10 51 4 84t42 48.5t60.5 14.5t62.5 -14.5t48 -37t14 -56.5q-4 -31 -30.5 -50t-62.5 -24.5t-73.5 3.5t-64.5 32zM412 1653q29 -10 59.5 -15.5t53 -1.5t35.5 19.5t9 48.5q-18 33 -46.5 45t-56.5 4t-44 -33.5t-10 -66.5zM727 1624q-4 98 45 141h24.5h22.5t27.5 2.5 t40.5 6.5q14 -14 29.5 -26.5t27.5 -25t19.5 -28t3.5 -35.5q-4 -33 -33 -49.5t-66 -19.5t-75.5 6.5t-65.5 27.5zM753 1657.5q1 -13.5 11 -21.5q14 -10 45 -17t61.5 -3t52 21.5t17.5 58.5q-12 16 -33.5 26.5t-45 15.5t-45 4t-32.5 -9q-8 -8 -16 -20.5t-12 -27t-3 -28z" />
<glyph unicode="&#xc5;" horiz-adv-x="1353" d="M-74 72q-2 6 8.5 27.5t25.5 48t31.5 53t26.5 43.5q27 49 49.5 92t44 84t43 83t46.5 89q57 109 115.5 232.5t111.5 248.5t99 243t81 214h33q-12 -14 -3 -41t11 -51q47 -92 85 -186.5t79 -198.5q18 -51 32.5 -93t37.5 -102q35 -86 82 -164t82 -162q18 -45 39.5 -99 t44 -110.5t45 -109.5t43.5 -94q14 -18 23 -28.5t14.5 -20t5.5 -23.5t-2 -41q-20 2 -46 1t-48.5 -2t-42 -2t-27.5 3q-23 10 -40.5 39t-33.5 62.5t-31.5 64.5t-34.5 43q-94 -4 -196.5 -12t-203.5 -14.5t-197.5 -3.5t-178.5 22q8 -25 0 -52.5t-26.5 -56t-41 -53.5t-42.5 -43 q-6 8 -28 15.5t-46.5 14.5t-45 16t-24.5 24zM-25 72q45 -23 77 -6.5t56.5 50.5t41 77t30.5 73q63 -18 115.5 -24t97.5 -6t87 4t87 4q84 4 183.5 13t205.5 22q16 -12 35 -42t35 -64t29.5 -67.5t19.5 -56.5q18 -4 35.5 0t35 7t33 3t29.5 -10q-70 160 -145.5 328t-151 339 t-147.5 342t-133 339q-12 4 -16.5 8t-16.5 4q-4 -57 -23.5 -90t-35.5 -76q-82 -205 -169 -395.5t-180 -376.5q-27 -53 -56.5 -101t-59 -95.5t-55 -96.5t-44.5 -106zM250 397q45 86 92 171t92 172t85 179.5t71 192.5q-4 10 8 10q16 16 21.5 5t21.5 -15q14 -117 51 -206 t78 -169t77 -162t48 -186q-111 -10 -229.5 -7t-229.5 7q-25 0 -50.5 -2t-49 -4t-46 1t-40.5 13zM315 430q80 -8 150 -6t134.5 5t126.5 5t128 -4q-20 80 -50 148.5t-63.5 134t-65.5 133t-57 145.5q0 10 -10 10q-37 -80 -68.5 -156.5t-65.5 -148t-72 -138.5t-87 -128z M445.5 1686.5q-17.5 48.5 5 98.5t100.5 87q68 18 122 -0.5t90 -57t49 -87t-1 -90.5t-59 -66.5t-127 -14.5q-66 8 -114 45t-65.5 85.5zM496 1743q-12 -31 2 -60.5t42.5 -51t65.5 -33t72 -6.5t61.5 31t34.5 77q4 47 -35 84t-90 50t-98 -6t-55 -85z" />
<glyph unicode="&#xc6;" horiz-adv-x="2064" d="M25 72q4 -8 36.5 46t84 148t118 218t137 255t142 258t135 228.5t114 166t78.5 70.5q57 -55 119 -119.5t121 -123.5q12 33 13 80t6.5 90t20.5 72.5t54 29.5l744 4q16 -14 28.5 -36.5t18.5 -48.5t6 -52.5t-6 -46.5q-70 -33 -155 -45.5t-171 -19.5t-169 -18t-146 -42 q6 -27 6 -59.5t1 -66.5t5 -64.5t14 -55.5q51 -6 117 -2t133.5 8t133 3t116.5 -17q31 -10 49.5 -39t25.5 -64.5t7 -72.5t-2 -62q-72 -16 -143.5 -24t-144.5 -15.5t-147.5 -15.5t-150.5 -23q8 -41 16.5 -74.5t14.5 -69.5t11 -74t7 -85q53 6 135 13.5t164 15.5t149.5 14t94.5 9 q27 -31 32 -62t2 -62.5t-7 -64.5t6 -67q-102 -18 -203.5 -30.5t-199 -23t-188.5 -19.5t-173 -24q-23 18 -36 42t-24.5 48.5t-23.5 49t-31 43.5q-68 -2 -154.5 3t-179 12t-184.5 12t-170 3q-41 -53 -58.5 -95t-35.5 -89q-29 6 -59.5 4t-69.5 -2t-84 5t-100 24zM94 96 q68 -8 118 -8t93 -6q25 53 56.5 95t41.5 71q86 23 173.5 19.5t175.5 -15.5t174 -23.5t168 -5.5q39 2 60.5 -14t34.5 -43t23.5 -55.5t26.5 -49.5q100 2 191.5 9.5t179.5 16.5t175 19.5t179 16.5q0 59 -1 109.5t-3 91.5q-76 -2 -167 -14.5t-173 -24t-142.5 -16.5t-76.5 7 q-14 39 -20.5 82t-12.5 89.5t-16.5 96.5t-32.5 103q29 10 81 18.5t115.5 15.5t132 12t126 10.5t99.5 11.5t54 14q2 14 -1 39t-11 51.5t-20.5 49t-30.5 32.5q-33 -8 -89.5 -7t-127 4t-151.5 2t-167 -11q-8 25 -14 66.5t-9 88t-3 91.5t4 75q49 23 143 37.5t195.5 27.5 t191.5 26.5t133 33.5q-10 6 -12 22.5t-3 34t-4 34t-14 26.5l-753 -6q-2 -80 -3 -149.5t-40 -139.5q-41 18 -76 49t-68.5 66t-68.5 69.5t-74 63.5q-25 -33 -82 -130t-132 -228.5t-159 -278.5t-160.5 -281.5t-137 -240t-89.5 -150.5zM468 402.5q5 29.5 24.5 81t49 118 t64.5 137t73 138t70.5 121t60.5 85t44 31.5q20 -2 47 -52t57.5 -126t61.5 -167t58.5 -176t50 -152.5t34.5 -96.5q-33 8 -90 15.5t-126.5 13.5t-144.5 9t-140.5 4t-115.5 -1t-71 -8q-12 -4 -7 25.5zM506 422q68 4 149.5 2t163.5 -6t158 -9.5t131 -5.5q-29 80 -60.5 186.5 t-66.5 208t-69.5 179.5t-65.5 98q-49 -66 -96.5 -146.5t-90.5 -167.5t-81.5 -174t-71.5 -165z" />
<glyph unicode="&#xc7;" horiz-adv-x="1077" d="M20 866q10 86 37 156t68 135q27 12 47.5 31.5t38.5 42t37.5 44t44.5 40.5q27 18 66.5 38.5t82.5 40t86 37t78 31.5q90 33 182.5 56.5t186.5 15.5q18 -57 -29 -143q-29 -2 -47 4t-39 10q-10 -4 -21.5 -12.5t-22.5 -14.5t-23.5 -7t-26.5 11q-16 -18 -36.5 -25t-45.5 -18 q-2 0 -11 -5t-18.5 -8t-16.5 -2t-7 15q-10 -10 -19.5 -21t-21.5 -18q-51 -12 -93 -32.5t-77 -34.5q-20 -10 -48 -34.5t-55.5 -58.5t-53 -75t-44.5 -84q-4 -16 -4 -31.5t-4 -31.5q-10 -29 -16.5 -51.5t-9.5 -47t-2 -53.5t7 -68q4 -25 5.5 -57.5t5.5 -36.5q10 -31 29.5 -65.5 t42 -66.5t47 -60.5t47.5 -46.5q59 -53 132.5 -79t158.5 -34t180.5 -4t197.5 10q10 -16 14.5 -39.5t5.5 -49.5t3 -52.5t10 -46.5q-66 -33 -153 -44.5t-181 -6t-185 24.5t-163 48q-59 23 -98 60.5t-78 54.5q-47 61 -86 133t-65.5 155t-38 175t-1.5 196zM63 678 q2 -47 16.5 -104.5t36 -115t48 -109.5t55.5 -91q51 -68 143.5 -111t204 -62t231.5 -17t228 24q-2 29 -3 55.5t-7 69.5q-51 2 -98.5 -2t-90.5 -10t-85 -9t-83 1q-51 4 -95 17t-85 32.5t-81 44t-83 49.5q-8 27 -22 46.5t-30.5 35.5t-33 34.5t-28.5 41.5q-18 33 -32.5 81 t-23 100t-8.5 101t10 86q20 76 44 139.5t56 113.5t73.5 89t99.5 68q35 16 79 37.5t91 38.5q43 12 89 31.5t87 31.5q23 4 49.5 2t53 -2t49 7.5t36.5 29.5q-8 41 -27 49t-48 4q-43 -10 -96.5 -27.5t-107.5 -39t-105.5 -43t-88.5 -37.5q-35 -16 -71.5 -26.5t-65.5 -26.5 q-78 -49 -133 -118t-90 -150t-49.5 -173t-8.5 -186zM365 -373q-2 37 9 71t32.5 60.5t51 42t64.5 15.5q-12 78 -23.5 138t-27.5 126q39 2 70.5 -6t81.5 -6q18 -29 21 -72t0 -89t-7 -92t0 -79q-12 0 -30.5 -3t-36 -9.5t-30 -13.5t-12.5 -15q8 -43 43 -55.5t75 -12.5t78 2 t54 -12q4 -31 13.5 -49.5t19.5 -42.5q-20 -20 -61 -27.5t-90.5 -5.5t-100.5 14.5t-94 31t-70.5 41t-29.5 48.5zM395 -381q27 -35 71 -57.5t95 -31.5t106.5 -5t106.5 20q-4 10 -12 28t-10 32q-76 -6 -127.5 0t-81 21.5t-40.5 38t-9 44.5q23 29 55.5 40t66.5 7 q-10 59 -15 144.5t-3 150.5q-35 -4 -51.5 -4t-26.5 10q10 -78 28.5 -151.5t16.5 -134.5q-29 25 -63.5 13.5t-62 -39.5t-42 -63.5t-2.5 -62.5z" />
<glyph unicode="&#xc8;" horiz-adv-x="991" d="M52 1124.5q1 194.5 3 401.5q6 8 9.5 6t6.5 -8t7 -11.5t12 -5.5q12 0 6 10.5t6 8.5q18 -2 30.5 -14.5t43.5 -12.5q14 -2 19.5 3t19.5 5q66 0 138.5 -5t154.5 -15q20 -2 46 -5t40 -22q57 4 99 9.5t79 7.5t72 -1t78 -16q16 -47 16 -99t-25 -89q-68 4 -147.5 7t-162.5 5 t-164 3t-150 1q23 -86 19.5 -201.5t-36.5 -250.5q33 -8 71 -9.5t76 -0.5t72.5 1t63.5 -8q0 4 -2 6q-4 4 -6 2q45 -6 84 -8t78 -3t84 -2t102 -5q4 -45 7 -101.5t-7 -99.5q-41 -10 -83 -21.5t-87 -13.5q-18 -4 -20.5 6.5t-6.5 10.5q-12 4 -20 -8.5t-19 -8.5q-41 4 -84 13.5 t-89 16.5t-96 10t-101 -5q2 -35 1 -90t-4 -114.5t-5 -113.5t0 -87q-4 10 3 13t18 5t24.5 4t21.5 8q68 -4 140.5 2.5t143 10.5t138.5 -1t125 -34q4 -16 7 -40t4 -48.5t-2 -48t-9 -39.5q-82 -14 -191.5 -20.5t-222 -6.5t-217 2t-174.5 4q-18 180 -26.5 361.5t-10.5 368t-1 381 zM79 726q-1 -103 11 -200q16 -129 30.5 -241.5t0.5 -202.5q88 -16 174 -19.5t176 -1.5t187.5 6.5t207.5 2.5v114q-86 8 -161.5 8.5t-148.5 -5t-146.5 -12.5t-155.5 -11q-16 20 -18.5 44.5t1 53.5t9.5 59.5t8 61.5q4 78 -3 155.5t3 129.5q76 0 153.5 -7.5t153.5 -16.5 t150.5 -15t146.5 0q10 29 9 66.5t7 66.5q-78 6 -165.5 7t-173.5 2t-165 4t-137 13q23 129 25 264.5t4 282.5q8 -6 40 -7t69 0t68.5 0t39.5 -9q41 16 66.5 6t56.5 -25q-6 18 -3 19.5t11 -2.5t16.5 -10.5t14.5 -6.5q4 0 5 10.5t22 8.5q6 -2 14 -7t15.5 -10.5t14.5 -4.5t13 12 q10 12 32.5 12t47 -4t49.5 -8t41 0q-12 0 -8 8t10 23.5t11 34t-3 38.5q-29 18 -60.5 20.5t-64 0.5t-65.5 -3t-64 11q0 -16 -7 -18.5t-23 -2.5q-41 0 -94.5 13.5t-112.5 17.5q-104 4 -182 9t-142 14q4 -37 0 -74t0 -74q6 -90 3 -190.5t-8 -204t-6 -206.5zM258 1882 q-2 12 4 17.5t4 19.5q20 2 54 5t71 4t72.5 1t62.5 -2q-6 -43 12.5 -82t43 -80t47 -87t24.5 -101q-61 -16 -103 -5t-71.5 39.5t-53.5 67.5t-47.5 79t-51 74t-68.5 50zM322 1890q33 -41 66.5 -96t69.5 -101t72.5 -73t79.5 -10q-29 72 -60.5 150.5t-74.5 133.5q-10 -6 -29.5 -6 t-42 1t-44 2t-37.5 -1z" />
<glyph unicode="&#xc9;" horiz-adv-x="991" d="M52 1124.5q1 194.5 3 401.5q6 8 9.5 6t6.5 -8t7 -11.5t12 -5.5q12 0 6 10.5t6 8.5q18 -2 30.5 -14.5t43.5 -12.5q14 -2 19.5 3t19.5 5q66 0 138.5 -5t154.5 -15q20 -2 46 -5t40 -22q57 4 99 9.5t79 7.5t72 -1t78 -16q16 -47 16 -99t-25 -89q-68 4 -147.5 7t-162.5 5 t-164 3t-150 1q23 -86 19.5 -201.5t-36.5 -250.5q33 -8 71 -9.5t76 -0.5t72.5 1t63.5 -8q0 4 -2 6q-4 4 -6 2q45 -6 84 -8t78 -3t84 -2t102 -5q4 -45 7 -101.5t-7 -99.5q-41 -10 -83 -21.5t-87 -13.5q-18 -4 -20.5 6.5t-6.5 10.5q-12 4 -20 -8.5t-19 -8.5q-41 4 -84 13.5 t-89 16.5t-96 10t-101 -5q2 -35 1 -90t-4 -114.5t-5 -113.5t0 -87q-4 10 3 13t18 5t24.5 4t21.5 8q68 -4 140.5 2.5t143 10.5t138.5 -1t125 -34q4 -16 7 -40t4 -48.5t-2 -48t-9 -39.5q-82 -14 -191.5 -20.5t-222 -6.5t-217 2t-174.5 4q-18 180 -26.5 361.5t-10.5 368t-1 381 zM79 726q-1 -103 11 -200q16 -129 30.5 -241.5t0.5 -202.5q88 -16 174 -19.5t176 -1.5t187.5 6.5t207.5 2.5v114q-86 8 -161.5 8.5t-148.5 -5t-146.5 -12.5t-155.5 -11q-16 20 -18.5 44.5t1 53.5t9.5 59.5t8 61.5q4 78 -3 155.5t3 129.5q76 0 153.5 -7.5t153.5 -16.5 t150.5 -15t146.5 0q10 29 9 66.5t7 66.5q-78 6 -165.5 7t-173.5 2t-165 4t-137 13q23 129 25 264.5t4 282.5q8 -6 40 -7t69 0t68.5 0t39.5 -9q41 16 66.5 6t56.5 -25q-6 18 -3 19.5t11 -2.5t16.5 -10.5t14.5 -6.5q4 0 5 10.5t22 8.5q6 -2 14 -7t15.5 -10.5t14.5 -4.5t13 12 q10 12 32.5 12t47 -4t49.5 -8t41 0q-12 0 -8 8t10 23.5t11 34t-3 38.5q-29 18 -60.5 20.5t-64 0.5t-65.5 -3t-64 11q0 -16 -7 -18.5t-23 -2.5q-41 0 -94.5 13.5t-112.5 17.5q-104 4 -182 9t-142 14q4 -37 0 -74t0 -74q6 -90 3 -190.5t-8 -204t-6 -206.5zM256 1577 q2 55 24.5 101t47 87t43 80t12.5 82q27 2 62.5 2t72.5 -1t71 -4t54 -5q-2 -14 4 -19.5t4 -17.5q-41 -16 -68.5 -50t-51 -74t-47 -79t-53.5 -67.5t-72 -39.5t-103 5zM299 1610q43 -16 80 10.5t72.5 72.5t68.5 101t68 96q-16 2 -38 1t-44.5 -2t-42 -1t-29.5 6 q-43 -55 -74.5 -134t-60.5 -150z" />
<glyph unicode="&#xca;" horiz-adv-x="991" d="M52 1124.5q1 194.5 3 401.5q6 8 9.5 6t6.5 -8t7 -11.5t12 -5.5q12 0 6 10.5t6 8.5q18 -2 30.5 -14.5t43.5 -12.5q14 -2 19.5 3t19.5 5q66 0 138.5 -5t154.5 -15q20 -2 46 -5t40 -22q57 4 99 9.5t79 7.5t72 -1t78 -16q16 -47 16 -99t-25 -89q-68 4 -147.5 7t-162.5 5 t-164 3t-150 1q23 -86 19.5 -201.5t-36.5 -250.5q33 -8 71 -9.5t76 -0.5t72.5 1t63.5 -8q0 4 -2 6q-4 4 -6 2q45 -6 84 -8t78 -3t84 -2t102 -5q4 -45 7 -101.5t-7 -99.5q-41 -10 -83 -21.5t-87 -13.5q-18 -4 -20.5 6.5t-6.5 10.5q-12 4 -20 -8.5t-19 -8.5q-41 4 -84 13.5 t-89 16.5t-96 10t-101 -5q2 -35 1 -90t-4 -114.5t-5 -113.5t0 -87q-4 10 3 13t18 5t24.5 4t21.5 8q68 -4 140.5 2.5t143 10.5t138.5 -1t125 -34q4 -16 7 -40t4 -48.5t-2 -48t-9 -39.5q-82 -14 -191.5 -20.5t-222 -6.5t-217 2t-174.5 4q-18 180 -26.5 361.5t-10.5 368t-1 381 zM79 726q-1 -103 11 -200q16 -129 30.5 -241.5t0.5 -202.5q88 -16 174 -19.5t176 -1.5t187.5 6.5t207.5 2.5v114q-86 8 -161.5 8.5t-148.5 -5t-146.5 -12.5t-155.5 -11q-16 20 -18.5 44.5t1 53.5t9.5 59.5t8 61.5q4 78 -3 155.5t3 129.5q76 0 153.5 -7.5t153.5 -16.5 t150.5 -15t146.5 0q10 29 9 66.5t7 66.5q-78 6 -165.5 7t-173.5 2t-165 4t-137 13q23 129 25 264.5t4 282.5q8 -6 40 -7t69 0t68.5 0t39.5 -9q41 16 66.5 6t56.5 -25q-6 18 -3 19.5t11 -2.5t16.5 -10.5t14.5 -6.5q4 0 5 10.5t22 8.5q6 -2 14 -7t15.5 -10.5t14.5 -4.5t13 12 q10 12 32.5 12t47 -4t49.5 -8t41 0q-12 0 -8 8t10 23.5t11 34t-3 38.5q-29 18 -60.5 20.5t-64 0.5t-65.5 -3t-64 11q0 -16 -7 -18.5t-23 -2.5q-41 0 -94.5 13.5t-112.5 17.5q-104 4 -182 9t-142 14q4 -37 0 -74t0 -74q6 -90 3 -190.5t-8 -204t-6 -206.5zM236 1595 q18 57 46.5 104.5t57.5 98.5q29 43 53.5 92.5t40.5 108.5q98 -12 168 -31q27 -31 49.5 -70.5t44 -80.5t45 -81t54.5 -69q-6 -12 -22.5 -18.5t-36 -11.5t-37 -11t-23.5 -16q-23 25 -39 52.5t-33.5 56t-37 53t-46.5 43.5q-4 -31 -18.5 -51.5t-29.5 -39t-29.5 -40t-16.5 -54.5 q-41 -10 -88 -17t-102 -18zM283 1638q55 -8 89 13.5t55.5 57.5t37.5 78t39 77q33 -8 59.5 -38t48 -65t39 -65.5t31.5 -42.5q-10 8 -6 10t17.5 3t29.5 3t31 8q-53 98 -83 141.5t-46.5 60.5t-22.5 21.5t-8 22.5q-6 6 -25.5 13.5t-42 12.5t-43 9t-28.5 4q-35 -78 -80 -168 t-92 -156z" />
<glyph unicode="&#xcb;" horiz-adv-x="991" d="M52 1124.5q1 194.5 3 401.5q6 8 9.5 6t6.5 -8t7 -11.5t12 -5.5q12 0 6 10.5t6 8.5q18 -2 30.5 -14.5t43.5 -12.5q14 -2 19.5 3t19.5 5q66 0 138.5 -5t154.5 -15q20 -2 46 -5t40 -22q57 4 99 9.5t79 7.5t72 -1t78 -16q16 -47 16 -99t-25 -89q-68 4 -147.5 7t-162.5 5 t-164 3t-150 1q23 -86 19.5 -201.5t-36.5 -250.5q33 -8 71 -9.5t76 -0.5t72.5 1t63.5 -8q0 4 -2 6q-4 4 -6 2q45 -6 84 -8t78 -3t84 -2t102 -5q4 -45 7 -101.5t-7 -99.5q-41 -10 -83 -21.5t-87 -13.5q-18 -4 -20.5 6.5t-6.5 10.5q-12 4 -20 -8.5t-19 -8.5q-41 4 -84 13.5 t-89 16.5t-96 10t-101 -5q2 -35 1 -90t-4 -114.5t-5 -113.5t0 -87q-4 10 3 13t18 5t24.5 4t21.5 8q68 -4 140.5 2.5t143 10.5t138.5 -1t125 -34q4 -16 7 -40t4 -48.5t-2 -48t-9 -39.5q-82 -14 -191.5 -20.5t-222 -6.5t-217 2t-174.5 4q-18 180 -26.5 361.5t-10.5 368t-1 381 zM79 726q-1 -103 11 -200q16 -129 30.5 -241.5t0.5 -202.5q88 -16 174 -19.5t176 -1.5t187.5 6.5t207.5 2.5v114q-86 8 -161.5 8.5t-148.5 -5t-146.5 -12.5t-155.5 -11q-16 20 -18.5 44.5t1 53.5t9.5 59.5t8 61.5q4 78 -3 155.5t3 129.5q76 0 153.5 -7.5t153.5 -16.5 t150.5 -15t146.5 0q10 29 9 66.5t7 66.5q-78 6 -165.5 7t-173.5 2t-165 4t-137 13q23 129 25 264.5t4 282.5q8 -6 40 -7t69 0t68.5 0t39.5 -9q41 16 66.5 6t56.5 -25q-6 18 -3 19.5t11 -2.5t16.5 -10.5t14.5 -6.5q4 0 5 10.5t22 8.5q6 -2 14 -7t15.5 -10.5t14.5 -4.5t13 12 q10 12 32.5 12t47 -4t49.5 -8t41 0q-12 0 -8 8t10 23.5t11 34t-3 38.5q-29 18 -60.5 20.5t-64 0.5t-65.5 -3t-64 11q0 -16 -7 -18.5t-23 -2.5q-41 0 -94.5 13.5t-112.5 17.5q-104 4 -182 9t-142 14q4 -37 0 -74t0 -74q6 -90 3 -190.5t-8 -204t-6 -206.5zM256 1640 q-10 51 4 84t42 48.5t60.5 14.5t62.5 -14.5t48.5 -37t13.5 -56.5q-4 -31 -30.5 -50t-62.5 -24.5t-73.5 3.5t-64.5 32zM287 1653q29 -10 59.5 -15.5t53 -1.5t36 19.5t8.5 48.5q-18 33 -46.5 45t-56.5 4t-44 -33.5t-10 -66.5zM602 1624q-4 98 45 141h24.5h23t27.5 2.5t40 6.5 q14 -14 29.5 -26.5t27.5 -25t19.5 -28t3.5 -35.5q-4 -33 -33 -49.5t-65.5 -19.5t-75.5 6.5t-66 27.5zM628 1657.5q1 -13.5 11 -21.5q14 -10 45 -17t61.5 -3t52 21.5t17.5 58.5q-12 16 -33.5 26.5t-45 15.5t-45 4t-32.5 -9q-8 -8 -16 -20.5t-12 -27t-3 -28z" />
<glyph unicode="&#xcc;" horiz-adv-x="315" d="M-63 1882q-2 12 4 17.5t4 19.5q20 2 54 5t70.5 4t72.5 1t63 -2q-6 -43 12.5 -82t43 -80t47 -87t24.5 -101q-61 -16 -103.5 -5t-72 39.5t-53 67.5t-47 79t-51.5 74t-68 50zM0 1890q33 -41 66.5 -96t69.5 -101t73 -73t80 -10q-29 72 -60.5 150.5t-74.5 133.5q-10 -6 -30 -6 t-42.5 1t-44 2t-37.5 -1zM20 1540q66 -6 128.5 -15t117.5 -26q14 -16 11 -21t-13 -9.5t-19 -10.5t-3 -24q-10 -393 -11.5 -744.5t25.5 -677.5q-37 4 -63.5 2t-49 -3t-45 2t-49.5 18q-8 190 -7 382.5t2 384t-2.5 378t-21.5 364.5zM59 1485q6 -4 10.5 -8.5t2.5 -16.5 q2 -127 6 -227t8 -203q2 -125 5 -240.5t4 -232.5t-2 -238.5t-11 -259.5q25 -10 56.5 -0.5t74.5 -1.5q-14 160 -19.5 336t-7.5 358.5t0 367t2 362.5q-18 -6 -35.5 -2t-35 9t-31.5 6t-27 -9z" />
<glyph unicode="&#xcd;" horiz-adv-x="315" d="M-66 1577q2 55 25 101t47.5 87t42.5 80t12 82q27 2 63 2t72.5 -1t70.5 -4t55 -5q-2 -14 4 -19.5t4 -17.5q-41 -16 -69 -50t-51.5 -74t-47 -79t-53 -67.5t-71.5 -39.5t-104 5zM-23 1610q43 -16 80 10.5t73 72.5t68.5 101t67.5 96q-16 2 -37.5 1t-44 -2t-42 -1t-29.5 6 q-43 -55 -75 -134t-61 -150zM20 1540q66 -6 128.5 -15t117.5 -26q14 -16 11 -21t-13 -9.5t-19 -10.5t-3 -24q-10 -393 -11.5 -744.5t25.5 -677.5q-37 4 -63.5 2t-49 -3t-45 2t-49.5 18q-8 190 -7 382.5t2 384t-2.5 378t-21.5 364.5zM59 1485q6 -4 10.5 -8.5t2.5 -16.5 q2 -127 6 -227t8 -203q2 -125 5 -240.5t4 -232.5t-2 -238.5t-11 -259.5q25 -10 56.5 -0.5t74.5 -1.5q-14 160 -19.5 336t-7.5 358.5t0 367t2 362.5q-18 -6 -35.5 -2t-35 9t-31.5 6t-27 -9z" />
<glyph unicode="&#xce;" horiz-adv-x="315" d="M-127 1595q18 57 47 104.5t57 98.5q29 43 54 92.5t41 108.5q98 -12 168 -31q27 -31 49 -70.5t43.5 -80.5t45 -81t54.5 -69q-6 -12 -22.5 -18.5t-36 -11.5t-37 -11t-23.5 -16q-23 25 -39 52.5t-33.5 56t-37 53t-45.5 43.5q-4 -31 -18.5 -51.5t-30 -39t-29.5 -40t-17 -54.5 q-41 -10 -88 -17t-102 -18zM-80 1638q55 -8 89 13.5t55.5 57.5t38 78t38.5 77q33 -8 59.5 -38t48 -65t39 -65.5t31.5 -42.5q-10 8 -6 10t17.5 3t30 3t30.5 8q-53 98 -82.5 141.5t-46 60.5t-23 21.5t-8.5 22.5q-6 6 -25.5 13.5t-42 12.5t-43 9t-28.5 4q-35 -78 -80 -168 t-92 -156zM20 1540q66 -6 128.5 -15t117.5 -26q14 -16 11 -21t-13 -9.5t-19 -10.5t-3 -24q-10 -393 -11.5 -744.5t25.5 -677.5q-37 4 -63.5 2t-49 -3t-45 2t-49.5 18q-8 190 -7 382.5t2 384t-2.5 378t-21.5 364.5zM59 1485q6 -4 10.5 -8.5t2.5 -16.5q2 -127 6 -227t8 -203 q2 -125 5 -240.5t4 -232.5t-2 -238.5t-11 -259.5q25 -10 56.5 -0.5t74.5 -1.5q-14 160 -19.5 336t-7.5 358.5t0 367t2 362.5q-18 -6 -35.5 -2t-35 9t-31.5 6t-27 -9z" />
<glyph unicode="&#xcf;" horiz-adv-x="315" d="M-133 1640q-10 51 4 84t42 48.5t60.5 14.5t62.5 -14.5t48 -37t14 -56.5q-4 -31 -30.5 -50t-62.5 -24.5t-73.5 3.5t-64.5 32zM-102 1653q29 -10 59.5 -15.5t53 -1.5t35.5 19.5t9 48.5q-18 33 -46.5 45t-56.5 4t-44 -33.5t-10 -66.5zM20 1540q66 -6 128.5 -15t117.5 -26 q14 -16 11 -21t-13 -9.5t-19 -10.5t-3 -24q-10 -393 -11.5 -744.5t25.5 -677.5q-37 4 -63.5 2t-49 -3t-45 2t-49.5 18q-8 190 -7 382.5t2 384t-2.5 378t-21.5 364.5zM59 1485q6 -4 10.5 -8.5t2.5 -16.5q2 -127 6 -227t8 -203q2 -125 5 -240.5t4 -232.5t-2 -238.5t-11 -259.5 q25 -10 56.5 -0.5t74.5 -1.5q-14 160 -19.5 336t-7.5 358.5t0 367t2 362.5q-18 -6 -35.5 -2t-35 9t-31.5 6t-27 -9zM213 1624q-4 98 45 141h24.5h22.5t27.5 2.5t40.5 6.5q14 -14 29.5 -26.5t27.5 -25t19.5 -28t3.5 -35.5q-4 -33 -33 -49.5t-66 -19.5t-75.5 6.5t-65.5 27.5z M239 1657.5q1 -13.5 11 -21.5q14 -10 45 -17t61.5 -3t52 21.5t17.5 58.5q-12 16 -33.5 26.5t-45 15.5t-45 4t-32.5 -9q-8 -8 -16 -20.5t-12 -27t-3 -28z" />
<glyph unicode="&#xd0;" horiz-adv-x="1110" d="M1 790q-1 68 15 128h85t81 10q2 66 -3 142.5t-11 155.5t-9 155.5t5 142.5q221 12 374.5 -31t255 -110.5t158.5 -146.5t86 -140q37 -98 43 -219t-21.5 -245t-91 -240t-168 -201t-252 -129t-341.5 -25q-14 92 -17.5 169t-3.5 151.5t-3 151.5t-15 169q-29 -2 -72 2t-76 -21 q-18 63 -19 131zM39 709q29 0 55.5 6t48 10t37 4t21.5 -12q16 -37 20 -122t5 -185.5t6.5 -196t25.5 -150.5q182 -14 328.5 45.5t249 165t158 243.5t58.5 282.5t-50.5 279.5t-167.5 238q-55 33 -145.5 71.5t-185.5 67.5t-180 41t-130 -6q6 -82 11 -155.5t10 -146.5t7 -145.5 t2 -150.5q-10 -10 -26.5 -10t-39 3t-51 4t-63.5 -11q-4 -33 -2 -85.5t-2 -84.5zM301 1303.5q0 31.5 2 39.5q55 23 144.5 19t184.5 -48t181 -136t135 -246q41 -100 20.5 -225t-97 -233.5t-208 -181.5t-309.5 -69q2 70 -4 138.5t-13 135t-11 131t4 130.5q49 6 81.5 7t86.5 7 q0 10 -3 31.5t-6.5 44t-4.5 42t3 28.5q-23 2 -47 1t-45.5 -2.5t-40 -2.5t-30.5 4q-2 8 -4.5 40.5t-5.5 77.5t-6 95.5t-5 95.5t-2 76.5zM342 1309q10 -78 12 -176.5t4 -180.5q12 0 34 -1t45.5 0t44 2t32.5 3q6 -12 8 -38.5t3 -59.5t3.5 -65.5t6.5 -57.5q-43 -4 -72 -3t-84 -5 q6 -53 8 -115.5t3 -125t5 -124t15 -112.5q141 18 256.5 93t181.5 169q27 39 44 91t24.5 108.5t3 116t-18.5 112.5q-20 80 -80.5 155.5t-140.5 131t-169 80t-169 2.5z" />
<glyph unicode="&#xd1;" horiz-adv-x="1150" d="M12 727q2 86 9.5 180t10.5 188.5t0 185.5t-20 171q18 12 29.5 2t26.5 -18q25 -18 47 -52t43.5 -73t40 -80t37.5 -74q45 -90 98 -170q2 -4 0 -14t0 -15q23 -18 37 -48.5t37 -65.5q27 -47 66.5 -103.5t74.5 -111.5q49 -74 107.5 -134.5t125.5 -115.5q10 305 13.5 581.5 t13.5 563.5q29 8 63.5 10t67.5 -2t60.5 -14.5t41.5 -28.5q2 -18 0 -23.5t-7 -6.5t-9 -2t-4 -13q14 -125 21.5 -221.5t8.5 -188.5t-1 -191.5t-9 -230.5q-4 -78 -6 -147.5t-2 -138t4 -139t13 -148.5q-18 -8 -42 -15.5t-48.5 -11.5t-47 -3t-41.5 11q-29 16 -40 45t-33 54 q-29 33 -71 57.5t-81 61.5q-74 70 -139.5 154.5t-128.5 174.5q-33 47 -57.5 97.5t-47 102.5t-45 103.5t-47.5 100.5q-14 -51 -4 -104.5t12 -94.5q6 -102 1 -192.5t-12 -179.5t-11 -182t6 -198q-35 4 -68.5 6.5t-64.5 -14.5q-16 31 -19.5 62.5t1 62.5t10.5 62.5t8 62.5 q4 55 -1 110.5t-11 114t-12.5 118t-4.5 122.5zM57 1391q18 -121 19.5 -235t-3.5 -224.5t-9.5 -219t4.5 -218.5q4 -70 8 -136.5t0 -140.5q0 -16 -6.5 -46t-6.5 -57.5t11.5 -47t46.5 -17.5q6 125 14 252t12.5 253t1 252t-19.5 251q18 4 30.5 -2t21.5 -18.5t15.5 -27 t14.5 -22.5q51 -72 85 -157t75 -164q25 -51 56.5 -96.5t68.5 -92.5q35 -45 69.5 -91t73.5 -87q31 -31 65.5 -57.5t68.5 -54t62.5 -58.5t45.5 -72q35 -6 64.5 -8t60.5 8q-4 158 -15.5 297.5t-3.5 282.5q8 182 14.5 367.5t-14.5 365.5q-2 10 -4 24.5t-2 29t5 26.5t20 18 q-12 8 -34 13.5t-44.5 6.5t-43 -3.5t-30.5 -16.5q4 -102 9 -212.5t-9 -206.5q-4 -16 -7 -20.5t-4 -5.5t1 -1t10 -6q4 -4 -3 -13.5t-7 -7.5q4 -18 7 -34.5t3 -34.5q-2 -10 -10 -18.5t-8 -18.5q-4 -45 6 -87t12 -83q2 -39 -3 -78l-10 -78t-10.5 -79t-3.5 -78q0 -20 3.5 -34 t5.5 -26t1 -24.5t-10 -30.5q-59 59 -122.5 109.5t-118.5 113.5q-53 63 -94 138t-84 147q-45 72 -92.5 142.5t-88.5 143.5q-23 37 -41 77t-36.5 80t-41 77t-51.5 72zM170 1638q4 39 10 66t17.5 47.5t28 34.5t42.5 29q53 29 114.5 41t115.5 -29q16 -12 29.5 -29.5t25.5 -35 t24.5 -31t24.5 -15.5q27 -6 49.5 6.5t39 32t26.5 42t16 38.5q29 -2 58.5 -2t39.5 -18q2 -18 -4 -11.5t-16 4.5q6 -27 -5 -58.5t-33.5 -59t-53.5 -48t-64 -24.5q-39 -4 -68.5 6t-54 29.5t-44 46t-35.5 55.5q-78 10 -130.5 -26.5t-78.5 -90.5q-29 2 -42.5 -4t-31.5 4z M197 1657q31 10 47 39.5t45 52.5q18 14 43.5 25.5t48.5 13.5q37 4 59.5 -4t38 -23.5t27.5 -37t24 -46.5q29 -8 49.5 -20t49.5 -12q14 0 35.5 9t43 22.5t39 28.5t25.5 32q4 8 8 20t5 24.5t0 20.5t-7 6q-12 2 -19 -3t-10.5 -13t-4.5 -18.5t-5 -18.5q-29 -23 -55.5 -43 t-67.5 -29q-31 8 -50 28t-36.5 41.5t-35 42t-41.5 32.5q-117 0 -176.5 -42t-79.5 -128z" />
<glyph unicode="&#xd2;" horiz-adv-x="1523" d="M29 746.5q-4 130.5 29.5 250t99 222t153.5 174.5q6 4 14.5 4t14.5 4q25 23 63.5 42t81.5 34.5t88 28t86 22.5q104 16 206 -10.5t184 -71.5q37 -20 68.5 -36.5t60 -35t55.5 -39t53 -47.5q6 -4 8 -15t9 -18q10 -10 21 -10t15 -10q27 -35 47.5 -82t36 -99.5t24.5 -104.5 t13 -95q6 -92 -6 -170t-33 -149q-23 -88 -55.5 -146.5t-79.5 -116.5q-47 -59 -96 -99t-105 -83q-47 -16 -94 -32.5t-94 -29t-95 -18.5t-97 -2q-10 0 -34 3t-48.5 7.5t-46 8.5t-29.5 8q-16 6 -43 18.5t-56.5 25.5t-57.5 25.5t-42 22.5q-31 18 -70.5 64.5t-77.5 100.5 t-70 107.5t-46 89.5q-51 127 -55 257.5zM68 835.5q-5 -92.5 11.5 -184.5t52.5 -178t89 -156q57 -92 159.5 -157.5t213.5 -98.5q66 -18 137.5 -17t138 14.5t123 34t92.5 42.5q86 51 156 140.5t115 199t61.5 229t-4.5 232.5q-18 98 -53 174t-85 136.5t-114.5 107.5t-140.5 84 q-123 59 -259 59t-259 -51q-137 -59 -239.5 -169t-160.5 -269q-29 -80 -34 -172.5zM152 727q6 64 22 135q16 55 32.5 97t41.5 94q16 35 33.5 72.5t29.5 56.5q6 8 24.5 15t29.5 22q37 39 80.5 80.5t95 75.5t112 52.5t131.5 10.5q115 -16 211.5 -73.5t161.5 -129.5 q33 -37 62.5 -88t53 -109.5t41 -120t25.5 -118.5q12 -88 -9 -163t-44 -157q-63 -70 -126.5 -130t-147.5 -113q-23 -16 -49.5 -37t-51.5 -27q-74 -23 -153.5 -20.5t-154.5 20.5t-139.5 50t-107.5 67q-18 16 -45.5 44.5t-54.5 62.5t-49.5 69t-32.5 61q-4 12 -7 36t-9 46 q-12 55 -6 119zM204 639q5 -59 36 -104q-10 0 -15.5 3t-13.5 7q39 -74 94 -143.5t133 -121t183.5 -75.5t244.5 -6q119 53 210 132t173 169q12 55 31.5 110.5t22.5 114.5q2 66 -14.5 139.5t-44 142t-60.5 127t-64 93.5q-10 12 -29.5 29.5t-42 36t-46 34.5t-44.5 27 q-20 10 -56 21t-72.5 20.5t-67.5 13.5t-41 0q-49 -18 -90 -36.5t-76 -40t-67.5 -47t-65.5 -58.5q-49 -49 -78 -101.5t-57 -117.5q-25 -53 -46.5 -118t-31.5 -128.5t-5 -122.5zM535 1882q-2 12 4 17.5t4 19.5q20 2 54 5t71 4t72.5 1t62.5 -2q-6 -43 12.5 -82t43 -80t47 -87 t24.5 -101q-61 -16 -103.5 -5t-72 39.5t-53 67.5t-47 79t-51.5 74t-68 50zM598 1890q33 -41 66.5 -96t69.5 -101t73 -73t80 -10q-29 72 -60.5 150.5t-74.5 133.5q-10 -6 -30 -6t-42.5 1t-44 2t-37.5 -1z" />
<glyph unicode="&#xd3;" horiz-adv-x="1525" d="M29 746.5q-4 130.5 29.5 250t99 222t153.5 174.5q6 4 14.5 4t14.5 4q25 23 63.5 42t81.5 34.5t88 28t86 22.5q104 16 206 -10.5t184 -71.5q37 -20 68.5 -36.5t60 -35t55.5 -39t53 -47.5q6 -4 8 -15t9 -18q10 -10 21 -10t15 -10q27 -35 47.5 -82t36 -99.5t24.5 -104.5 t13 -95q6 -92 -6 -170t-33 -149q-23 -88 -55.5 -146.5t-79.5 -116.5q-47 -59 -96 -99t-105 -83q-47 -16 -94 -32.5t-94 -29t-95 -18.5t-97 -2q-10 0 -34 3t-48.5 7.5t-46 8.5t-29.5 8q-16 6 -43 18.5t-56.5 25.5t-57.5 25.5t-42 22.5q-31 18 -70.5 64.5t-77.5 100.5 t-70 107.5t-46 89.5q-51 127 -55 257.5zM68 835.5q-5 -92.5 11.5 -184.5t52.5 -178t89 -156q57 -92 159.5 -157.5t213.5 -98.5q66 -18 137.5 -17t138 14.5t123 34t92.5 42.5q86 51 156 140.5t115 199t61.5 229t-4.5 232.5q-18 98 -53 174t-85 136.5t-114.5 107.5t-140.5 84 q-123 59 -259 59t-259 -51q-137 -59 -239.5 -169t-160.5 -269q-29 -80 -34 -172.5zM152 727q6 64 22 135q16 55 32.5 97t41.5 94q16 35 33.5 72.5t29.5 56.5q6 8 24.5 15t29.5 22q37 39 80.5 80.5t95 75.5t112 52.5t131.5 10.5q115 -16 211.5 -73.5t161.5 -129.5 q33 -37 62.5 -88t53 -109.5t41 -120t25.5 -118.5q12 -88 -9 -163t-44 -157q-63 -70 -126.5 -130t-147.5 -113q-23 -16 -49.5 -37t-51.5 -27q-74 -23 -153.5 -20.5t-154.5 20.5t-139.5 50t-107.5 67q-18 16 -45.5 44.5t-54.5 62.5t-49.5 69t-32.5 61q-4 12 -7 36t-9 46 q-12 55 -6 119zM204 639q5 -59 36 -104q-10 0 -15.5 3t-13.5 7q39 -74 94 -143.5t133 -121t183.5 -75.5t244.5 -6q119 53 210 132t173 169q12 55 31.5 110.5t22.5 114.5q2 66 -14.5 139.5t-44 142t-60.5 127t-64 93.5q-10 12 -29.5 29.5t-42 36t-46 34.5t-44.5 27 q-20 10 -56 21t-72.5 20.5t-67.5 13.5t-41 0q-49 -18 -90 -36.5t-76 -40t-67.5 -47t-65.5 -58.5q-49 -49 -78 -101.5t-57 -117.5q-25 -53 -46.5 -118t-31.5 -128.5t-5 -122.5zM532 1577q2 55 25 101t47.5 87t42.5 80t12 82q27 2 63 2t72.5 -1t70.5 -4t55 -5q-2 -14 4 -19.5 t4 -17.5q-41 -16 -69 -50t-51.5 -74t-47 -79t-53 -67.5t-71.5 -39.5t-104 5zM575 1610q43 -16 80 10.5t73 72.5t68.5 101t67.5 96q-16 2 -37.5 1t-44 -2t-42 -1t-29.5 6q-43 -55 -75 -134t-61 -150z" />
<glyph unicode="&#xd4;" horiz-adv-x="1523" d="M29 746.5q-4 130.5 29.5 250t99 222t153.5 174.5q6 4 14.5 4t14.5 4q25 23 63.5 42t81.5 34.5t88 28t86 22.5q104 16 206 -10.5t184 -71.5q37 -20 68.5 -36.5t60 -35t55.5 -39t53 -47.5q6 -4 8 -15t9 -18q10 -10 21 -10t15 -10q27 -35 47.5 -82t36 -99.5t24.5 -104.5 t13 -95q6 -92 -6 -170t-33 -149q-23 -88 -55.5 -146.5t-79.5 -116.5q-47 -59 -96 -99t-105 -83q-47 -16 -94 -32.5t-94 -29t-95 -18.5t-97 -2q-10 0 -34 3t-48.5 7.5t-46 8.5t-29.5 8q-16 6 -43 18.5t-56.5 25.5t-57.5 25.5t-42 22.5q-31 18 -70.5 64.5t-77.5 100.5 t-70 107.5t-46 89.5q-51 127 -55 257.5zM68 835.5q-5 -92.5 11.5 -184.5t52.5 -178t89 -156q57 -92 159.5 -157.5t213.5 -98.5q66 -18 137.5 -17t138 14.5t123 34t92.5 42.5q86 51 156 140.5t115 199t61.5 229t-4.5 232.5q-18 98 -53 174t-85 136.5t-114.5 107.5t-140.5 84 q-123 59 -259 59t-259 -51q-137 -59 -239.5 -169t-160.5 -269q-29 -80 -34 -172.5zM152 727q6 64 22 135q16 55 32.5 97t41.5 94q16 35 33.5 72.5t29.5 56.5q6 8 24.5 15t29.5 22q37 39 80.5 80.5t95 75.5t112 52.5t131.5 10.5q115 -16 211.5 -73.5t161.5 -129.5 q33 -37 62.5 -88t53 -109.5t41 -120t25.5 -118.5q12 -88 -9 -163t-44 -157q-63 -70 -126.5 -130t-147.5 -113q-23 -16 -49.5 -37t-51.5 -27q-74 -23 -153.5 -20.5t-154.5 20.5t-139.5 50t-107.5 67q-18 16 -45.5 44.5t-54.5 62.5t-49.5 69t-32.5 61q-4 12 -7 36t-9 46 q-12 55 -6 119zM204 639q5 -59 36 -104q-10 0 -15.5 3t-13.5 7q39 -74 94 -143.5t133 -121t183.5 -75.5t244.5 -6q119 53 210 132t173 169q12 55 31.5 110.5t22.5 114.5q2 66 -14.5 139.5t-44 142t-60.5 127t-64 93.5q-10 12 -29.5 29.5t-42 36t-46 34.5t-44.5 27 q-20 10 -56 21t-72.5 20.5t-67.5 13.5t-41 0q-49 -18 -90 -36.5t-76 -40t-67.5 -47t-65.5 -58.5q-49 -49 -78 -101.5t-57 -117.5q-25 -53 -46.5 -118t-31.5 -128.5t-5 -122.5zM506 1595q18 57 47 104.5t57 98.5q29 43 54 92.5t41 108.5q98 -12 167 -31q27 -31 49.5 -70.5 t44 -80.5t45 -81t54.5 -69q-6 -12 -22.5 -18.5t-36 -11.5t-37 -11t-23.5 -16q-23 25 -39 52.5t-33.5 56t-37 53t-45.5 43.5q-4 -31 -18.5 -51.5t-30 -39t-30 -40t-16.5 -54.5q-41 -10 -88 -17t-102 -18zM553 1638q55 -8 89 13.5t55.5 57.5t38 78t38.5 77q33 -8 59.5 -38 t48 -65t39 -65.5t31.5 -42.5q-10 8 -6 10t17.5 3t30 3t30.5 8q-53 98 -83 141.5t-46 60.5t-22.5 21.5t-8.5 22.5q-6 6 -25.5 13.5t-42 12.5t-43 9t-28.5 4q-35 -78 -80 -168t-92 -156z" />
<glyph unicode="&#xd5;" horiz-adv-x="1523" d="M29 746.5q-4 130.5 29.5 250t99 222t153.5 174.5q6 4 14.5 4t14.5 4q25 23 63.5 42t81.5 34.5t88 28t86 22.5q104 16 206 -10.5t184 -71.5q37 -20 68.5 -36.5t60 -35t55.5 -39t53 -47.5q6 -4 8 -15t9 -18q10 -10 21 -10t15 -10q27 -35 47.5 -82t36 -99.5t24.5 -104.5 t13 -95q6 -92 -6 -170t-33 -149q-23 -88 -55.5 -146.5t-79.5 -116.5q-47 -59 -96 -99t-105 -83q-47 -16 -94 -32.5t-94 -29t-95 -18.5t-97 -2q-10 0 -34 3t-48.5 7.5t-46 8.5t-29.5 8q-16 6 -43 18.5t-56.5 25.5t-57.5 25.5t-42 22.5q-31 18 -70.5 64.5t-77.5 100.5 t-70 107.5t-46 89.5q-51 127 -55 257.5zM68 835.5q-5 -92.5 11.5 -184.5t52.5 -178t89 -156q57 -92 159.5 -157.5t213.5 -98.5q66 -18 137.5 -17t138 14.5t123 34t92.5 42.5q86 51 156 140.5t115 199t61.5 229t-4.5 232.5q-18 98 -53 174t-85 136.5t-114.5 107.5t-140.5 84 q-123 59 -259 59t-259 -51q-137 -59 -239.5 -169t-160.5 -269q-29 -80 -34 -172.5zM152 727q6 64 22 135q16 55 32.5 97t41.5 94q16 35 33.5 72.5t29.5 56.5q6 8 24.5 15t29.5 22q37 39 80.5 80.5t95 75.5t112 52.5t131.5 10.5q115 -16 211.5 -73.5t161.5 -129.5 q33 -37 62.5 -88t53 -109.5t41 -120t25.5 -118.5q12 -88 -9 -163t-44 -157q-63 -70 -126.5 -130t-147.5 -113q-23 -16 -49.5 -37t-51.5 -27q-74 -23 -153.5 -20.5t-154.5 20.5t-139.5 50t-107.5 67q-18 16 -45.5 44.5t-54.5 62.5t-49.5 69t-32.5 61q-4 12 -7 36t-9 46 q-12 55 -6 119zM204 639q5 -59 36 -104q-10 0 -15.5 3t-13.5 7q39 -74 94 -143.5t133 -121t183.5 -75.5t244.5 -6q119 53 210 132t173 169q12 55 31.5 110.5t22.5 114.5q2 66 -14.5 139.5t-44 142t-60.5 127t-64 93.5q-10 12 -29.5 29.5t-42 36t-46 34.5t-44.5 27 q-20 10 -56 21t-72.5 20.5t-67.5 13.5t-41 0q-49 -18 -90 -36.5t-76 -40t-67.5 -47t-65.5 -58.5q-49 -49 -78 -101.5t-57 -117.5q-25 -53 -46.5 -118t-31.5 -128.5t-5 -122.5zM420 1608q6 45 12 76.5t18.5 55t33 40t51.5 35.5q31 16 64.5 28t68 17.5t69.5 -2t66 -29.5 q20 -16 35.5 -36.5t30 -40t27.5 -35t30 -17.5q31 -6 56.5 7t45 35.5t31.5 49.5t18 45q35 0 68 -1t47 -21q2 -23 -4 -15t-19 6q6 -31 -7 -67.5t-38.5 -69.5t-61.5 -56.5t-77 -27.5q-45 -6 -80 6.5t-63.5 35t-51 53t-42.5 65.5q-45 6 -82 -2t-68 -28.5t-54.5 -48.5t-39.5 -58 q-16 0 -27.5 -2t-21 -3t-17.5 -1t-18 6zM451 1630q18 4 30.5 17.5t23.5 30t22.5 32.5t29.5 29q23 14 52.5 27.5t54.5 17.5q43 4 69.5 -4t45 -26.5t31.5 -44.5t30 -54q33 -10 57.5 -25.5t56.5 -13.5q18 0 44 9t50.5 24.5t45 35t30.5 37.5q4 10 8.5 25.5t6.5 29t0 22.5t-9 7 q-16 2 -23 -4t-11 -15t-5.5 -21.5t-5.5 -20.5q-33 -25 -65.5 -50.5t-79.5 -33.5q-35 8 -58.5 30.5t-43 47t-40 49t-50.5 41.5q-133 0 -204 -48t-93 -151z" />
<glyph unicode="&#xd6;" horiz-adv-x="1523" d="M29 746.5q-4 130.5 29.5 250t99 222t153.5 174.5q6 4 14.5 4t14.5 4q25 23 63.5 42t81.5 34.5t88 28t86 22.5q104 16 206 -10.5t184 -71.5q37 -20 68.5 -36.5t60 -35t55.5 -39t53 -47.5q6 -4 8 -15t9 -18q10 -10 21 -10t15 -10q27 -35 47.5 -82t36 -99.5t24.5 -104.5 t13 -95q6 -92 -6 -170t-33 -149q-23 -88 -55.5 -146.5t-79.5 -116.5q-47 -59 -96 -99t-105 -83q-47 -16 -94 -32.5t-94 -29t-95 -18.5t-97 -2q-10 0 -34 3t-48.5 7.5t-46 8.5t-29.5 8q-16 6 -43 18.5t-56.5 25.5t-57.5 25.5t-42 22.5q-31 18 -70.5 64.5t-77.5 100.5 t-70 107.5t-46 89.5q-51 127 -55 257.5zM68 835.5q-5 -92.5 11.5 -184.5t52.5 -178t89 -156q57 -92 159.5 -157.5t213.5 -98.5q66 -18 137.5 -17t138 14.5t123 34t92.5 42.5q86 51 156 140.5t115 199t61.5 229t-4.5 232.5q-18 98 -53 174t-85 136.5t-114.5 107.5t-140.5 84 q-123 59 -259 59t-259 -51q-137 -59 -239.5 -169t-160.5 -269q-29 -80 -34 -172.5zM152 727q6 64 22 135q16 55 32.5 97t41.5 94q16 35 33.5 72.5t29.5 56.5q6 8 24.5 15t29.5 22q37 39 80.5 80.5t95 75.5t112 52.5t131.5 10.5q115 -16 211.5 -73.5t161.5 -129.5 q33 -37 62.5 -88t53 -109.5t41 -120t25.5 -118.5q12 -88 -9 -163t-44 -157q-63 -70 -126.5 -130t-147.5 -113q-23 -16 -49.5 -37t-51.5 -27q-74 -23 -153.5 -20.5t-154.5 20.5t-139.5 50t-107.5 67q-18 16 -45.5 44.5t-54.5 62.5t-49.5 69t-32.5 61q-4 12 -7 36t-9 46 q-12 55 -6 119zM204 639q5 -59 36 -104q-10 0 -15.5 3t-13.5 7q39 -74 94 -143.5t133 -121t183.5 -75.5t244.5 -6q119 53 210 132t173 169q12 55 31.5 110.5t22.5 114.5q2 66 -14.5 139.5t-44 142t-60.5 127t-64 93.5q-10 12 -29.5 29.5t-42 36t-46 34.5t-44.5 27 q-20 10 -56 21t-72.5 20.5t-67.5 13.5t-41 0q-49 -18 -90 -36.5t-76 -40t-67.5 -47t-65.5 -58.5q-49 -49 -78 -101.5t-57 -117.5q-25 -53 -46.5 -118t-31.5 -128.5t-5 -122.5zM481 1640q-10 51 4.5 84t42 48.5t60.5 14.5t62.5 -14.5t48 -37t14.5 -56.5q-4 -31 -31 -50 t-62.5 -24.5t-73.5 3.5t-65 32zM512 1653q29 -10 59.5 -15.5t53 -1.5t36 19.5t9.5 48.5q-18 33 -47 45t-56.5 4t-44 -33.5t-10.5 -66.5zM827 1624q-4 98 45 141h24.5h23t27.5 2.5t40 6.5q14 -14 29.5 -26.5t28 -25t19.5 -28t3 -35.5q-4 -33 -32.5 -49.5t-65.5 -19.5t-76 6.5 t-66 27.5zM853 1657.5q1 -13.5 11 -21.5q14 -10 45 -17t61.5 -3t52 21.5t17.5 58.5q-12 16 -33.5 26.5t-45 15.5t-45 4t-31.5 -9q-8 -8 -16.5 -20.5t-12.5 -27t-3 -28z" />
<glyph unicode="&#xd7;" d="M63 451q33 41 69 77.5t72 72.5t68.5 74t61.5 85q-37 43 -66.5 75.5t-54.5 64.5t-46.5 70t-43.5 93q14 18 29.5 28.5t30 18.5t29.5 17.5t34 25.5q61 -29 91 -53.5t48 -51t36.5 -58.5t59.5 -75q53 53 104.5 108.5t92.5 129.5q31 -14 48 -30.5t32.5 -33t31 -34t39.5 -35.5 q-14 -47 -38.5 -81t-52 -61.5t-57.5 -56t-52 -65.5q55 -61 126.5 -125t166.5 -99q-61 -47 -104.5 -93t-102.5 -72q-25 47 -55.5 79.5t-62.5 60.5t-62.5 54.5t-57.5 63.5q-43 -23 -72.5 -53.5t-53 -65.5t-44 -73t-45.5 -77l-64.5 37.5t-38 20.5t-36 15t-60.5 22zM109 469 q33 -14 51 -24.5t30.5 -18.5t24.5 -13t35 -10q27 35 51.5 74t50 76t56 66.5t69.5 48.5q72 -63 131.5 -125t124.5 -131q12 18 30.5 29.5t39 22.5t40 24.5t31.5 35.5q-100 43 -174.5 101.5t-117.5 140.5q33 18 72.5 55t73.5 76t54.5 73t14.5 44q-35 16 -61.5 46t-47.5 58 q-29 -33 -52.5 -69.5t-49 -70.5t-56 -61.5t-71.5 -42.5q-35 51 -56.5 83t-42 55.5t-45 48t-63.5 61.5q-12 -12 -25.5 -17t-26 -9t-23.5 -10.5t-23 -20.5q25 -55 50 -92t53 -71t59.5 -69.5t68.5 -87.5q-29 -29 -66.5 -63.5t-77.5 -71.5t-75 -73.5t-57 -67.5z" />
<glyph unicode="&#xd8;" horiz-adv-x="1021" d="M2 63q35 59 66.5 121t66.5 121q-63 59 -86.5 158.5t-12.5 211t56 222.5t123 195t186.5 128t243.5 19q49 86 92 152.5t86 142.5q39 -14 69 -28.5t64 -14.5q-23 -96 -69.5 -169t-87.5 -140q123 -72 175 -185.5t39.5 -239.5t-84 -248t-196.5 -210q-47 -33 -109.5 -62.5 t-128 -44t-129 -8.5t-110.5 47q-35 -57 -66.5 -117.5t-72.5 -113.5q-16 6 -33.5 10t-35 10.5t-30 15.5t-16.5 27zM41 74q16 4 32.5 -8.5t30.5 -16.5q35 53 68 110.5t72 108.5q90 -53 193.5 -45t200.5 61.5t178 141.5t128 197q8 -2 13.5 25.5t8.5 64.5t4 70.5t1 43.5 q0 70 -17.5 121t-47 89t-66.5 69t-76 59q4 33 22.5 69t42 72.5t45 73.5t33.5 74q-20 6 -34.5 16.5t-28.5 20.5q-39 -66 -82 -140.5t-86 -133.5q-115 16 -203 -8.5t-155.5 -76t-115.5 -124t-83 -152.5q-35 -72 -48.5 -151.5t-5 -154.5t37 -139.5t75.5 -107.5 q-6 -2 -19.5 -28.5t-31.5 -63.5t-39.5 -75t-46.5 -62zM130 530q-13 80 7.5 164t61 164t75.5 139q8 8 41 43t80 66t107.5 41t128.5 -29q-10 -8 -41 -64.5t-72 -135t-88 -170t-90 -169t-76 -130t-45 -56.5q-76 57 -89 137zM162 589q0 -42 13 -82t44 -71q25 39 56.5 98.5 t64.5 129t67.5 141.5t65.5 135.5t58.5 110.5t46.5 67q-68 16 -131.5 -20.5t-115.5 -96t-90.5 -129t-52.5 -118.5q-10 -39 -18 -81t-8 -84zM328 360q20 37 50 97.5t65.5 131t75.5 146.5t78 143.5t74 122t64 82.5q4 -2 7 -4t13.5 -20.5t35 -62.5t71.5 -132q23 -70 5.5 -144.5 t-61.5 -143t-106.5 -125t-130 -89t-131 -35.5t-110.5 33zM377 371q57 -41 143 5t223 154q72 104 84.5 190.5t-5 152t-49.5 106.5t-44 53q-4 -8 -28.5 -54t-60.5 -112.5t-78 -145.5t-80 -149.5t-66.5 -125t-38.5 -74.5z" />
<glyph unicode="&#xd9;" horiz-adv-x="1220" d="M6 1186q-4 45 3 95t13.5 96t9.5 86t-5 65q23 0 52.5 1t58 1t52 -4t35.5 -15q-14 -72 -24.5 -163t-15.5 -189t-4 -198.5t7 -194.5q4 -49 9.5 -102.5t12.5 -104.5t17.5 -97t22.5 -79q16 -47 50 -97t67 -75q37 -29 91 -41t112.5 -13t115.5 7t102 22q33 16 66 42t64 67 q29 55 48 127t29.5 152.5t13.5 166.5t-1 172q-6 80 -12.5 150t-14.5 138.5t-18.5 138t-24.5 149.5q39 23 80 21.5t74 -9.5q0 -16 -10.5 -22t-27 -8.5t-36 -1.5t-35.5 -1q23 -147 43.5 -326t24.5 -358q0 -78 -3.5 -162.5t-19.5 -152.5q-6 -27 -18.5 -50.5t-24.5 -46 t-21.5 -47t-11.5 -51.5q-16 -12 -25 -23t-20 -22q-23 -23 -38 -35t-50 -28q-41 -18 -111.5 -30.5t-147.5 -8.5t-147.5 25.5t-109.5 70.5q-33 39 -60.5 92.5t-37.5 102.5t-20.5 113.5t-19.5 135t-16.5 144.5t-11.5 141q-2 51 -1 94.5t5 85.5t9.5 85t9.5 92q2 20 8 51t9 61.5 t-2 55t-25 34.5q-37 -6 -56.5 -11t-28 -20.5t-9.5 -47t-1 -91.5q0 -82 -2 -150.5t-3 -133t0 -130t7 -139.5q6 -82 8.5 -164.5t11.5 -160.5t28.5 -145.5t58.5 -116.5q49 -66 139 -102t194.5 -48t213 -2t196.5 37q39 10 60.5 41t50.5 70q41 61 79 153t50 197q18 141 12 269 t-19.5 248t-25.5 233.5t-8 226.5q20 -2 29.5 -16.5t11.5 -33t1 -38t1 -33.5q10 -88 18.5 -187.5t14.5 -201t8 -202.5t0 -191q0 -35 -2 -75t-8 -77q-16 -92 -47 -162.5t-84 -150.5q-35 -51 -97.5 -81t-138.5 -45.5t-159 -18.5t-156 1q-68 2 -128.5 21.5t-109.5 46t-86 57.5 t-55 60q-49 115 -69.5 237.5t-28 248.5t-7.5 253t-8 250zM360 1882q-2 12 4.5 17.5t4.5 19.5q20 2 54 5t70.5 4t72.5 1t63 -2q-6 -43 12 -82t43 -80t47.5 -87t24.5 -101q-61 -16 -103.5 -5t-72 39.5t-53 67.5t-47 79t-51.5 74t-69 50zM424 1890q33 -41 66.5 -96t69.5 -101 t73 -73t80 -10q-29 72 -60.5 150.5t-74.5 133.5q-10 -6 -30 -6t-42.5 1t-44 2t-37.5 -1z" />
<glyph unicode="&#xda;" horiz-adv-x="1220" d="M6 1186q-4 45 3 95t13.5 96t9.5 86t-5 65q23 0 52.5 1t58 1t52 -4t35.5 -15q-14 -72 -24.5 -163t-15.5 -189t-4 -198.5t7 -194.5q4 -49 9.5 -102.5t12.5 -104.5t17.5 -97t22.5 -79q16 -47 50 -97t67 -75q37 -29 91 -41t112.5 -13t115.5 7t102 22q33 16 66 42t64 67 q29 55 48 127t29.5 152.5t13.5 166.5t-1 172q-6 80 -12.5 150t-14.5 138.5t-18.5 138t-24.5 149.5q39 23 80 21.5t74 -9.5q0 -16 -10.5 -22t-27 -8.5t-36 -1.5t-35.5 -1q23 -147 43.5 -326t24.5 -358q0 -78 -3.5 -162.5t-19.5 -152.5q-6 -27 -18.5 -50.5t-24.5 -46 t-21.5 -47t-11.5 -51.5q-16 -12 -25 -23t-20 -22q-23 -23 -38 -35t-50 -28q-41 -18 -111.5 -30.5t-147.5 -8.5t-147.5 25.5t-109.5 70.5q-33 39 -60.5 92.5t-37.5 102.5t-20.5 113.5t-19.5 135t-16.5 144.5t-11.5 141q-2 51 -1 94.5t5 85.5t9.5 85t9.5 92q2 20 8 51t9 61.5 t-2 55t-25 34.5q-37 -6 -56.5 -11t-28 -20.5t-9.5 -47t-1 -91.5q0 -82 -2 -150.5t-3 -133t0 -130t7 -139.5q6 -82 8.5 -164.5t11.5 -160.5t28.5 -145.5t58.5 -116.5q49 -66 139 -102t194.5 -48t213 -2t196.5 37q39 10 60.5 41t50.5 70q41 61 79 153t50 197q18 141 12 269 t-19.5 248t-25.5 233.5t-8 226.5q20 -2 29.5 -16.5t11.5 -33t1 -38t1 -33.5q10 -88 18.5 -187.5t14.5 -201t8 -202.5t0 -191q0 -35 -2 -75t-8 -77q-16 -92 -47 -162.5t-84 -150.5q-35 -51 -97.5 -81t-138.5 -45.5t-159 -18.5t-156 1q-68 2 -128.5 21.5t-109.5 46t-86 57.5 t-55 60q-49 115 -69.5 237.5t-28 248.5t-7.5 253t-8 250zM358 1577q2 55 25 101t47.5 87t42.5 80t12 82q27 2 63 2t72.5 -1t70.5 -4t54 -5q-2 -14 4.5 -19.5t4.5 -17.5q-41 -16 -69 -50t-51.5 -74t-47 -79t-53 -67.5t-71.5 -39.5t-104 5zM401 1610q43 -16 80 10.5t73 72.5 t68.5 101t67.5 96q-16 2 -37.5 1t-44 -2t-42 -1t-29.5 6q-43 -55 -75 -134t-61 -150z" />
<glyph unicode="&#xdb;" horiz-adv-x="1220" d="M6 1186q-4 45 3 95t13.5 96t9.5 86t-5 65q23 0 52.5 1t58 1t52 -4t35.5 -15q-14 -72 -24.5 -163t-15.5 -189t-4 -198.5t7 -194.5q4 -49 9.5 -102.5t12.5 -104.5t17.5 -97t22.5 -79q16 -47 50 -97t67 -75q37 -29 91 -41t112.5 -13t115.5 7t102 22q33 16 66 42t64 67 q29 55 48 127t29.5 152.5t13.5 166.5t-1 172q-6 80 -12.5 150t-14.5 138.5t-18.5 138t-24.5 149.5q39 23 80 21.5t74 -9.5q0 -16 -10.5 -22t-27 -8.5t-36 -1.5t-35.5 -1q23 -147 43.5 -326t24.5 -358q0 -78 -3.5 -162.5t-19.5 -152.5q-6 -27 -18.5 -50.5t-24.5 -46 t-21.5 -47t-11.5 -51.5q-16 -12 -25 -23t-20 -22q-23 -23 -38 -35t-50 -28q-41 -18 -111.5 -30.5t-147.5 -8.5t-147.5 25.5t-109.5 70.5q-33 39 -60.5 92.5t-37.5 102.5t-20.5 113.5t-19.5 135t-16.5 144.5t-11.5 141q-2 51 -1 94.5t5 85.5t9.5 85t9.5 92q2 20 8 51t9 61.5 t-2 55t-25 34.5q-37 -6 -56.5 -11t-28 -20.5t-9.5 -47t-1 -91.5q0 -82 -2 -150.5t-3 -133t0 -130t7 -139.5q6 -82 8.5 -164.5t11.5 -160.5t28.5 -145.5t58.5 -116.5q49 -66 139 -102t194.5 -48t213 -2t196.5 37q39 10 60.5 41t50.5 70q41 61 79 153t50 197q18 141 12 269 t-19.5 248t-25.5 233.5t-8 226.5q20 -2 29.5 -16.5t11.5 -33t1 -38t1 -33.5q10 -88 18.5 -187.5t14.5 -201t8 -202.5t0 -191q0 -35 -2 -75t-8 -77q-16 -92 -47 -162.5t-84 -150.5q-35 -51 -97.5 -81t-138.5 -45.5t-159 -18.5t-156 1q-68 2 -128.5 21.5t-109.5 46t-86 57.5 t-55 60q-49 115 -69.5 237.5t-28 248.5t-7.5 253t-8 250zM336 1595q18 57 47 104.5t57 98.5q29 43 54 92.5t41 108.5q98 -12 167 -31q27 -31 49.5 -70.5t44 -80.5t45 -81t54.5 -69q-6 -12 -22.5 -18.5t-36 -11.5t-37 -11t-23.5 -16q-23 25 -39 52.5t-33.5 56t-37 53 t-45.5 43.5q-4 -31 -18.5 -51.5t-30 -39t-30 -40t-16.5 -54.5q-41 -10 -88 -17t-102 -18zM383 1638q55 -8 89 13.5t55.5 57.5t38 78t38.5 77q33 -8 59.5 -38t48 -65t39 -65.5t31.5 -42.5q-10 8 -6 10t17.5 3t30 3t30.5 8q-53 98 -83 141.5t-46 60.5t-22.5 21.5t-8.5 22.5 q-6 6 -25.5 13.5t-42 12.5t-43 9t-28.5 4q-35 -78 -80 -168t-92 -156z" />
<glyph unicode="&#xdc;" horiz-adv-x="1220" d="M6 1186q-4 45 3 95t13.5 96t9.5 86t-5 65q23 0 52.5 1t58 1t52 -4t35.5 -15q-14 -72 -24.5 -163t-15.5 -189t-4 -198.5t7 -194.5q4 -49 9.5 -102.5t12.5 -104.5t17.5 -97t22.5 -79q16 -47 50 -97t67 -75q37 -29 91 -41t112.5 -13t115.5 7t102 22q33 16 66 42t64 67 q29 55 48 127t29.5 152.5t13.5 166.5t-1 172q-6 80 -12.5 150t-14.5 138.5t-18.5 138t-24.5 149.5q39 23 80 21.5t74 -9.5q0 -16 -10.5 -22t-27 -8.5t-36 -1.5t-35.5 -1q23 -147 43.5 -326t24.5 -358q0 -78 -3.5 -162.5t-19.5 -152.5q-6 -27 -18.5 -50.5t-24.5 -46 t-21.5 -47t-11.5 -51.5q-16 -12 -25 -23t-20 -22q-23 -23 -38 -35t-50 -28q-41 -18 -111.5 -30.5t-147.5 -8.5t-147.5 25.5t-109.5 70.5q-33 39 -60.5 92.5t-37.5 102.5t-20.5 113.5t-19.5 135t-16.5 144.5t-11.5 141q-2 51 -1 94.5t5 85.5t9.5 85t9.5 92q2 20 8 51t9 61.5 t-2 55t-25 34.5q-37 -6 -56.5 -11t-28 -20.5t-9.5 -47t-1 -91.5q0 -82 -2 -150.5t-3 -133t0 -130t7 -139.5q6 -82 8.5 -164.5t11.5 -160.5t28.5 -145.5t58.5 -116.5q49 -66 139 -102t194.5 -48t213 -2t196.5 37q39 10 60.5 41t50.5 70q41 61 79 153t50 197q18 141 12 269 t-19.5 248t-25.5 233.5t-8 226.5q20 -2 29.5 -16.5t11.5 -33t1 -38t1 -33.5q10 -88 18.5 -187.5t14.5 -201t8 -202.5t0 -191q0 -35 -2 -75t-8 -77q-16 -92 -47 -162.5t-84 -150.5q-35 -51 -97.5 -81t-138.5 -45.5t-159 -18.5t-156 1q-68 2 -128.5 21.5t-109.5 46t-86 57.5 t-55 60q-49 115 -69.5 237.5t-28 248.5t-7.5 253t-8 250zM299 1640q-10 51 4 84t42 48.5t60.5 14.5t62.5 -14.5t48.5 -37t13.5 -56.5q-4 -31 -30.5 -50t-62.5 -24.5t-73.5 3.5t-64.5 32zM330 1653q29 -10 59.5 -15.5t53 -1.5t36 19.5t8.5 48.5q-18 33 -46.5 45t-56.5 4 t-44 -33.5t-10 -66.5zM645 1624q-4 98 45 141h24.5h23t27.5 2.5t40 6.5q14 -14 29.5 -26.5t27.5 -25t19.5 -28t3.5 -35.5q-4 -33 -33 -49.5t-65.5 -19.5t-75.5 6.5t-66 27.5zM671 1657.5q1 -13.5 11 -21.5q14 -10 45 -17t61.5 -3t52 21.5t17.5 58.5q-12 16 -33.5 26.5 t-45 15.5t-45 4t-32.5 -9q-8 -8 -16 -20.5t-12 -27t-3 -28z" />
<glyph unicode="&#xdd;" horiz-adv-x="1554" d="M4 1501q27 8 60.5 8t69.5 -2t70 -2t58 6q74 -96 118 -201.5t86 -211t95 -202.5t144 -177q168 166 311 376t268 418q33 -4 62.5 -0.5t61.5 7.5t66.5 5t77.5 -7q-162 -283 -346 -552.5t-399 -519.5q-4 -70 2 -121t12 -98t6 -96t-14 -115q-31 0 -59.5 -4t-56 -5t-53.5 3 t-50 19q4 63 -1 115.5t-11.5 103.5t-9.5 103t3 116q-111 104 -192.5 228t-146 257t-120 272.5t-112.5 276.5zM51 1473q59 -152 122 -298.5t130.5 -275.5t142 -234.5t158.5 -177.5q8 -66 10 -121t4.5 -107t4.5 -104.5t8 -109.5q23 -12 39 -15t32.5 -2t35 4t44.5 3 q23 117 13.5 218t-19.5 202q43 45 112.5 132t148.5 193.5t160 221t146.5 215t110.5 173t51 97.5q-35 2 -61.5 -2t-49 -8t-43 -6.5t-42.5 6.5q-66 -104 -129.5 -212t-139.5 -206q-72 -98 -160.5 -201.5t-185.5 -179.5q-90 82 -146 183.5t-102.5 208t-93.5 210.5t-116 193 q-16 -2 -43 0t-54.5 4t-52.5 2t-35 -6zM629 1577q2 55 24.5 101t47 87t43 80t12.5 82q27 2 62.5 2t72.5 -1t70.5 -4t54.5 -5q-2 -14 4 -19.5t4 -17.5q-41 -16 -68.5 -50t-51 -74t-47 -79t-53.5 -67.5t-72 -39.5t-103 5zM672 1610q43 -16 79.5 10.5t72.5 72.5t69 101t68 96 q-16 2 -38 1t-44.5 -2t-42 -1t-29.5 6q-43 -55 -75 -134t-60 -150z" />
<glyph unicode="&#xde;" horiz-adv-x="935" d="M2 18q6 -14 8 48.5t2 173t-1 255t-3 295t-3 292t-2 248t0 162.5t5 34h46t55.5 -3t54 -11.5t43.5 -24.5q-8 -39 -13.5 -71t-8.5 -63.5t-0.5 -65.5t10.5 -75q227 -14 377.5 -76.5t235.5 -153.5t109.5 -198.5t-1 -208t-96 -184.5t-175.5 -127q-41 -16 -98.5 -23.5 t-121 -11.5t-128 -8t-119.5 -14q-2 -25 0 -52.5t3 -55t-1 -53.5t-12 -42q-47 10 -87 5t-79 9zM41 41q27 -10 51.5 -15.5t59.5 3.5q-6 25 -5.5 52.5t2 56t2.5 55t-4 45.5q47 0 109.5 1t131.5 9t139.5 23.5t132 43t109.5 68.5t75 100q49 111 50 207t-36 175t-107.5 139.5 t-162.5 100.5t-204 57.5t-230 11.5q-16 82 -15.5 150.5t11.5 150.5q-37 10 -64 18t-37 -6zM197 1087q100 -2 198.5 -24.5t181 -62t145 -96t91.5 -126t17.5 -150.5t-72.5 -171q-25 -35 -88.5 -57.5t-144.5 -36t-166 -18.5t-148 -3q-2 133 -2 216t1 132t3 70.5t3 35t1 26 t-2 40t-6 79.5t-12 146zM236 1059q16 -90 19 -175t0 -168t-9 -165t-6 -166q10 0 14 -8t34.5 -11.5t102.5 4t217 38.5q82 16 126 79.5t52.5 141.5t-20.5 155.5t-94 122.5q-41 25 -92.5 52.5t-108.5 50t-117.5 37t-117.5 12.5z" />
<glyph unicode="&#xdf;" horiz-adv-x="1085" d="M12 1331q12 20 22.5 36.5t35.5 33.5q92 12 169.5 22.5t153.5 6.5q51 0 95 -15.5t86 -37t83 -45t84 -42.5q12 -23 33 -52.5t37 -68.5t24.5 -87t-4.5 -105q-4 -29 -22 -54.5t-43 -41.5q47 -29 93 -57.5t85 -62.5t71 -75t50 -94q31 -143 -17.5 -244.5t-140.5 -162 t-210.5 -80t-229.5 3.5q-10 35 -14 84t-2 77q49 -4 113.5 6.5t126 33t108.5 55t59 75.5q27 80 0 138.5t-83 94.5t-128 44t-133 -15q-18 18 -27.5 44t-12.5 51.5t-5 50t-6 43.5q41 12 74.5 39.5t52 63.5t17.5 78t-29 81q-53 16 -97.5 35.5t-85.5 31t-81 9.5t-87 -27 q14 -37 11.5 -84t-7 -93t-4.5 -85t23 -63q-6 -104 7 -207t15 -209q-10 0 -12 -19.5t0 -42.5q2 -27 6 -63q-2 -29 1 -57.5t7.5 -58.5t7.5 -61.5t1 -68.5q-2 -49 -5.5 -71.5t-6.5 -40t-6 -42t-5 -79.5q-4 -49 -5 -97.5t-6 -94.5t-16.5 -90t-33.5 -83q-14 0 -36 2t-43.5 6 t-42 11.5t-30.5 19.5q2 6 2 50t-2 96.5t-3 98.5t-1 54q0 43 2 59.5t5 25.5t6 21.5t1 49.5q6 53 4 113.5t-8 127t-13 137t-11 144.5q2 25 3 58.5t3 67.5t6 65.5t10 52.5q-10 43 -12 116.5t-3 156.5t-5 165t-19 141zM74 1343q-2 -72 2 -127t8 -104t6 -100t-2 -117 q10 -47 10 -87t-4 -80t-9 -83t-1 -94q23 -150 26 -274.5t-3.5 -242.5t-15.5 -238t-9 -259q16 -2 40.5 -6t41.5 -6q23 29 33 60.5t13 64.5t2 65.5t-3 61.5q-4 57 1 100t10 85t8 90t-3 116q-4 35 0 64.5t0 58.5q-14 76 -18 149.5t-4 145v139.5t-4 129q-4 55 -4 112.5v109.5v93 t-2 66q45 33 102 35t115.5 -14.5t110.5 -43t85 -49.5q33 -47 46.5 -97t-17.5 -118q0 8 -4 15.5t-4 1.5q-12 -27 -39 -55.5t-74 -45.5q4 -35 8 -57.5t8 -63.5q117 23 202 -7.5t131 -88t51.5 -130.5t-39 -136.5t-140.5 -105.5t-252 -37q-8 -35 -6 -51.5t6 -39.5q0 -20 45 -25 t113 6t144.5 39t139 76t98.5 116.5t24 158.5q-12 80 -50.5 138.5t-90.5 101.5t-113.5 71.5t-116.5 49.5q41 35 73.5 65.5t43.5 79.5q6 63 -7.5 112.5t-42 86.5t-68.5 63.5t-83 48.5q-129 47 -264 53.5t-254 -45.5z" />
<glyph unicode="&#xe0;" horiz-adv-x="931" d="M25 213q-20 98 16.5 171t107 120t165 71.5t188.5 28.5q-4 27 -8.5 57.5t-10.5 58.5t-16 50.5t-31 36.5q-20 2 -34.5 -11.5t-29 -34t-29.5 -40t-36 -25.5q-49 35 -57 76t10.5 82t58 76t91 57.5t106.5 27.5t102 -16q66 -31 110 -90t70.5 -138t40 -171t18.5 -186.5t6 -184.5 t3 -166q-35 10 -41 38t-14 57q-18 88 -15 189.5t1 199.5t-19.5 187t-75.5 155q-41 59 -97 79.5t-118 8.5q-47 -10 -86 -36t-64.5 -58.5t-36.5 -69.5t1 -68q18 6 27.5 21.5t17.5 33t17.5 35t25.5 27.5q51 -14 81 -42.5t45 -68.5t21.5 -88.5t10.5 -103.5q-49 2 -105.5 -3 t-113 -18.5t-106.5 -38t-85 -57.5q-35 -37 -53 -85t-20.5 -95t15 -87t56.5 -64q37 -12 75 -25.5t80 -23t90 -12.5t103 5q33 4 70 14.5t71.5 19.5t65.5 14.5t55 0.5q12 -4 26.5 -6t25 -6t17.5 -14t7 -31q-86 6 -173 -6t-173 -20.5t-170 -3t-162 45.5q-35 14 -73.5 57.5 t-44.5 92.5zM215 274q-6 45 21.5 84t73.5 63.5t103.5 34t112.5 -4.5q49 -35 77 -94.5t44 -108.5q-37 -20 -105.5 -37.5t-137 -21t-124 15t-65.5 69.5zM248 295q14 -41 56 -56.5t94.5 -15.5t107.5 10.5t96 20.5q2 80 -47 122t-112.5 47t-122 -26.5t-72.5 -101.5zM297 1376 q-2 12 4 17.5t4 19.5q20 2 54 5t71 4t72.5 1t62.5 -2q-6 -43 12.5 -82t43 -79.5t47 -87t24.5 -101.5q-61 -16 -103 -5t-72 40t-53.5 67.5t-47 78.5t-51 74t-68.5 50zM360 1384q33 -41 67 -96t69.5 -101t72.5 -73t80 -10q-29 72 -60.5 150.5t-74.5 134.5q-10 -6 -29.5 -6.5 t-42 0.5t-44.5 2t-38 -1z" />
<glyph unicode="&#xe1;" horiz-adv-x="931" d="M25 213q-20 98 16.5 171t107 120t165 71.5t188.5 28.5q-4 27 -8.5 57.5t-10.5 58.5t-16 50.5t-31 36.5q-20 2 -34.5 -11.5t-29 -34t-29.5 -40t-36 -25.5q-49 35 -57 76t10.5 82t58 76t91 57.5t106.5 27.5t102 -16q66 -31 110 -90t70.5 -138t40 -171t18.5 -186.5t6 -184.5 t3 -166q-35 10 -41 38t-14 57q-18 88 -15 189.5t1 199.5t-19.5 187t-75.5 155q-41 59 -97 79.5t-118 8.5q-47 -10 -86 -36t-64.5 -58.5t-36.5 -69.5t1 -68q18 6 27.5 21.5t17.5 33t17.5 35t25.5 27.5q51 -14 81 -42.5t45 -68.5t21.5 -88.5t10.5 -103.5q-49 2 -105.5 -3 t-113 -18.5t-106.5 -38t-85 -57.5q-35 -37 -53 -85t-20.5 -95t15 -87t56.5 -64q37 -12 75 -25.5t80 -23t90 -12.5t103 5q33 4 70 14.5t71.5 19.5t65.5 14.5t55 0.5q12 -4 26.5 -6t25 -6t17.5 -14t7 -31q-86 6 -173 -6t-173 -20.5t-170 -3t-162 45.5q-35 14 -73.5 57.5 t-44.5 92.5zM215 274q-6 45 21.5 84t73.5 63.5t103.5 34t112.5 -4.5q49 -35 77 -94.5t44 -108.5q-37 -20 -105.5 -37.5t-137 -21t-124 15t-65.5 69.5zM248 295q14 -41 56 -56.5t94.5 -15.5t107.5 10.5t96 20.5q2 80 -47 122t-112.5 47t-122 -26.5t-72.5 -101.5zM295 1071 q2 55 24.5 101.5t47 87t43 79.5t12.5 82q27 2 62.5 2t72.5 -1t71 -4t54 -5q-2 -14 4 -19t4 -18q-41 -16 -68.5 -50t-51 -74t-47 -78.5t-53.5 -67.5t-72 -40t-103 5zM338 1104q43 -16 80 10.5t72.5 72.5t68.5 101t68 96q-16 2 -38 1t-44.5 -2t-42 -1t-29.5 7 q-43 -55 -74.5 -134t-60.5 -151z" />
<glyph unicode="&#xe2;" horiz-adv-x="931" d="M25 213q-20 98 16.5 171t107 120t165 71.5t188.5 28.5q-4 27 -8.5 57.5t-10.5 58.5t-16 50.5t-31 36.5q-20 2 -34.5 -11.5t-29 -34t-29.5 -40t-36 -25.5q-49 35 -57 76t10.5 82t58 76t91 57.5t106.5 27.5t102 -16q66 -31 110 -90t70.5 -138t40 -171t18.5 -186.5t6 -184.5 t3 -166q-35 10 -41 38t-14 57q-18 88 -15 189.5t1 199.5t-19.5 187t-75.5 155q-41 59 -97 79.5t-118 8.5q-47 -10 -86 -36t-64.5 -58.5t-36.5 -69.5t1 -68q18 6 27.5 21.5t17.5 33t17.5 35t25.5 27.5q51 -14 81 -42.5t45 -68.5t21.5 -88.5t10.5 -103.5q-49 2 -105.5 -3 t-113 -18.5t-106.5 -38t-85 -57.5q-35 -37 -53 -85t-20.5 -95t15 -87t56.5 -64q37 -12 75 -25.5t80 -23t90 -12.5t103 5q33 4 70 14.5t71.5 19.5t65.5 14.5t55 0.5q12 -4 26.5 -6t25 -6t17.5 -14t7 -31q-86 6 -173 -6t-173 -20.5t-170 -3t-162 45.5q-35 14 -73.5 57.5 t-44.5 92.5zM215 274q-6 45 21.5 84t73.5 63.5t103.5 34t112.5 -4.5q49 -35 77 -94.5t44 -108.5q-37 -20 -105.5 -37.5t-137 -21t-124 15t-65.5 69.5zM219 1026q18 57 47 104.5t58 98.5q29 43 53.5 92.5t40.5 108.5q98 -12 168 -31q27 -31 49 -71t43.5 -81t45.5 -81t54 -68 q-6 -12 -22.5 -18.5t-36 -11.5t-36.5 -11t-24 -17q-23 25 -39 52.5t-33.5 56.5t-37 53.5t-45.5 42.5q-4 -31 -18.5 -51t-30 -38.5t-29.5 -40t-16 -54.5q-41 -10 -88.5 -17.5t-102.5 -17.5zM248 295q14 -41 56 -56.5t94.5 -15.5t107.5 10.5t96 20.5q2 80 -47 122t-112.5 47 t-122 -26.5t-72.5 -101.5zM266 1069q55 -8 89 13.5t55.5 57.5t38 78t38.5 76q33 -8 59.5 -37.5t48 -64.5t39.5 -66t32 -43q-10 8 -6 10.5t17 3.5t29.5 3t30.5 8q-53 98 -82.5 141t-46 60.5t-22.5 21.5t-8 23q-6 6 -26 13t-42.5 12t-43 9.5t-28.5 4.5q-35 -78 -80 -168 t-92 -156z" />
<glyph unicode="&#xe3;" horiz-adv-x="931" d="M25 213q-20 98 16.5 171t107 120t165 71.5t188.5 28.5q-4 27 -8.5 57.5t-10.5 58.5t-16 50.5t-31 36.5q-20 2 -34.5 -11.5t-29 -34t-29.5 -40t-36 -25.5q-49 35 -57 76t10.5 82t58 76t91 57.5t106.5 27.5t102 -16q66 -31 110 -90t70.5 -138t40 -171t18.5 -186.5t6 -184.5 t3 -166q-35 10 -41 38t-14 57q-18 88 -15 189.5t1 199.5t-19.5 187t-75.5 155q-41 59 -97 79.5t-118 8.5q-47 -10 -86 -36t-64.5 -58.5t-36.5 -69.5t1 -68q18 6 27.5 21.5t17.5 33t17.5 35t25.5 27.5q51 -14 81 -42.5t45 -68.5t21.5 -88.5t10.5 -103.5q-49 2 -105.5 -3 t-113 -18.5t-106.5 -38t-85 -57.5q-35 -37 -53 -85t-20.5 -95t15 -87t56.5 -64q37 -12 75 -25.5t80 -23t90 -12.5t103 5q33 4 70 14.5t71.5 19.5t65.5 14.5t55 0.5q12 -4 26.5 -6t25 -6t17.5 -14t7 -31q-86 6 -173 -6t-173 -20.5t-170 -3t-162 45.5q-35 14 -73.5 57.5 t-44.5 92.5zM125 1110q6 45 12 77t18.5 55.5t33 39.5t51.5 35q31 16 64.5 28.5t68.5 17.5t69.5 -2t65.5 -30q20 -16 35.5 -36.5t30 -40t27.5 -35t30 -17.5q31 -6 56.5 7.5t45 36t31.5 49t18 44.5q35 0 68 -1t47 -21q2 -23 -4 -14.5t-19 6.5q6 -31 -7 -68t-38.5 -69.5 t-61.5 -56t-77 -28.5q-45 -6 -80 6.5t-63.5 35t-51 53t-42.5 65.5q-45 6 -82 -2t-68 -28.5t-54.5 -48t-39.5 -58.5q-16 0 -27.5 -2t-20.5 -3t-17.5 -1t-18.5 6zM156 1133q18 4 30.5 17t23.5 29.5t22.5 33t29.5 28.5q23 14 52.5 27.5t54.5 17.5q43 4 69.5 -4t45 -26.5 t31.5 -44t30 -54.5q33 -10 57.5 -25.5t56.5 -13.5q18 0 44 9.5t50.5 24.5t45 34.5t30.5 38.5q4 10 8.5 25.5t6.5 28.5t0 22.5t-8 7.5q-16 2 -23.5 -4.5t-11.5 -15.5t-5 -21.5t-5 -20.5q-33 -25 -66 -50.5t-80 -33.5q-35 8 -58.5 31t-43 47.5t-40 49t-50.5 40.5 q-133 0 -204 -48t-93 -150zM215 274q-6 45 21.5 84t73.5 63.5t103.5 34t112.5 -4.5q49 -35 77 -94.5t44 -108.5q-37 -20 -105.5 -37.5t-137 -21t-124 15t-65.5 69.5zM248 295q14 -41 56 -56.5t94.5 -15.5t107.5 10.5t96 20.5q2 80 -47 122t-112.5 47t-122 -26.5 t-72.5 -101.5z" />
</font>
</defs>
</svg>
